<?xml version="1.0" encoding="UTF-8" standalone="no"?>
<!DOCTYPE svg PUBLIC "-//W3C//DTD SVG 1.1//EN" "http://www.w3.org/Graphics/SVG/1.1/DTD/svg11.dtd">
<svg width="100%" height="100%" viewBox="0 0 880 294" version="1.1" xmlns="http://www.w3.org/2000/svg" xmlns:xlink="http://www.w3.org/1999/xlink" xml:space="preserve" xmlns:serif="http://www.serif.com/" style="fill-rule:evenodd;clip-rule:evenodd;stroke-linecap:round;stroke-linejoin:round;stroke-miterlimit:1.5;">
    <g transform="matrix(1,0,0,1,-27.552,-18)">
        <g>
            <g transform="matrix(0.449566,0,0,0.449566,17.9864,13.2716)">
                <g transform="matrix(8.58318,0,0,8.58318,-976.639,-1029.12)">
                    <g>
                        <g>
                            <g>
                                <g transform="matrix(1,0,0,1,62.1662,43.356)">
                                    <path d="M86.425,145.604C84.929,146.544 83.34,147.232 81.639,147.658" style="fill:none;stroke:rgb(237,109,11);stroke-width:1.56px;"/>
                                </g>
                                <g transform="matrix(1,0,0,1,62.1662,43.356)">
                                    <path d="M72.822,147.59C71.32,147.192 69.897,146.599 68.582,145.84" style="fill:none;stroke:rgb(237,109,11);stroke-width:1.56px;"/>
                                </g>
                                <g transform="matrix(1,0,0,1,62.1662,43.356)">
                                    <path d="M62.426,139.951C61.461,138.443 60.76,136.816 60.326,135.075" style="fill:none;stroke:rgb(237,109,11);stroke-width:1.56px;"/>
                                </g>
                                <g transform="matrix(1,0,0,1,62.1662,43.356)">
                                    <path d="M60.347,126.306C60.744,124.754 61.349,123.284 62.13,121.929" style="fill:none;stroke:rgb(237,109,11);stroke-width:1.56px;"/>
                                </g>
                                <g transform="matrix(1,0,0,1,62.1662,43.356)">
                                    <path d="M68.201,115.7C69.68,114.797 71.181,114.121 72.905,113.686" style="fill:none;stroke:rgb(237,109,11);stroke-width:1.56px;"/>
                                </g>
                                <g transform="matrix(1,0,0,1,62.1662,43.356)">
                                    <path d="M81.696,113.694C83.557,114.174 85.299,114.952 86.867,115.975" style="fill:none;stroke:rgb(237,109,11);stroke-width:1.56px;"/>
                                </g>
                                <g transform="matrix(1,0,0,1,62.1662,43.356)">
                                    <path d="M92.714,122.304C93.391,123.549 93.922,124.885 94.283,126.288" style="fill:none;stroke:rgb(237,109,11);stroke-width:1.56px;"/>
                                </g>
                                <g transform="matrix(1,0,0,1,62.1662,43.356)">
                                    <path d="M94.248,135.159C93.816,136.787 93.154,138.322 92.301,139.728" style="fill:none;stroke:rgb(237,109,11);stroke-width:1.56px;"/>
                                </g>
                                <g transform="matrix(1,0,0,1,9.48478,5.20107)">
                                    <path d="M129.998,146.866L129.998,140.917" style="fill:none;stroke:rgb(237,109,11);stroke-width:1.56px;"/>
                                </g>
                                <g transform="matrix(1,0,0,1,22.542,5.20107)">
                                    <path d="M129.998,151.987L129.998,141.106" style="fill:none;stroke:rgb(237,109,11);stroke-width:1.56px;"/>
                                </g>
                                <g transform="matrix(1,0,0,1,9.48478,-9.58081)">
                                    <path d="M129.998,146.767L129.998,140.878" style="fill:none;stroke:rgb(237,109,11);stroke-width:1.56px;"/>
                                </g>
                                <g transform="matrix(6.12323e-17,1,-1,6.12323e-17,275.998,-3.06493)">
                                    <path d="M129.998,144.742L129.998,140.883" style="fill:none;stroke:rgb(237,109,11);stroke-width:1.56px;"/>
                                </g>
                                <g transform="matrix(6.12323e-17,1,-1,6.12323e-17,290.779,11.7169)">
                                    <path d="M129.998,146.865L129.998,142.473" style="fill:none;stroke:rgb(237,109,11);stroke-width:1.56px;"/>
                                </g>
                                <g transform="matrix(1,0,0,1,15.9782,-9.58081)">
                                    <path d="M129.998,151.296L129.998,141.116" style="fill:none;stroke:rgb(237,109,11);stroke-width:1.56px;"/>
                                </g>
                                <g transform="matrix(6.12323e-17,1,-1,6.12323e-17,287.492,1.53701)">
                                    <path d="M129.998,141.515L129.998,123.438" style="fill:none;stroke:rgb(237,109,11);stroke-width:1.56px;"/>
                                </g>
                                <g transform="matrix(6.12323e-17,1,-1,6.12323e-17,293.77,72.7091)">
                                    <path d="M117.722,147.69L121.177,145.592" style="fill:none;stroke:rgb(237,109,11);stroke-width:1.56px;"/>
                                </g>
                                <g transform="matrix(1,0,0,1,-3.11477,-9.58081)">
                                    <path d="M129.998,166.863L129.998,140.919" style="fill:none;stroke:rgb(237,109,11);stroke-width:1.56px;"/>
                                </g>
                                <g transform="matrix(0.249772,0,0,0.249772,120.172,123.863)">
                                    <circle cx="77.317" cy="130.657" r="17.516" style="fill:none;stroke:rgb(237,109,11);stroke-width:6.26px;"/>
                                </g>
                                <g transform="matrix(0.249772,0,0,0.249772,120.172,109.081)">
                                    <circle cx="77.317" cy="130.657" r="17.516" style="fill:none;stroke:rgb(237,109,11);stroke-width:6.26px;"/>
                                </g>
                                <g transform="matrix(0.249772,0,0,0.249772,120.172,94.299)">
                                    <circle cx="77.317" cy="130.657" r="17.516" style="fill:none;stroke:rgb(237,109,11);stroke-width:6.26px;"/>
                                </g>
                                <g transform="matrix(0.249772,0,0,0.249772,107.572,94.299)">
                                    <circle cx="77.317" cy="130.657" r="17.516" style="fill:none;stroke:rgb(237,109,11);stroke-width:6.26px;"/>
                                </g>
                                <g transform="matrix(0.249772,0,0,0.249772,133.229,109.081)">
                                    <circle cx="77.317" cy="130.657" r="17.516" style="fill:none;stroke:rgb(237,109,11);stroke-width:6.26px;"/>
                                </g>
                                <g transform="matrix(0.249772,0,0,0.249772,120.172,158.895)">
                                    <circle cx="77.317" cy="130.657" r="17.516" style="fill:none;stroke:rgb(237,109,11);stroke-width:6.26px;"/>
                                </g>
                                <g transform="matrix(0.249772,0,0,0.249772,137.688,141.379)">
                                    <circle cx="77.317" cy="130.657" r="17.516" style="fill:none;stroke:rgb(237,109,11);stroke-width:6.26px;"/>
                                </g>
                                <g transform="matrix(0.249772,0,0,0.249772,102.656,141.379)">
                                    <circle cx="77.317" cy="130.657" r="17.516" style="fill:none;stroke:rgb(237,109,11);stroke-width:6.26px;"/>
                                </g>
                                <g transform="matrix(0.249772,0,0,0.249772,107.572,129.143)">
                                    <circle cx="77.317" cy="130.657" r="17.516" style="fill:none;stroke:rgb(237,109,11);stroke-width:6.26px;"/>
                                </g>
                                <g transform="matrix(0.249772,0,0,0.249772,107.572,154.52)">
                                    <circle cx="77.317" cy="130.657" r="17.516" style="fill:none;stroke:rgb(237,109,11);stroke-width:6.26px;"/>
                                </g>
                                <g transform="matrix(0.249772,0,0,0.249772,133.313,129.143)">
                                    <circle cx="77.317" cy="130.657" r="17.516" style="fill:none;stroke:rgb(237,109,11);stroke-width:6.26px;"/>
                                </g>
                                <g transform="matrix(0.249772,0,0,0.249772,133.313,154.52)">
                                    <circle cx="77.317" cy="130.657" r="17.516" style="fill:none;stroke:rgb(237,109,11);stroke-width:6.26px;"/>
                                </g>
                            </g>
                            <g transform="matrix(6.12323e-17,1,-1,6.12323e-17,307.264,31.4886)">
                                <path d="M129.998,150.265L129.998,143.451" style="fill:rgb(124,183,111);stroke:rgb(237,109,11);stroke-width:1.56px;"/>
                            </g>
                            <g transform="matrix(-1,1.22465e-16,-1.22465e-16,-1,293.812,304.937)">
                                <path d="M129.998,151.296L129.998,143.451" style="fill:rgb(124,183,111);stroke:rgb(237,109,11);stroke-width:1.56px;"/>
                            </g>
                            <g transform="matrix(-1,1.22465e-16,-1.22465e-16,-1,301.657,323.87)">
                                <path d="M129.998,150.63L129.998,146.681L129.998,146.048" style="fill:rgb(124,183,111);stroke:rgb(237,109,11);stroke-width:1.56px;"/>
                            </g>
                            <g transform="matrix(1,0,0,1,41.6602,-4.47769)">
                                <path d="M129.998,145.456L129.998,141.742" style="fill:none;stroke:rgb(237,109,11);stroke-width:1.56px;"/>
                            </g>
                            <g transform="matrix(0.0241859,0.999707,-0.999707,0.0241859,294.32,28.2187)">
                                <path d="M122.367,133.506L117.803,128.715" style="fill:none;stroke:rgb(237,109,11);stroke-width:1.56px;"/>
                            </g>
                            <g transform="matrix(-0.0241859,-0.999707,0.999707,-0.0241859,55.5473,310.89)">
                                <path d="M123.558,134.756L122.572,133.721" style="fill:none;stroke:rgb(237,109,11);stroke-width:1.56px;"/>
                            </g>
                            <g transform="matrix(-0.0241859,-0.999707,0.999707,-0.0241859,53.5252,306.429)">
                                <path d="M123.558,134.756L121.586,132.685" style="fill:none;stroke:rgb(237,109,11);stroke-width:1.56px;"/>
                            </g>
                            <g transform="matrix(-0.0241859,-0.999707,0.999707,-0.0241859,51.2296,302.902)">
                                <path d="M124.364,135.602L120.943,132.011" style="fill:none;stroke:rgb(237,109,11);stroke-width:1.56px;"/>
                            </g>
                            <g transform="matrix(6.12323e-17,-1,-1,-6.12323e-17,314.946,314.035)">
                                <path d="M129.998,127.51L129.998,108.387" style="fill:none;stroke:rgb(237,109,11);stroke-width:1.56px;"/>
                            </g>
                            <g transform="matrix(1.1518e-16,-1,-1.88104,-6.12323e-17,417.231,309.646)">
                                <path d="M129.998,123.324L129.998,111.998" style="fill:none;stroke:rgb(237,109,11);stroke-width:1.04px;"/>
                            </g>
                            <g transform="matrix(1.1518e-16,-1,-1.88104,-6.12323e-17,403.635,315.118)">
                                <path d="M129.998,121.376L129.998,115.559" style="fill:none;stroke:rgb(237,109,11);stroke-width:1.04px;"/>
                            </g>
                            <g transform="matrix(1.1518e-16,-1,-1.88104,-6.12323e-17,401.339,311.959)">
                                <path d="M129.998,119.692L129.998,116.096" style="fill:none;stroke:rgb(237,109,11);stroke-width:1.04px;"/>
                            </g>
                            <g transform="matrix(1.1518e-16,-1,-1.88104,-6.12323e-17,401.339,308.8)">
                                <path d="M129.998,120.64L129.998,117.522" style="fill:none;stroke:rgb(237,109,11);stroke-width:1.04px;"/>
                            </g>
                            <g transform="matrix(9.08153e-17,-1,-1.48313,-6.12323e-17,371.035,305.293)">
                                <path d="M129.998,126.254L129.998,110.898" style="fill:none;stroke:rgb(237,109,11);stroke-width:1.24px;"/>
                            </g>
                            <g transform="matrix(1,0,0,1,22.7039,-43.3529)">
                                <g transform="matrix(-0.0241859,0.999707,0.999707,0.0241859,34.1005,61.2732)">
                                    <path d="M123.558,134.756L122.572,133.721" style="fill:none;stroke:rgb(237,109,11);stroke-width:1.56px;"/>
                                </g>
                                <g transform="matrix(-0.0241859,0.999707,0.999707,0.0241859,32.0784,65.7343)">
                                    <path d="M123.558,134.756L121.586,132.685" style="fill:none;stroke:rgb(237,109,11);stroke-width:1.56px;"/>
                                </g>
                                <g transform="matrix(-0.0241859,0.999707,0.999707,0.0241859,29.7827,69.2613)">
                                    <path d="M124.364,135.602L120.943,132.011" style="fill:none;stroke:rgb(237,109,11);stroke-width:1.56px;"/>
                                </g>
                                <g transform="matrix(6.12323e-17,1,-1,6.12323e-17,293.499,58.1285)">
                                    <path d="M129.998,127.51L129.998,109.706" style="fill:none;stroke:rgb(237,109,11);stroke-width:1.56px;"/>
                                </g>
                                <g transform="matrix(1.1518e-16,1,-1.88104,6.12323e-17,395.784,62.517)">
                                    <path d="M129.998,123.324L129.998,112.699" style="fill:none;stroke:rgb(237,109,11);stroke-width:1.04px;"/>
                                </g>
                                <g transform="matrix(1.1518e-16,1,-1.88104,6.12323e-17,382.188,57.0449)">
                                    <path d="M129.998,121.856L129.998,115.559" style="fill:none;stroke:rgb(237,109,11);stroke-width:1.04px;"/>
                                </g>
                                <g transform="matrix(1.1518e-16,1,-1.88104,6.12323e-17,379.893,60.204)">
                                    <path d="M129.998,120.477L129.998,116.096" style="fill:none;stroke:rgb(237,109,11);stroke-width:1.04px;"/>
                                </g>
                                <g transform="matrix(1.1518e-16,1,-1.88104,6.12323e-17,379.893,63.3632)">
                                    <path d="M129.998,121.625L129.998,117.522" style="fill:none;stroke:rgb(237,109,11);stroke-width:1.04px;"/>
                                </g>
                                <g transform="matrix(9.08153e-17,1,-1.48313,6.12323e-17,349.588,66.8705)">
                                    <path d="M129.998,126.254L129.998,111.788" style="fill:none;stroke:rgb(237,109,11);stroke-width:1.24px;"/>
                                </g>
                            </g>
                            <g transform="matrix(0.193776,0.981046,0.981046,-0.193776,1.98354,98.3292)">
                                <path d="M119.056,147.471L125.567,142.587" style="fill:none;stroke:rgb(237,109,11);stroke-width:1.56px;"/>
                            </g>
                            <g transform="matrix(-6.12323e-17,-1,1,-6.12323e-17,142.57,274.728)">
                                <path d="M130.1,126.802L129.857,108.643" style="fill:none;stroke:rgb(237,109,11);stroke-width:1.56px;"/>
                            </g>
                            <g transform="matrix(-6.12323e-17,-1,1,-6.12323e-17,142.57,313.943)">
                                <path d="M130.126,122.823L129.857,108.643" style="fill:none;stroke:rgb(237,109,11);stroke-width:1.56px;"/>
                            </g>
                            <g transform="matrix(-6.12323e-17,-1,1,-6.12323e-17,142.57,309.586)">
                                <path d="M130.059,123.996L129.857,108.643" style="fill:none;stroke:rgb(237,109,11);stroke-width:1.56px;"/>
                            </g>
                            <g transform="matrix(-6.12323e-17,-1,1,-6.12323e-17,142.57,305.216)">
                                <path d="M129.998,125.545L129.857,108.643" style="fill:none;stroke:rgb(237,109,11);stroke-width:1.56px;"/>
                            </g>
                            <g transform="matrix(-6.12323e-17,-1,1,-6.12323e-17,142.57,300.862)">
                                <path d="M130.1,126.802L129.857,108.643" style="fill:none;stroke:rgb(237,109,11);stroke-width:1.56px;"/>
                            </g>
                            <g transform="matrix(-6.12323e-17,-1,1,-6.12323e-17,171.325,311.601)">
                                <path d="M130.1,123.251L129.998,109.173" style="fill:none;stroke:rgb(237,109,11);stroke-width:1.56px;"/>
                            </g>
                            <g transform="matrix(-6.12323e-17,-1,1,-6.12323e-17,171.325,315.442)">
                                <path d="M130.1,123.957L129.988,107.004" style="fill:none;stroke:rgb(237,109,11);stroke-width:1.56px;"/>
                            </g>
                            <g transform="matrix(-6.12323e-17,-1,1,-6.12323e-17,170.091,319.569)">
                                <path d="M130.077,125.07L129.985,106.636" style="fill:none;stroke:rgb(237,109,11);stroke-width:1.56px;"/>
                            </g>
                            <g transform="matrix(-6.12323e-17,-1,1,-6.12323e-17,168.566,323.965)">
                                <path d="M130.114,132.414L129.985,107.1" style="fill:none;stroke:rgb(237,109,11);stroke-width:1.56px;"/>
                            </g>
                            <g transform="matrix(-6.12323e-17,-1,1,-6.12323e-17,142.57,279.028)">
                                <path d="M130.108,131.722L129.857,108.643" style="fill:none;stroke:rgb(237,109,11);stroke-width:1.56px;"/>
                            </g>
                            <g transform="matrix(-6.12323e-17,-1,1,-6.12323e-17,142.57,283.436)">
                                <path d="M130.089,136.375L129.857,108.643" style="fill:none;stroke:rgb(237,109,11);stroke-width:1.56px;"/>
                            </g>
                            <g transform="matrix(-1,0,0,-1,465.944,292.59)">
                                <path d="M129.998,128.377L129.998,116.096" style="fill:none;stroke:rgb(237,109,11);stroke-width:1.56px;"/>
                            </g>
                            <g transform="matrix(-1,0,0,-1,460.589,275.506)">
                                <path d="M129.998,130.921L129.998,125.104" style="fill:none;stroke:rgb(237,109,11);stroke-width:1.56px;"/>
                            </g>
                            <g transform="matrix(-1,0,0,-1,435.339,288.696)">
                                <path d="M129.998,129.468L129.998,107.252" style="fill:none;stroke:rgb(237,109,11);stroke-width:1.56px;"/>
                            </g>
                            <g transform="matrix(-6.12323e-17,-1,1,-6.12323e-17,142.57,296.508)">
                                <path d="M129.998,131.586L129.857,108.643" style="fill:none;stroke:rgb(237,109,11);stroke-width:1.56px;"/>
                            </g>
                            <g transform="matrix(-6.12323e-17,-1,1,-6.12323e-17,142.57,287.768)">
                                <path d="M129.998,134.701L129.857,108.643" style="fill:none;stroke:rgb(237,109,11);stroke-width:1.56px;"/>
                            </g>
                            <g transform="matrix(-6.12323e-17,-1,1,-6.12323e-17,142.57,292.136)">
                                <path d="M129.998,132.936L129.857,108.643" style="fill:none;stroke:rgb(237,109,11);stroke-width:1.56px;"/>
                            </g>
                            <g transform="matrix(-6.12323e-17,-1,1,-6.12323e-17,170.683,262.391)">
                                <path d="M129.998,139.999L129.998,120.124" style="fill:none;stroke:rgb(237,109,11);stroke-width:1.56px;"/>
                            </g>
                            <g transform="matrix(-6.12323e-17,-1,1,-6.12323e-17,170.683,267.963)">
                                <path d="M129.998,138.687L129.998,123.622" style="fill:none;stroke:rgb(237,109,11);stroke-width:1.56px;"/>
                            </g>
                            <g transform="matrix(-6.12323e-17,-1,1,-6.12323e-17,170.899,257.105)">
                                <path d="M129.942,141.029L129.998,116.096" style="fill:none;stroke:rgb(237,109,11);stroke-width:1.56px;"/>
                            </g>
                            <g transform="matrix(0.292505,0.956264,0.956264,-0.292505,120.228,42.1738)">
                                <path d="M129.998,134.63L141.629,112.75" style="fill:none;stroke:rgb(237,109,11);stroke-width:1.56px;"/>
                            </g>
                            <g transform="matrix(0.308324,1.00798,1.00798,-0.308324,114.882,42.9966)">
                                <path d="M129.998,134.63L140.31,115.23" style="fill:none;stroke:rgb(237,109,11);stroke-width:1.48px;"/>
                            </g>
                            <g transform="matrix(0.338754,1.10746,1.10746,-0.338754,101.206,39.5665)">
                                <path d="M130.019,134.591L138.835,118.005" style="fill:none;stroke:rgb(237,109,11);stroke-width:1.35px;"/>
                            </g>
                            <g transform="matrix(-0.956264,0.292505,0.292505,0.956264,377.384,6.11268)">
                                <path d="M138.206,119.188L140.028,115.761" style="fill:none;stroke:rgb(237,109,11);stroke-width:1.56px;"/>
                            </g>
                            <g transform="matrix(-0.956264,0.292505,0.292505,0.956264,375.549,10.4808)">
                                <path d="M138.29,119.03L140.028,115.761" style="fill:none;stroke:rgb(237,109,11);stroke-width:1.56px;"/>
                            </g>
                            <g transform="matrix(-0.956264,0.292505,0.292505,0.956264,374.65,14.8527)">
                                <path d="M138.36,118.899L140.028,115.761" style="fill:none;stroke:rgb(237,109,11);stroke-width:1.56px;"/>
                            </g>
                            <g transform="matrix(-0.938598,0.287101,0.287101,0.938598,367.193,21.468)">
                                <path d="M132.467,129.987L139.663,116.448" style="fill:rgb(124,183,111);stroke:rgb(237,109,11);stroke-width:1.59px;"/>
                            </g>
                            <g transform="matrix(-0.938598,0.287101,0.287101,0.938598,392.231,32.106)">
                                <path d="M138.248,119.11L139.663,116.448" style="fill:none;stroke:rgb(237,109,11);stroke-width:1.59px;"/>
                            </g>
                            <g transform="matrix(-0.972751,0.297548,0.297548,0.972751,369.798,20.8657)">
                                <path d="M133.308,128.405L139.856,116.086" style="fill:none;stroke:rgb(237,109,11);stroke-width:1.54px;"/>
                            </g>
                            <g transform="matrix(-0.956264,0.292505,0.292505,0.956264,366.92,28.0771)">
                                <path d="M133.49,128.062L140.115,115.598" style="fill:none;stroke:rgb(237,109,11);stroke-width:1.56px;"/>
                            </g>
                            <g transform="matrix(-0.961174,0.294007,0.294007,0.961174,365.995,31.418)">
                                <path d="M133.359,128.309L140.028,115.761" style="fill:none;stroke:rgb(237,109,11);stroke-width:1.56px;"/>
                            </g>
                            <g transform="matrix(0.956264,0.292505,-0.292505,0.956264,210.984,32.1454)">
                                <path d="M133.359,128.309L136.76,121.909" style="fill:none;stroke:rgb(237,109,11);stroke-width:1.56px;"/>
                            </g>
                            <g transform="matrix(0.956264,0.292505,-0.292505,0.956264,219.374,-23.7402)">
                                <path d="M133.359,128.309L135.434,124.403" style="fill:none;stroke:rgb(237,109,11);stroke-width:1.56px;"/>
                            </g>
                            <g transform="matrix(0.707107,0.707107,-0.707107,0.707107,308.581,-38.4036)">
                                <path d="M129.998,132.697L129.998,119.424" style="fill:none;stroke:rgb(237,109,11);stroke-width:1.56px;"/>
                            </g>
                            <g transform="matrix(0.707107,-0.707107,-0.707107,-0.707107,291.884,354.24)">
                                <path d="M129.998,132.94L129.998,115.038" style="fill:none;stroke:rgb(237,109,11);stroke-width:1.56px;"/>
                            </g>
                            <g transform="matrix(0.707107,-0.707107,-0.707107,-0.707107,325.213,323.053)">
                                <path d="M129.998,132.382L129.998,122.393" style="fill:none;stroke:rgb(237,109,11);stroke-width:1.56px;"/>
                            </g>
                            <g transform="matrix(0.22713,-0.973865,-0.973865,-0.22713,254.333,289.407)">
                                <path d="M133.244,123.764L129.791,115.163" style="fill:none;stroke:rgb(237,109,11);stroke-width:1.56px;"/>
                            </g>
                            <g transform="matrix(0.35383,0.93531,-0.93531,0.35383,242.419,2.34204)">
                                <path d="M134.597,126.572L131.325,119.318" style="fill:none;stroke:rgb(237,109,11);stroke-width:1.56px;"/>
                            </g>
                            <g transform="matrix(-1,-1.22465e-16,-1.22465e-16,1,301.657,4.66447)">
                                <path d="M129.998,150.63L129.998,146.681L129.998,145.966" style="fill:rgb(124,183,111);stroke:rgb(237,109,11);stroke-width:1.56px;"/>
                            </g>
                            <g transform="matrix(0.35383,-0.93531,-0.93531,-0.35383,242.419,326.192)">
                                <path d="M134.597,126.572L131.348,119.37" style="fill:none;stroke:rgb(237,109,11);stroke-width:1.56px;"/>
                            </g>
                            <g transform="matrix(0.642788,-0.766044,-0.766044,-0.642788,199.98,349.339)">
                                <path d="M133.736,134.091L137.932,133.485" style="fill:none;stroke:rgb(237,109,11);stroke-width:1.56px;"/>
                            </g>
                            <g transform="matrix(6.12323e-17,1,-1,6.12323e-17,314.946,32.1987)">
                                <path d="M129.998,130.594L129.998,108.387" style="fill:none;stroke:rgb(237,109,11);stroke-width:1.56px;"/>
                            </g>
                            <g transform="matrix(6.12323e-17,1,-1,6.12323e-17,314.946,36.5586)">
                                <path d="M129.998,130.738L129.998,108.387" style="fill:none;stroke:rgb(237,109,11);stroke-width:1.56px;"/>
                            </g>
                            <g transform="matrix(9.08153e-17,1,-1.48313,6.12323e-17,371.035,27.8758)">
                                <path d="M129.998,124.5L129.998,110.898" style="fill:none;stroke:rgb(237,109,11);stroke-width:1.24px;"/>
                            </g>
                            <g transform="matrix(0.642788,0.766044,-0.766044,0.642788,198.671,-21.8563)">
                                <path d="M135.32,133.787L139.776,133.324" style="fill:none;stroke:rgb(237,109,11);stroke-width:1.56px;"/>
                            </g>
                            <g transform="matrix(-4.15991e-15,-1,-1.48313,6.24313e-15,371.035,300.916)">
                                <path d="M129.998,124.5L129.998,110.898" style="fill:none;stroke:rgb(237,109,11);stroke-width:1.24px;"/>
                            </g>
                            <g transform="matrix(0.249772,0,0,0.249772,161.097,131.633)">
                                <circle cx="77.317" cy="130.657" r="17.516" style="fill:none;stroke:rgb(237,109,11);stroke-width:6.26px;"/>
                            </g>
                            <g transform="matrix(0.249772,0,0,0.249772,152.347,113.469)">
                                <circle cx="77.317" cy="130.657" r="17.516" style="fill:none;stroke:rgb(237,109,11);stroke-width:6.26px;"/>
                            </g>
                            <g transform="matrix(6.12323e-17,-1,-1,-6.12323e-17,278.132,324)">
                                <path d="M129.998,129.954L129.998,111.932" style="fill:none;stroke:rgb(237,109,11);stroke-width:1.56px;"/>
                            </g>
                            <g transform="matrix(0.249772,0,0,-0.249772,152.347,215.065)">
                                <circle cx="77.317" cy="130.657" r="17.516" style="fill:none;stroke:rgb(237,109,11);stroke-width:6.26px;"/>
                            </g>
                        </g>
                    </g>
                </g>
                <g transform="matrix(0.475545,-0.285184,0.285184,0.475545,1122.53,349.839)">
                    <path d="M376.112,359.979C415.208,315.427 522.554,238.96 655.576,235.6C803.119,231.872 922.2,304.979 965.589,351.101C990.502,377.582 987.142,426.333 970.247,448.523C952.848,471.373 925.87,504.165 866.134,485.677C819.33,471.192 738.304,404.224 674.942,404.524C611.58,404.823 538.242,463.622 485.96,487.474C449.469,504.121 401.484,485.495 383.176,464.246C364.868,442.997 339.409,401.805 376.112,359.979Z" style="fill:none;stroke:rgb(237,109,11);stroke-width:24.21px;"/>
                </g>
                <g transform="matrix(-1.27628,0.306072,-0.306072,-1.27628,2738.21,978.542)">
                    <path d="M506.523,511.605C492.898,499.334 515.47,472.805 524.978,466.52C528.766,464.016 532.558,461.428 536.721,459.616C540.505,457.969 544.509,456.492 548.627,456.226C566.546,455.071 579.342,470.102 592.099,479.705C596.96,483.364 602.04,486.728 607.108,490.095C610.696,492.479 614.046,494.417 618.388,495.099C634.862,497.686 646.373,478.558 656.946,470.403C667.91,461.945 677.202,455.174 690.792,456.204C711.938,457.806 737.14,486.767 753.108,493.382C767.593,499.383 775.726,472.363 791.575,477.103C793.538,477.69 795.221,478.318 796.665,478.994C806.239,483.476 807.583,492.883 805.628,500.568C802.74,511.92 799.133,520.014 789.842,525.166C780.027,530.607 767.533,533.161 758.115,534.45C754.271,534.977 750.357,535.531 746.497,535.143C730.595,533.547 703.894,495.631 686.385,497.572C654.683,501.086 658.473,527.556 627.141,534.271C606.306,538.737 586.782,526.997 570.795,514.006C564.84,509.168 560.106,501.904 552.477,499.292C547.82,497.697 543.691,501.886 540.434,504.27C530.687,511.407 517.903,521.854 506.523,511.605Z" style="fill:none;stroke:rgb(237,109,11);stroke-width:10.24px;"/>
                </g>
                <g transform="matrix(3.92394,2.51942,1.94307,-3.02629,-1669.71,-161.562)">
                    <g>
                        <path d="M716.977,420.884C716.977,415.218 713.429,410.618 709.059,410.618L676.906,410.618C672.536,410.618 668.989,415.218 668.989,420.884C668.989,426.55 672.536,431.15 676.906,431.15L709.059,431.15C713.429,431.15 716.977,426.55 716.977,420.884Z" style="fill:none;stroke:rgb(237,109,11);stroke-width:3.7px;stroke-linejoin:miter;stroke-miterlimit:3;"/>
                    </g>
                </g>
                <g transform="matrix(2.41614,0,0,2.41614,69.3963,-99.8753)">
                    <circle cx="701.03" cy="79.04" r="28.334" style="fill:none;stroke:rgb(237,109,11);stroke-width:5.56px;"/>
                </g>
                <g transform="matrix(8.58318,0,0,8.58318,-2888.11,610.763)">
                    <path d="M473.422,-46.343C473.422,-47.542 472.449,-48.516 471.249,-48.516L432.138,-48.516C430.939,-48.516 429.966,-47.542 429.966,-46.343L429.966,-6.97C429.966,-5.771 430.939,-4.797 432.138,-4.797L471.249,-4.797C472.449,-4.797 473.422,-5.771 473.422,-6.97L473.422,-46.343Z" style="fill:none;stroke:rgb(237,109,11);stroke-width:1.56px;"/>
                </g>
                <g transform="matrix(12.8225,0,0,12.8225,-1150.8,-4315.26)">
                    <g transform="matrix(0.164619,0,0,0.164619,134.989,338.366)">
                        <g>
                            <g>
                                <g transform="matrix(-0.186279,-1.169,1.169,-0.186279,86.9753,259.663)">
                                    <g transform="matrix(-0.18012,0.458387,-0.458387,-0.18012,503.642,-48.1822)">
                                        <path d="M554.43,686.98L558.219,688.366" style="fill:none;stroke:rgb(237,109,11);stroke-width:2.26px;"/>
                                    </g>
                                    <g transform="matrix(0.240604,0.429734,-0.429734,0.240604,247.537,-358.619)">
                                        <path d="M554.43,686.98L558.219,688.366" style="fill:none;stroke:rgb(237,109,11);stroke-width:2.26px;"/>
                                    </g>
                                    <g transform="matrix(-0.18012,0.458387,-0.458387,-0.18012,492.438,-42.1563)">
                                        <path d="M470.223,701.982C470.223,701.982 470.64,688.238 472.157,684.991C473.019,683.144 478.776,682.499 478.776,682.499C478.776,682.499 477.048,694.122 477.13,698.713C477.177,701.399 470.223,701.982 470.223,701.982Z" style="fill:none;stroke:rgb(237,109,11);stroke-width:2.26px;"/>
                                    </g>
                                    <g transform="matrix(-0.18012,0.458387,-0.458387,-0.18012,491.473,-35.9288)">
                                        <path d="M470.197,703.575C470.197,703.575 470.64,688.238 472.157,684.991C473.019,683.144 478.776,682.499 478.776,682.499C478.776,682.499 477.022,695.714 477.103,700.305C477.151,702.991 470.197,703.575 470.197,703.575Z" style="fill:none;stroke:rgb(237,109,11);stroke-width:2.26px;"/>
                                    </g>
                                    <g transform="matrix(-0.18012,0.458387,-0.458387,-0.18012,490.549,-29.6047)">
                                        <path d="M471.189,703.209C471.189,703.209 470.848,687.485 472.364,684.238C473.227,682.391 478.984,681.746 478.984,681.746C478.984,681.746 478.014,695.349 478.096,699.94C478.143,702.626 471.189,703.209 471.189,703.209Z" style="fill:none;stroke:rgb(237,109,11);stroke-width:2.26px;"/>
                                    </g>
                                    <g transform="matrix(-0.18012,0.458387,-0.458387,-0.18012,489.269,-22.7801)">
                                        <path d="M470.458,703.26C470.458,703.26 470.797,686.593 472.313,683.346C473.176,681.499 479.846,681.141 479.846,681.141C479.846,681.141 478.249,695.687 477.365,699.991C476.824,702.622 470.458,703.26 470.458,703.26Z" style="fill:none;stroke:rgb(237,109,11);stroke-width:2.26px;"/>
                                    </g>
                                    <g transform="matrix(-0.18012,0.458387,-0.458387,-0.18012,487.853,-15.6087)">
                                        <path d="M470.197,704.124C470.197,704.124 471.108,686.758 472.624,683.511C473.486,681.664 480.645,681.097 480.645,681.097C480.645,681.097 478.294,695.796 478.376,700.387C478.424,703.073 470.197,704.124 470.197,704.124Z" style="fill:none;stroke:rgb(237,109,11);stroke-width:2.26px;"/>
                                    </g>
                                    <g transform="matrix(-0.18012,0.458387,-0.458387,-0.18012,492.438,-42.1563)">
                                        <path d="M477.662,692.931L482.57,700.684L483.405,688.623L478.776,682.499L477.662,692.931Z" style="fill:none;stroke:rgb(237,109,11);stroke-width:2.26px;"/>
                                    </g>
                                    <g transform="matrix(-0.18012,0.458387,-0.458387,-0.18012,491.61,-35.7035)">
                                        <path d="M477.376,693.424L483.405,700.684L483.405,688.623L478.776,682.499L477.376,693.424Z" style="fill:none;stroke:rgb(237,109,11);stroke-width:2.26px;"/>
                                    </g>
                                    <g transform="matrix(-0.18012,0.458387,-0.458387,-0.18012,490.856,-29.0076)">
                                        <path d="M477.48,692.931L483.405,701.635L484.054,689.012L478.083,682.769L477.48,692.931Z" style="fill:none;stroke:rgb(237,109,11);stroke-width:2.26px;"/>
                                    </g>
                                    <g transform="matrix(-0.18012,0.458387,-0.458387,-0.18012,489.215,-21.6453)">
                                        <path d="M476.519,693.242L482.544,702.216L483.405,688.623L477.662,681.882L476.519,693.242Z" style="fill:none;stroke:rgb(237,109,11);stroke-width:2.26px;"/>
                                    </g>
                                </g>
                                <g transform="matrix(0.186279,-1.169,-1.169,-0.186279,300.149,261.238)">
                                    <g transform="matrix(-0.18012,0.458387,-0.458387,-0.18012,503.59,-48.0615)">
                                        <path d="M554.43,686.98L558.219,688.366" style="fill:none;stroke:rgb(237,109,11);stroke-width:2.26px;"/>
                                    </g>
                                    <g transform="matrix(0.240604,0.429734,-0.429734,0.240604,247.537,-358.619)">
                                        <path d="M554.43,686.98L558.219,688.366" style="fill:none;stroke:rgb(237,109,11);stroke-width:2.26px;"/>
                                    </g>
                                    <g transform="matrix(-0.18012,0.458387,-0.458387,-0.18012,492.438,-42.1563)">
                                        <path d="M470.223,701.982C470.223,701.982 470.64,688.238 472.157,684.991C473.019,683.144 478.776,682.499 478.776,682.499C478.776,682.499 477.048,694.122 477.13,698.713C477.177,701.399 470.223,701.982 470.223,701.982Z" style="fill:none;stroke:rgb(237,109,11);stroke-width:2.26px;"/>
                                    </g>
                                    <g transform="matrix(-0.18012,0.458387,-0.458387,-0.18012,491.473,-35.9288)">
                                        <path d="M470.197,703.575C470.197,703.575 470.64,688.238 472.157,684.991C473.019,683.144 478.776,682.499 478.776,682.499C478.776,682.499 477.022,695.714 477.103,700.305C477.151,702.991 470.197,703.575 470.197,703.575Z" style="fill:none;stroke:rgb(237,109,11);stroke-width:2.26px;"/>
                                    </g>
                                    <g transform="matrix(-0.18012,0.458387,-0.458387,-0.18012,490.549,-29.6047)">
                                        <path d="M471.189,703.209C471.189,703.209 470.848,687.485 472.364,684.238C473.227,682.391 478.984,681.746 478.984,681.746C478.984,681.746 478.014,695.349 478.096,699.94C478.143,702.626 471.189,703.209 471.189,703.209Z" style="fill:none;stroke:rgb(237,109,11);stroke-width:2.26px;"/>
                                    </g>
                                    <g transform="matrix(-0.18012,0.458387,-0.458387,-0.18012,489.269,-22.7801)">
                                        <path d="M470.458,703.26C470.458,703.26 470.797,686.593 472.313,683.346C473.176,681.499 479.846,681.141 479.846,681.141C479.846,681.141 478.249,695.687 477.365,699.991C476.824,702.622 470.458,703.26 470.458,703.26Z" style="fill:none;stroke:rgb(237,109,11);stroke-width:2.26px;"/>
                                    </g>
                                    <g transform="matrix(-0.18012,0.458387,-0.458387,-0.18012,487.853,-15.6087)">
                                        <path d="M470.197,704.124C470.197,704.124 471.108,686.758 472.624,683.511C473.486,681.664 480.645,681.097 480.645,681.097C480.645,681.097 478.294,695.796 478.376,700.387C478.424,703.073 470.197,704.124 470.197,704.124Z" style="fill:none;stroke:rgb(237,109,11);stroke-width:2.26px;"/>
                                    </g>
                                    <g transform="matrix(-0.18012,0.458387,-0.458387,-0.18012,492.438,-42.1563)">
                                        <path d="M477.662,692.931L482.57,700.684L483.405,688.623L478.776,682.499L477.662,692.931Z" style="fill:none;stroke:rgb(237,109,11);stroke-width:2.26px;"/>
                                    </g>
                                    <g transform="matrix(-0.18012,0.458387,-0.458387,-0.18012,491.61,-35.7035)">
                                        <path d="M477.376,693.424L483.405,700.684L483.405,688.623L478.776,682.499L477.376,693.424Z" style="fill:none;stroke:rgb(237,109,11);stroke-width:2.26px;"/>
                                    </g>
                                    <g transform="matrix(-0.18012,0.458387,-0.458387,-0.18012,490.856,-29.0076)">
                                        <path d="M477.48,692.931L483.405,701.635L484.054,689.012L478.083,682.769L477.48,692.931Z" style="fill:none;stroke:rgb(237,109,11);stroke-width:2.26px;"/>
                                    </g>
                                    <g transform="matrix(-0.18012,0.458387,-0.458387,-0.18012,489.215,-21.6453)">
                                        <path d="M476.519,693.242L482.544,702.216L483.405,688.623L477.662,681.882L476.519,693.242Z" style="fill:none;stroke:rgb(237,109,11);stroke-width:2.26px;"/>
                                    </g>
                                </g>
                                <g transform="matrix(-0.837035,-0.837035,-0.837035,0.837035,317.422,143.342)">
                                    <g>
                                        <g transform="matrix(-0.18012,0.458387,-0.458387,-0.18012,503.755,-48.3311)">
                                            <path d="M554.43,686.98L558.219,688.366" style="fill:none;stroke:rgb(237,109,11);stroke-width:2.26px;"/>
                                        </g>
                                        <g transform="matrix(0.240604,0.429734,-0.429734,0.240604,247.537,-358.619)">
                                            <path d="M554.43,686.98L558.219,688.366" style="fill:none;stroke:rgb(237,109,11);stroke-width:2.26px;"/>
                                        </g>
                                        <g transform="matrix(-0.18012,0.458387,-0.458387,-0.18012,492.438,-42.1563)">
                                            <path d="M470.223,701.982C470.223,701.982 470.64,688.238 472.157,684.991C473.019,683.144 478.776,682.499 478.776,682.499C478.776,682.499 477.048,694.122 477.13,698.713C477.177,701.399 470.223,701.982 470.223,701.982Z" style="fill:none;stroke:rgb(237,109,11);stroke-width:2.26px;"/>
                                        </g>
                                        <g transform="matrix(-0.18012,0.458387,-0.458387,-0.18012,491.473,-35.9288)">
                                            <path d="M470.197,703.575C470.197,703.575 470.64,688.238 472.157,684.991C473.019,683.144 478.776,682.499 478.776,682.499C478.776,682.499 477.022,695.714 477.103,700.305C477.151,702.991 470.197,703.575 470.197,703.575Z" style="fill:none;stroke:rgb(237,109,11);stroke-width:2.26px;"/>
                                        </g>
                                        <g transform="matrix(-0.18012,0.458387,-0.458387,-0.18012,490.549,-29.6047)">
                                            <path d="M471.189,703.209C471.189,703.209 470.848,687.485 472.364,684.238C473.227,682.391 478.984,681.746 478.984,681.746C478.984,681.746 478.014,695.349 478.096,699.94C478.143,702.626 471.189,703.209 471.189,703.209Z" style="fill:none;stroke:rgb(237,109,11);stroke-width:2.26px;"/>
                                        </g>
                                        <g transform="matrix(-0.18012,0.458387,-0.458387,-0.18012,489.269,-22.7801)">
                                            <path d="M470.458,703.26C470.458,703.26 470.797,686.593 472.313,683.346C473.176,681.499 479.846,681.141 479.846,681.141C479.846,681.141 478.249,695.687 477.365,699.991C476.824,702.622 470.458,703.26 470.458,703.26Z" style="fill:none;stroke:rgb(237,109,11);stroke-width:2.26px;"/>
                                        </g>
                                        <g transform="matrix(-0.18012,0.458387,-0.458387,-0.18012,487.853,-15.6087)">
                                            <path d="M470.197,704.124C470.197,704.124 471.108,686.758 472.624,683.511C473.486,681.664 480.645,681.097 480.645,681.097C480.645,681.097 478.294,695.796 478.376,700.387C478.424,703.073 470.197,704.124 470.197,704.124Z" style="fill:none;stroke:rgb(237,109,11);stroke-width:2.26px;"/>
                                        </g>
                                        <g transform="matrix(-0.18012,0.458387,-0.458387,-0.18012,492.438,-42.1563)">
                                            <path d="M477.662,692.931L482.57,700.684L483.405,688.623L478.776,682.499L477.662,692.931Z" style="fill:none;stroke:rgb(237,109,11);stroke-width:2.26px;"/>
                                        </g>
                                        <g transform="matrix(-0.18012,0.458387,-0.458387,-0.18012,491.61,-35.7035)">
                                            <path d="M477.376,693.424L483.405,700.684L483.405,688.623L478.776,682.499L477.376,693.424Z" style="fill:none;stroke:rgb(237,109,11);stroke-width:2.26px;"/>
                                        </g>
                                        <g transform="matrix(-0.18012,0.458387,-0.458387,-0.18012,490.856,-29.0076)">
                                            <path d="M477.48,692.931L483.405,701.635L484.054,689.012L478.083,682.769L477.48,692.931Z" style="fill:none;stroke:rgb(237,109,11);stroke-width:2.26px;"/>
                                        </g>
                                        <g transform="matrix(-0.18012,0.458387,-0.458387,-0.18012,489.215,-21.6453)">
                                            <path d="M476.519,693.242L482.544,702.216L483.405,688.623L477.662,681.882L476.519,693.242Z" style="fill:none;stroke:rgb(237,109,11);stroke-width:2.26px;"/>
                                        </g>
                                    </g>
                                </g>
                                <g transform="matrix(0.528454,0,0,0.528454,128.144,113.744)">
                                    <g transform="matrix(0,0.771593,-0.771593,0,123.228,-7.75922)">
                                        <ellipse cx="90.757" cy="49.452" rx="14.349" ry="14.351" style="fill:none;stroke:rgb(237,109,11);stroke-width:3.23px;stroke-linecap:butt;stroke-linejoin:miter;stroke-miterlimit:4;"/>
                                    </g>
                                    <g transform="matrix(0,0.769988,-0.769988,0,198.133,-58.5837)">
                                        <ellipse cx="156.954" cy="49.452" rx="14.349" ry="14.352" style="fill:none;stroke:rgb(237,109,11);stroke-width:3.24px;stroke-linecap:butt;stroke-linejoin:miter;stroke-miterlimit:4;"/>
                                    </g>
                                </g>
                            </g>
                        </g>
                    </g>
                    <g transform="matrix(6.12323e-17,-1,1,6.12323e-17,-201.471,545.631)">
                        <g transform="matrix(0.0306651,-0.19244,-0.19244,-0.0306651,184.088,384.849)">
                            <g transform="matrix(0.240604,0.429734,-0.429734,0.240604,247.537,-358.619)">
                                <path d="M554.43,686.98L558.219,688.366" style="fill:none;stroke:rgb(237,109,11);stroke-width:2.26px;"/>
                            </g>
                            <g transform="matrix(0.240604,0.429734,-0.429734,0.240604,247.537,-358.619)">
                                <path d="M554.43,686.98L558.219,688.366" style="fill:none;stroke:rgb(237,109,11);stroke-width:2.26px;"/>
                            </g>
                            <g transform="matrix(0.240604,0.429734,-0.429734,0.240604,250.938,-320.867)">
                                <path d="M554.43,686.98L558.219,688.366" style="fill:none;stroke:rgb(237,109,11);stroke-width:2.26px;"/>
                            </g>
                            <g transform="matrix(-0.18012,0.458387,-0.458387,-0.18012,492.438,-42.1563)">
                                <path d="M470.223,701.982C470.223,701.982 470.64,688.238 472.157,684.991C473.019,683.144 478.776,682.499 478.776,682.499C478.776,682.499 477.048,694.122 477.13,698.713C477.177,701.399 470.223,701.982 470.223,701.982Z" style="fill:none;stroke:rgb(237,109,11);stroke-width:2.26px;"/>
                            </g>
                            <g transform="matrix(-0.18012,0.458387,-0.458387,-0.18012,491.473,-35.9288)">
                                <path d="M470.197,703.575C470.197,703.575 470.64,688.238 472.157,684.991C473.019,683.144 478.776,682.499 478.776,682.499C478.776,682.499 477.022,695.714 477.103,700.305C477.151,702.991 470.197,703.575 470.197,703.575Z" style="fill:none;stroke:rgb(237,109,11);stroke-width:2.26px;"/>
                            </g>
                            <g transform="matrix(-0.18012,0.458387,-0.458387,-0.18012,490.549,-29.6047)">
                                <path d="M471.189,703.209C471.189,703.209 470.848,687.485 472.364,684.238C473.227,682.391 478.984,681.746 478.984,681.746C478.984,681.746 478.014,695.349 478.096,699.94C478.143,702.626 471.189,703.209 471.189,703.209Z" style="fill:none;stroke:rgb(237,109,11);stroke-width:2.26px;"/>
                            </g>
                            <g transform="matrix(-0.18012,0.458387,-0.458387,-0.18012,489.269,-22.7801)">
                                <path d="M470.458,703.26C470.458,703.26 470.797,686.593 472.313,683.346C473.176,681.499 479.846,681.141 479.846,681.141C479.846,681.141 478.249,695.687 477.365,699.991C476.824,702.622 470.458,703.26 470.458,703.26Z" style="fill:none;stroke:rgb(237,109,11);stroke-width:2.26px;"/>
                            </g>
                            <g transform="matrix(-0.18012,0.458387,-0.458387,-0.18012,487.853,-15.6087)">
                                <path d="M470.197,704.124C470.197,704.124 471.108,686.758 472.624,683.511C473.486,681.664 480.645,681.097 480.645,681.097C480.645,681.097 478.294,695.796 478.376,700.387C478.424,703.073 470.197,704.124 470.197,704.124Z" style="fill:none;stroke:rgb(237,109,11);stroke-width:2.26px;"/>
                            </g>
                            <g transform="matrix(-0.18012,0.458387,-0.458387,-0.18012,492.438,-42.1563)">
                                <path d="M477.662,692.931L482.57,700.684L483.405,688.623L478.776,682.499L477.662,692.931Z" style="fill:none;stroke:rgb(237,109,11);stroke-width:2.26px;"/>
                            </g>
                            <g transform="matrix(-0.18012,0.458387,-0.458387,-0.18012,491.61,-35.7035)">
                                <path d="M477.376,693.424L483.405,700.684L483.405,688.623L478.776,682.499L477.376,693.424Z" style="fill:none;stroke:rgb(237,109,11);stroke-width:2.26px;"/>
                            </g>
                            <g transform="matrix(-0.18012,0.458387,-0.458387,-0.18012,490.856,-29.0076)">
                                <path d="M477.48,692.931L483.405,701.635L484.054,689.012L478.083,682.769L477.48,692.931Z" style="fill:none;stroke:rgb(237,109,11);stroke-width:2.26px;"/>
                            </g>
                            <g transform="matrix(-0.18012,0.458387,-0.458387,-0.18012,489.215,-21.6453)">
                                <path d="M476.519,693.242L482.544,702.216L483.405,688.623L477.662,681.882L476.519,693.242Z" style="fill:none;stroke:rgb(237,109,11);stroke-width:2.26px;"/>
                            </g>
                        </g>
                        <g transform="matrix(-0.19244,-0.0306651,-0.0306651,0.19244,193.335,351.445)">
                            <g>
                                <g transform="matrix(-0.18012,0.458387,-0.458387,-0.18012,503.594,-48.0758)">
                                    <path d="M554.43,686.98L558.219,688.366" style="fill:none;stroke:rgb(237,109,11);stroke-width:2.26px;"/>
                                </g>
                                <g transform="matrix(0.240604,0.429734,-0.429734,0.240604,247.537,-358.619)">
                                    <path d="M554.43,686.98L558.219,688.366" style="fill:none;stroke:rgb(237,109,11);stroke-width:2.26px;"/>
                                </g>
                                <g transform="matrix(-0.18012,0.458387,-0.458387,-0.18012,492.438,-42.1563)">
                                    <path d="M470.223,701.982C470.223,701.982 470.64,688.238 472.157,684.991C473.019,683.144 478.776,682.499 478.776,682.499C478.776,682.499 477.048,694.122 477.13,698.713C477.177,701.399 470.223,701.982 470.223,701.982Z" style="fill:none;stroke:rgb(237,109,11);stroke-width:2.26px;"/>
                                </g>
                                <g transform="matrix(-0.18012,0.458387,-0.458387,-0.18012,491.473,-35.9288)">
                                    <path d="M470.197,703.575C470.197,703.575 470.64,688.238 472.157,684.991C473.019,683.144 478.776,682.499 478.776,682.499C478.776,682.499 477.022,695.714 477.103,700.305C477.151,702.991 470.197,703.575 470.197,703.575Z" style="fill:none;stroke:rgb(237,109,11);stroke-width:2.26px;"/>
                                </g>
                                <g transform="matrix(-0.18012,0.458387,-0.458387,-0.18012,490.549,-29.6047)">
                                    <path d="M471.189,703.209C471.189,703.209 470.848,687.485 472.364,684.238C473.227,682.391 478.984,681.746 478.984,681.746C478.984,681.746 478.014,695.349 478.096,699.94C478.143,702.626 471.189,703.209 471.189,703.209Z" style="fill:none;stroke:rgb(237,109,11);stroke-width:2.26px;"/>
                                </g>
                                <g transform="matrix(-0.18012,0.458387,-0.458387,-0.18012,489.269,-22.7801)">
                                    <path d="M470.458,703.26C470.458,703.26 470.797,686.593 472.313,683.346C473.176,681.499 479.846,681.141 479.846,681.141C479.846,681.141 478.249,695.687 477.365,699.991C476.824,702.622 470.458,703.26 470.458,703.26Z" style="fill:none;stroke:rgb(237,109,11);stroke-width:2.26px;"/>
                                </g>
                                <g transform="matrix(-0.18012,0.458387,-0.458387,-0.18012,487.853,-15.6087)">
                                    <path d="M470.197,704.124C470.197,704.124 471.108,686.758 472.624,683.511C473.486,681.664 480.645,681.097 480.645,681.097C480.645,681.097 478.294,695.796 478.376,700.387C478.424,703.073 470.197,704.124 470.197,704.124Z" style="fill:none;stroke:rgb(237,109,11);stroke-width:2.26px;"/>
                                </g>
                                <g transform="matrix(-0.18012,0.458387,-0.458387,-0.18012,492.438,-42.1563)">
                                    <path d="M477.662,692.931L482.57,700.684L483.405,688.623L478.776,682.499L477.662,692.931Z" style="fill:none;stroke:rgb(237,109,11);stroke-width:2.26px;"/>
                                </g>
                                <g transform="matrix(-0.18012,0.458387,-0.458387,-0.18012,491.61,-35.7035)">
                                    <path d="M477.376,693.424L483.405,700.684L483.405,688.623L478.776,682.499L477.376,693.424Z" style="fill:none;stroke:rgb(237,109,11);stroke-width:2.26px;"/>
                                </g>
                                <g transform="matrix(-0.18012,0.458387,-0.458387,-0.18012,490.856,-29.0076)">
                                    <path d="M477.48,692.931L483.405,701.635L484.054,689.012L478.083,682.769L477.48,692.931Z" style="fill:none;stroke:rgb(237,109,11);stroke-width:2.26px;"/>
                                </g>
                                <g transform="matrix(-0.18012,0.458387,-0.458387,-0.18012,489.215,-21.6453)">
                                    <path d="M476.519,693.242L482.544,702.216L483.405,688.623L477.662,681.882L476.519,693.242Z" style="fill:none;stroke:rgb(237,109,11);stroke-width:2.26px;"/>
                                </g>
                            </g>
                        </g>
                    </g>
                    <g transform="matrix(6.12323e-17,-1,-1,-6.12323e-17,535.207,545.631)">
                        <g transform="matrix(0.0306651,-0.19244,-0.19244,-0.0306651,184.088,384.849)">
                            <g transform="matrix(0.240604,0.429734,-0.429734,0.240604,247.537,-358.619)">
                                <path d="M554.43,686.98L558.219,688.366" style="fill:none;stroke:rgb(237,109,11);stroke-width:2.26px;"/>
                            </g>
                            <g transform="matrix(0.240604,0.429734,-0.429734,0.240604,247.537,-358.619)">
                                <path d="M554.43,686.98L558.219,688.366" style="fill:none;stroke:rgb(237,109,11);stroke-width:2.26px;"/>
                            </g>
                            <g transform="matrix(0.240604,0.429734,-0.429734,0.240604,250.938,-320.867)">
                                <path d="M554.43,686.98L558.219,688.366" style="fill:none;stroke:rgb(237,109,11);stroke-width:2.26px;"/>
                            </g>
                            <g transform="matrix(-0.18012,0.458387,-0.458387,-0.18012,492.438,-42.1563)">
                                <path d="M470.223,701.982C470.223,701.982 470.64,688.238 472.157,684.991C473.019,683.144 478.776,682.499 478.776,682.499C478.776,682.499 477.048,694.122 477.13,698.713C477.177,701.399 470.223,701.982 470.223,701.982Z" style="fill:none;stroke:rgb(237,109,11);stroke-width:2.26px;"/>
                            </g>
                            <g transform="matrix(-0.18012,0.458387,-0.458387,-0.18012,491.473,-35.9288)">
                                <path d="M470.197,703.575C470.197,703.575 470.64,688.238 472.157,684.991C473.019,683.144 478.776,682.499 478.776,682.499C478.776,682.499 477.022,695.714 477.103,700.305C477.151,702.991 470.197,703.575 470.197,703.575Z" style="fill:none;stroke:rgb(237,109,11);stroke-width:2.26px;"/>
                            </g>
                            <g transform="matrix(-0.18012,0.458387,-0.458387,-0.18012,490.549,-29.6047)">
                                <path d="M471.189,703.209C471.189,703.209 470.848,687.485 472.364,684.238C473.227,682.391 478.984,681.746 478.984,681.746C478.984,681.746 478.014,695.349 478.096,699.94C478.143,702.626 471.189,703.209 471.189,703.209Z" style="fill:none;stroke:rgb(237,109,11);stroke-width:2.26px;"/>
                            </g>
                            <g transform="matrix(-0.18012,0.458387,-0.458387,-0.18012,489.269,-22.7801)">
                                <path d="M470.458,703.26C470.458,703.26 470.797,686.593 472.313,683.346C473.176,681.499 479.846,681.141 479.846,681.141C479.846,681.141 478.249,695.687 477.365,699.991C476.824,702.622 470.458,703.26 470.458,703.26Z" style="fill:none;stroke:rgb(237,109,11);stroke-width:2.26px;"/>
                            </g>
                            <g transform="matrix(-0.18012,0.458387,-0.458387,-0.18012,487.853,-15.6087)">
                                <path d="M470.197,704.124C470.197,704.124 471.108,686.758 472.624,683.511C473.486,681.664 480.645,681.097 480.645,681.097C480.645,681.097 478.294,695.796 478.376,700.387C478.424,703.073 470.197,704.124 470.197,704.124Z" style="fill:none;stroke:rgb(237,109,11);stroke-width:2.26px;"/>
                            </g>
                            <g transform="matrix(-0.18012,0.458387,-0.458387,-0.18012,492.438,-42.1563)">
                                <path d="M477.662,692.931L482.57,700.684L483.405,688.623L478.776,682.499L477.662,692.931Z" style="fill:none;stroke:rgb(237,109,11);stroke-width:2.26px;"/>
                            </g>
                            <g transform="matrix(-0.18012,0.458387,-0.458387,-0.18012,491.61,-35.7035)">
                                <path d="M477.376,693.424L483.405,700.684L483.405,688.623L478.776,682.499L477.376,693.424Z" style="fill:none;stroke:rgb(237,109,11);stroke-width:2.26px;"/>
                            </g>
                            <g transform="matrix(-0.18012,0.458387,-0.458387,-0.18012,490.856,-29.0076)">
                                <path d="M477.48,692.931L483.405,701.635L484.054,689.012L478.083,682.769L477.48,692.931Z" style="fill:none;stroke:rgb(237,109,11);stroke-width:2.26px;"/>
                            </g>
                            <g transform="matrix(-0.18012,0.458387,-0.458387,-0.18012,489.215,-21.6453)">
                                <path d="M476.519,693.242L482.544,702.216L483.405,688.623L477.662,681.882L476.519,693.242Z" style="fill:none;stroke:rgb(237,109,11);stroke-width:2.26px;"/>
                            </g>
                        </g>
                        <g transform="matrix(0.0306651,-0.19244,-0.19244,-0.0306651,189.009,399.022)">
                            <g transform="matrix(0.240604,0.429734,-0.429734,0.240604,250.938,-320.867)">
                                <path d="M554.43,686.98L558.219,688.366" style="fill:none;stroke:rgb(237,109,11);stroke-width:2.26px;"/>
                            </g>
                            <g transform="matrix(-0.18012,0.458387,-0.458387,-0.18012,492.438,-42.1563)">
                                <path d="M470.223,701.982C470.223,701.982 470.64,688.238 472.157,684.991C473.019,683.144 478.776,682.499 478.776,682.499C478.776,682.499 477.048,694.122 477.13,698.713C477.177,701.399 470.223,701.982 470.223,701.982Z" style="fill:none;stroke:rgb(237,109,11);stroke-width:2.26px;"/>
                            </g>
                            <g transform="matrix(-0.18012,0.458387,-0.458387,-0.18012,491.473,-35.9288)">
                                <path d="M470.197,703.575C470.197,703.575 470.64,688.238 472.157,684.991C473.019,683.144 478.776,682.499 478.776,682.499C478.776,682.499 477.022,695.714 477.103,700.305C477.151,702.991 470.197,703.575 470.197,703.575Z" style="fill:none;stroke:rgb(237,109,11);stroke-width:2.26px;"/>
                            </g>
                            <g transform="matrix(-0.18012,0.458387,-0.458387,-0.18012,490.549,-29.6047)">
                                <path d="M471.189,703.209C471.189,703.209 470.848,687.485 472.364,684.238C473.227,682.391 478.984,681.746 478.984,681.746C478.984,681.746 478.014,695.349 478.096,699.94C478.143,702.626 471.189,703.209 471.189,703.209Z" style="fill:none;stroke:rgb(237,109,11);stroke-width:2.26px;"/>
                            </g>
                            <g transform="matrix(-0.18012,0.458387,-0.458387,-0.18012,489.269,-22.7801)">
                                <path d="M470.458,703.26C470.458,703.26 470.797,686.593 472.313,683.346C473.176,681.499 479.846,681.141 479.846,681.141C479.846,681.141 478.249,695.687 477.365,699.991C476.824,702.622 470.458,703.26 470.458,703.26Z" style="fill:none;stroke:rgb(237,109,11);stroke-width:2.26px;"/>
                            </g>
                            <g transform="matrix(-0.18012,0.458387,-0.458387,-0.18012,487.853,-15.6087)">
                                <path d="M470.197,704.124C470.197,704.124 471.108,686.758 472.624,683.511C473.486,681.664 480.645,681.097 480.645,681.097C480.645,681.097 478.294,695.796 478.376,700.387C478.424,703.073 470.197,704.124 470.197,704.124Z" style="fill:none;stroke:rgb(237,109,11);stroke-width:2.26px;"/>
                            </g>
                            <g transform="matrix(-0.18012,0.458387,-0.458387,-0.18012,492.438,-42.1563)">
                                <path d="M477.662,692.931L482.57,700.684L483.405,688.623L478.776,682.499L477.662,692.931Z" style="fill:none;stroke:rgb(237,109,11);stroke-width:2.26px;"/>
                            </g>
                            <g transform="matrix(-0.18012,0.458387,-0.458387,-0.18012,491.61,-35.7035)">
                                <path d="M477.376,693.424L483.405,700.684L483.405,688.623L478.776,682.499L477.376,693.424Z" style="fill:none;stroke:rgb(237,109,11);stroke-width:2.26px;"/>
                            </g>
                            <g transform="matrix(-0.18012,0.458387,-0.458387,-0.18012,490.856,-29.0076)">
                                <path d="M477.48,692.931L483.405,701.635L484.054,689.012L478.083,682.769L477.48,692.931Z" style="fill:none;stroke:rgb(237,109,11);stroke-width:2.26px;"/>
                            </g>
                            <g transform="matrix(-0.18012,0.458387,-0.458387,-0.18012,489.215,-21.6453)">
                                <path d="M476.519,693.242L482.544,702.216L483.405,688.623L477.662,681.882L476.519,693.242Z" style="fill:none;stroke:rgb(237,109,11);stroke-width:2.26px;"/>
                            </g>
                        </g>
                        <g transform="matrix(0.0306651,0.19244,-0.19244,0.0306651,188.988,337.658)">
                            <g transform="matrix(0.240604,0.429734,-0.429734,0.240604,250.938,-320.867)">
                                <path d="M554.43,686.98L558.219,688.366" style="fill:none;stroke:rgb(237,109,11);stroke-width:2.26px;"/>
                            </g>
                            <g transform="matrix(-0.18012,0.458387,-0.458387,-0.18012,492.438,-42.1563)">
                                <path d="M470.223,701.982C470.223,701.982 470.64,688.238 472.157,684.991C473.019,683.144 478.776,682.499 478.776,682.499C478.776,682.499 477.048,694.122 477.13,698.713C477.177,701.399 470.223,701.982 470.223,701.982Z" style="fill:none;stroke:rgb(237,109,11);stroke-width:2.26px;"/>
                            </g>
                            <g transform="matrix(-0.18012,0.458387,-0.458387,-0.18012,491.473,-35.9288)">
                                <path d="M470.197,703.575C470.197,703.575 470.64,688.238 472.157,684.991C473.019,683.144 478.776,682.499 478.776,682.499C478.776,682.499 477.022,695.714 477.103,700.305C477.151,702.991 470.197,703.575 470.197,703.575Z" style="fill:none;stroke:rgb(237,109,11);stroke-width:2.26px;"/>
                            </g>
                            <g transform="matrix(-0.18012,0.458387,-0.458387,-0.18012,490.549,-29.6047)">
                                <path d="M471.189,703.209C471.189,703.209 470.848,687.485 472.364,684.238C473.227,682.391 478.984,681.746 478.984,681.746C478.984,681.746 478.014,695.349 478.096,699.94C478.143,702.626 471.189,703.209 471.189,703.209Z" style="fill:none;stroke:rgb(237,109,11);stroke-width:2.26px;"/>
                            </g>
                            <g transform="matrix(-0.18012,0.458387,-0.458387,-0.18012,489.269,-22.7801)">
                                <path d="M470.458,703.26C470.458,703.26 470.797,686.593 472.313,683.346C473.176,681.499 479.846,681.141 479.846,681.141C479.846,681.141 478.249,695.687 477.365,699.991C476.824,702.622 470.458,703.26 470.458,703.26Z" style="fill:none;stroke:rgb(237,109,11);stroke-width:2.26px;"/>
                            </g>
                            <g transform="matrix(-0.18012,0.458387,-0.458387,-0.18012,487.853,-15.6087)">
                                <path d="M470.197,704.124C470.197,704.124 471.108,686.758 472.624,683.511C473.486,681.664 480.645,681.097 480.645,681.097C480.645,681.097 478.294,695.796 478.376,700.387C478.424,703.073 470.197,704.124 470.197,704.124Z" style="fill:none;stroke:rgb(237,109,11);stroke-width:2.26px;"/>
                            </g>
                            <g transform="matrix(-0.18012,0.458387,-0.458387,-0.18012,492.438,-42.1563)">
                                <path d="M477.662,692.931L482.57,700.684L483.405,688.623L478.776,682.499L477.662,692.931Z" style="fill:none;stroke:rgb(237,109,11);stroke-width:2.26px;"/>
                            </g>
                            <g transform="matrix(-0.18012,0.458387,-0.458387,-0.18012,491.61,-35.7035)">
                                <path d="M477.376,693.424L483.405,700.684L483.405,688.623L478.776,682.499L477.376,693.424Z" style="fill:none;stroke:rgb(237,109,11);stroke-width:2.26px;"/>
                            </g>
                            <g transform="matrix(-0.18012,0.458387,-0.458387,-0.18012,490.856,-29.0076)">
                                <path d="M477.48,692.931L483.405,701.635L484.054,689.012L478.083,682.769L477.48,692.931Z" style="fill:none;stroke:rgb(237,109,11);stroke-width:2.26px;"/>
                            </g>
                            <g transform="matrix(-0.18012,0.458387,-0.458387,-0.18012,489.215,-21.6453)">
                                <path d="M476.519,693.242L482.544,702.216L483.405,688.623L477.662,681.882L476.519,693.242Z" style="fill:none;stroke:rgb(237,109,11);stroke-width:2.26px;"/>
                            </g>
                        </g>
                        <g transform="matrix(-0.19244,-0.0306651,-0.0306651,0.19244,193.335,351.445)">
                            <g>
                                <g transform="matrix(-0.18012,0.458387,-0.458387,-0.18012,503.594,-48.0758)">
                                    <path d="M554.43,686.98L558.219,688.366" style="fill:none;stroke:rgb(237,109,11);stroke-width:2.26px;"/>
                                </g>
                                <g transform="matrix(0.240604,0.429734,-0.429734,0.240604,247.537,-358.619)">
                                    <path d="M554.43,686.98L558.219,688.366" style="fill:none;stroke:rgb(237,109,11);stroke-width:2.26px;"/>
                                </g>
                                <g transform="matrix(-0.18012,0.458387,-0.458387,-0.18012,492.438,-42.1563)">
                                    <path d="M470.223,701.982C470.223,701.982 470.64,688.238 472.157,684.991C473.019,683.144 478.776,682.499 478.776,682.499C478.776,682.499 477.048,694.122 477.13,698.713C477.177,701.399 470.223,701.982 470.223,701.982Z" style="fill:none;stroke:rgb(237,109,11);stroke-width:2.26px;"/>
                                </g>
                                <g transform="matrix(-0.18012,0.458387,-0.458387,-0.18012,491.473,-35.9288)">
                                    <path d="M470.197,703.575C470.197,703.575 470.64,688.238 472.157,684.991C473.019,683.144 478.776,682.499 478.776,682.499C478.776,682.499 477.022,695.714 477.103,700.305C477.151,702.991 470.197,703.575 470.197,703.575Z" style="fill:none;stroke:rgb(237,109,11);stroke-width:2.26px;"/>
                                </g>
                                <g transform="matrix(-0.18012,0.458387,-0.458387,-0.18012,490.549,-29.6047)">
                                    <path d="M471.189,703.209C471.189,703.209 470.848,687.485 472.364,684.238C473.227,682.391 478.984,681.746 478.984,681.746C478.984,681.746 478.014,695.349 478.096,699.94C478.143,702.626 471.189,703.209 471.189,703.209Z" style="fill:none;stroke:rgb(237,109,11);stroke-width:2.26px;"/>
                                </g>
                                <g transform="matrix(-0.18012,0.458387,-0.458387,-0.18012,489.269,-22.7801)">
                                    <path d="M470.458,703.26C470.458,703.26 470.797,686.593 472.313,683.346C473.176,681.499 479.846,681.141 479.846,681.141C479.846,681.141 478.249,695.687 477.365,699.991C476.824,702.622 470.458,703.26 470.458,703.26Z" style="fill:none;stroke:rgb(237,109,11);stroke-width:2.26px;"/>
                                </g>
                                <g transform="matrix(-0.18012,0.458387,-0.458387,-0.18012,487.853,-15.6087)">
                                    <path d="M470.197,704.124C470.197,704.124 471.108,686.758 472.624,683.511C473.486,681.664 480.645,681.097 480.645,681.097C480.645,681.097 478.294,695.796 478.376,700.387C478.424,703.073 470.197,704.124 470.197,704.124Z" style="fill:none;stroke:rgb(237,109,11);stroke-width:2.26px;"/>
                                </g>
                                <g transform="matrix(-0.18012,0.458387,-0.458387,-0.18012,492.438,-42.1563)">
                                    <path d="M477.662,692.931L482.57,700.684L483.405,688.623L478.776,682.499L477.662,692.931Z" style="fill:none;stroke:rgb(237,109,11);stroke-width:2.26px;"/>
                                </g>
                                <g transform="matrix(-0.18012,0.458387,-0.458387,-0.18012,491.61,-35.7035)">
                                    <path d="M477.376,693.424L483.405,700.684L483.405,688.623L478.776,682.499L477.376,693.424Z" style="fill:none;stroke:rgb(237,109,11);stroke-width:2.26px;"/>
                                </g>
                                <g transform="matrix(-0.18012,0.458387,-0.458387,-0.18012,490.856,-29.0076)">
                                    <path d="M477.48,692.931L483.405,701.635L484.054,689.012L478.083,682.769L477.48,692.931Z" style="fill:none;stroke:rgb(237,109,11);stroke-width:2.26px;"/>
                                </g>
                                <g transform="matrix(-0.18012,0.458387,-0.458387,-0.18012,489.215,-21.6453)">
                                    <path d="M476.519,693.242L482.544,702.216L483.405,688.623L477.662,681.882L476.519,693.242Z" style="fill:none;stroke:rgb(237,109,11);stroke-width:2.26px;"/>
                                </g>
                            </g>
                        </g>
                    </g>
                </g>
            </g>
        </g>
    </g>
</svg>
