<?xml version="1.0" encoding="UTF-8" standalone="no"?>
<!DOCTYPE svg PUBLIC "-//W3C//DTD SVG 1.1//EN" "http://www.w3.org/Graphics/SVG/1.1/DTD/svg11.dtd">
<svg width="100%" height="100%" viewBox="0 0 2000 675" version="1.1" xmlns="http://www.w3.org/2000/svg" xmlns:xlink="http://www.w3.org/1999/xlink" xml:space="preserve" xmlns:serif="http://www.serif.com/" style="fill-rule:evenodd;clip-rule:evenodd;stroke-linecap:round;stroke-linejoin:round;stroke-miterlimit:1.5;">
    <g>
        <g transform="matrix(8.58318,0,0,8.58318,-2888.11,610.452)">
            <path d="M421.55,-46.271L429.966,-46.271" style="fill:none;stroke:rgb(59,59,59);stroke-width:1.56px;"/>
        </g>
        <g transform="matrix(8.58318,0,0,8.58318,-2442.88,609.833)">
            <path d="M421.55,-46.271L429.966,-46.271" style="fill:none;stroke:rgb(59,59,59);stroke-width:1.56px;"/>
        </g>
        <g transform="matrix(8.58318,0,0,8.58318,-2888.11,647.918)">
            <path d="M421.55,-46.271L429.966,-46.271" style="fill:none;stroke:rgb(59,59,59);stroke-width:1.56px;"/>
        </g>
        <g transform="matrix(8.58318,0,0,8.58318,-2442.88,647.287)">
            <path d="M421.55,-46.271L429.966,-46.271" style="fill:none;stroke:rgb(59,59,59);stroke-width:1.56px;"/>
        </g>
        <g transform="matrix(8.58318,0,0,8.58318,-2888.11,685.384)">
            <path d="M421.55,-46.271L429.966,-46.271" style="fill:none;stroke:rgb(59,59,59);stroke-width:1.56px;"/>
        </g>
        <g transform="matrix(8.58318,0,0,8.58318,-2442.88,684.74)">
            <path d="M421.55,-46.271L429.966,-46.271" style="fill:none;stroke:rgb(59,59,59);stroke-width:1.56px;"/>
        </g>
        <g transform="matrix(8.58318,0,0,8.58318,-2888.11,722.85)">
            <path d="M421.55,-46.271L429.966,-46.271" style="fill:none;stroke:rgb(59,59,59);stroke-width:1.56px;"/>
        </g>
        <g transform="matrix(8.58318,0,0,8.58318,-2442.88,722.193)">
            <path d="M421.55,-46.271L429.966,-46.271" style="fill:none;stroke:rgb(59,59,59);stroke-width:1.56px;"/>
        </g>
        <g transform="matrix(8.58318,0,0,8.58318,-2888.11,760.316)">
            <path d="M421.55,-46.271L429.966,-46.271" style="fill:none;stroke:rgb(59,59,59);stroke-width:1.56px;"/>
        </g>
        <g transform="matrix(8.58318,0,0,8.58318,-2442.88,759.647)">
            <path d="M421.55,-46.271L429.966,-46.271" style="fill:none;stroke:rgb(59,59,59);stroke-width:1.56px;"/>
        </g>
        <g transform="matrix(8.58318,0,0,8.58318,-2888.11,797.781)">
            <path d="M421.55,-46.271L429.966,-46.271" style="fill:none;stroke:rgb(59,59,59);stroke-width:1.56px;"/>
        </g>
        <g transform="matrix(8.58318,0,0,8.58318,-2442.88,797.1)">
            <path d="M421.55,-46.271L429.966,-46.271" style="fill:none;stroke:rgb(59,59,59);stroke-width:1.56px;"/>
        </g>
        <g transform="matrix(8.58318,0,0,8.58318,-2888.11,835.247)">
            <path d="M421.55,-46.271L429.966,-46.271" style="fill:none;stroke:rgb(59,59,59);stroke-width:1.56px;"/>
        </g>
        <g transform="matrix(8.58318,0,0,8.58318,-2442.88,834.553)">
            <path d="M421.55,-46.271L429.966,-46.271" style="fill:none;stroke:rgb(59,59,59);stroke-width:1.56px;"/>
        </g>
        <g transform="matrix(8.58318,0,0,8.58318,-2888.11,872.713)">
            <path d="M421.55,-46.271L429.966,-46.271" style="fill:none;stroke:rgb(59,59,59);stroke-width:1.56px;"/>
        </g>
        <g transform="matrix(8.58318,0,0,8.58318,-2442.88,872.006)">
            <path d="M421.55,-46.271L429.966,-46.271" style="fill:none;stroke:rgb(59,59,59);stroke-width:1.56px;"/>
        </g>
        <g transform="matrix(8.58318,0,0,8.58318,-2888.11,910.179)">
            <path d="M421.55,-46.271L429.966,-46.271" style="fill:none;stroke:rgb(59,59,59);stroke-width:1.56px;"/>
        </g>
        <g transform="matrix(8.58318,0,0,8.58318,-2442.88,909.46)">
            <path d="M421.55,-46.271L429.966,-46.271" style="fill:none;stroke:rgb(59,59,59);stroke-width:1.56px;"/>
        </g>
        <g transform="matrix(8.58318,0,0,8.58318,-2888.11,947.645)">
            <path d="M421.55,-46.271L429.966,-46.271" style="fill:none;stroke:rgb(59,59,59);stroke-width:1.56px;"/>
        </g>
        <g transform="matrix(8.58318,0,0,8.58318,-2442.88,946.913)">
            <path d="M421.55,-46.271L429.966,-46.271" style="fill:none;stroke:rgb(59,59,59);stroke-width:1.56px;"/>
        </g>
        <g transform="matrix(8.58318,0,0,8.58318,-976.639,-1029.12)">
            <g transform="matrix(1,0,0,1,62.1662,43.356)">
                <circle cx="77.317" cy="130.657" r="17.516" style="fill:none;stroke:rgb(237,109,11);stroke-width:1.56px;"/>
            </g>
            <g transform="matrix(1,0,0,1,9.48478,5.20107)">
                <path d="M129.998,151.296L129.998,136.514" style="fill:none;stroke:rgb(237,109,11);stroke-width:1.56px;"/>
            </g>
            <g transform="matrix(1,0,0,1,22.542,5.20107)">
                <path d="M129.998,156.576L129.998,136.514" style="fill:none;stroke:rgb(237,109,11);stroke-width:1.56px;"/>
            </g>
            <g transform="matrix(1,0,0,1,9.48478,-9.58081)">
                <path d="M129.998,151.296L129.998,136.514" style="fill:none;stroke:rgb(33,89,255);stroke-width:1.56px;"/>
            </g>
            <g transform="matrix(1,0,0,1,9.48478,-9.58081)">
                <path d="M129.998,151.296L129.998,136.514" style="fill:none;stroke:rgb(237,109,11);stroke-width:1.56px;"/>
            </g>
            <g transform="matrix(6.12323e-17,1,-1,6.12323e-17,275.998,-3.06493)">
                <path d="M129.998,151.296L129.998,136.514" style="fill:none;stroke:rgb(237,109,11);stroke-width:1.56px;"/>
            </g>
            <g transform="matrix(6.12323e-17,1,-1,6.12323e-17,290.779,11.7169)">
                <path d="M129.998,151.296L129.998,136.514" style="fill:none;stroke:rgb(237,109,11);stroke-width:1.56px;"/>
            </g>
            <g transform="matrix(1,0,0,1,15.9782,-9.58081)">
                <path d="M129.998,151.296L129.998,141.116" style="fill:none;stroke:rgb(237,109,11);stroke-width:1.56px;"/>
            </g>
            <g transform="matrix(6.12323e-17,1,-1,6.12323e-17,287.492,1.53701)">
                <path d="M129.998,141.515L129.998,123.438" style="fill:none;stroke:rgb(237,109,11);stroke-width:1.56px;"/>
            </g>
            <g transform="matrix(6.12323e-17,1,-1,6.12323e-17,293.77,72.7091)">
                <path d="M117.722,147.69L121.177,145.592" style="fill:none;stroke:rgb(237,109,11);stroke-width:1.56px;"/>
            </g>
            <g transform="matrix(1,0,0,1,-3.11477,-9.58081)">
                <path d="M129.998,171.358L129.998,136.514" style="fill:none;stroke:rgb(237,109,11);stroke-width:1.56px;"/>
            </g>
            <g transform="matrix(0.249772,0,0,0.249772,120.172,123.863)">
                <circle cx="77.317" cy="130.657" r="17.516" style="fill:white;stroke:rgb(237,109,11);stroke-width:6.26px;"/>
            </g>
            <g transform="matrix(0.249772,0,0,0.249772,120.172,109.081)">
                <circle cx="77.317" cy="130.657" r="17.516" style="fill:white;stroke:rgb(237,109,11);stroke-width:6.26px;"/>
            </g>
            <g transform="matrix(0.249772,0,0,0.249772,120.172,94.299)">
                <circle cx="77.317" cy="130.657" r="17.516" style="fill:white;stroke:rgb(237,109,11);stroke-width:6.26px;"/>
            </g>
            <g transform="matrix(0.249772,0,0,0.249772,107.572,94.299)">
                <circle cx="77.317" cy="130.657" r="17.516" style="fill:white;stroke:rgb(237,109,11);stroke-width:6.26px;"/>
            </g>
            <g transform="matrix(0.249772,0,0,0.249772,133.229,109.081)">
                <circle cx="77.317" cy="130.657" r="17.516" style="fill:white;stroke:rgb(237,109,11);stroke-width:6.26px;"/>
            </g>
            <g transform="matrix(0.249772,0,0,0.249772,120.172,158.895)">
                <circle cx="77.317" cy="130.657" r="17.516" style="fill:white;stroke:rgb(237,109,11);stroke-width:6.26px;"/>
            </g>
            <g transform="matrix(0.249772,0,0,0.249772,137.688,141.379)">
                <circle cx="77.317" cy="130.657" r="17.516" style="fill:white;stroke:rgb(237,109,11);stroke-width:6.26px;"/>
            </g>
            <g transform="matrix(0.249772,0,0,0.249772,102.656,141.379)">
                <circle cx="77.317" cy="130.657" r="17.516" style="fill:white;stroke:rgb(237,109,11);stroke-width:6.26px;"/>
            </g>
            <g transform="matrix(0.249772,0,0,0.249772,107.572,129.143)">
                <circle cx="77.317" cy="130.657" r="17.516" style="fill:white;stroke:rgb(237,109,11);stroke-width:6.26px;"/>
            </g>
            <g transform="matrix(0.249772,0,0,0.249772,107.572,154.52)">
                <circle cx="77.317" cy="130.657" r="17.516" style="fill:white;stroke:rgb(237,109,11);stroke-width:6.26px;"/>
            </g>
            <g transform="matrix(0.249772,0,0,0.249772,133.313,129.143)">
                <circle cx="77.317" cy="130.657" r="17.516" style="fill:white;stroke:rgb(237,109,11);stroke-width:6.26px;"/>
            </g>
            <g transform="matrix(0.249772,0,0,0.249772,133.313,154.52)">
                <circle cx="77.317" cy="130.657" r="17.516" style="fill:white;stroke:rgb(237,109,11);stroke-width:6.26px;"/>
            </g>
        </g>
        <g transform="matrix(5.25568e-16,8.58318,-8.58318,5.25568e-16,1660.66,-758.848)">
            <path d="M129.998,150.265L129.998,143.451" style="fill:rgb(124,183,111);stroke:rgb(237,109,11);stroke-width:1.56px;"/>
        </g>
        <g transform="matrix(-8.58318,1.05114e-15,-1.05114e-15,-8.58318,1545.2,1588.21)">
            <path d="M129.998,151.296L129.998,143.451" style="fill:rgb(124,183,111);stroke:rgb(237,109,11);stroke-width:1.56px;"/>
        </g>
        <g transform="matrix(-8.58318,1.05114e-15,-1.05114e-15,-8.58318,1612.54,1750.71)">
            <path d="M129.998,150.63L129.998,143.451" style="fill:rgb(124,183,111);stroke:rgb(237,109,11);stroke-width:1.56px;"/>
        </g>
        <g transform="matrix(8.58318,0,0,8.58318,-619.062,-1067.55)">
            <path d="M129.998,151.296L129.998,141.742" style="fill:none;stroke:rgb(237,109,11);stroke-width:1.56px;"/>
        </g>
        <g transform="matrix(0.207592,8.58067,-8.58067,0.207592,1549.57,-786.914)">
            <path d="M122.367,133.506L117.803,128.715" style="fill:none;stroke:rgb(237,109,11);stroke-width:1.56px;"/>
        </g>
        <g transform="matrix(-0.207592,-8.58067,8.58067,-0.207592,-499.866,1639.3)">
            <path d="M123.558,134.756L122.572,133.721" style="fill:none;stroke:rgb(237,109,11);stroke-width:1.56px;"/>
        </g>
        <g transform="matrix(-0.207592,-8.58067,8.58067,-0.207592,-517.223,1601.01)">
            <path d="M123.558,134.756L121.586,132.685" style="fill:none;stroke:rgb(237,109,11);stroke-width:1.56px;"/>
        </g>
        <g transform="matrix(-0.207592,-8.58067,8.58067,-0.207592,-536.926,1570.74)">
            <path d="M124.364,135.602L120.943,132.011" style="fill:none;stroke:rgb(237,109,11);stroke-width:1.56px;"/>
        </g>
        <g transform="matrix(5.25568e-16,-8.58318,-8.58318,-5.25568e-16,1737.39,1666.3)">
            <path d="M129.998,128.804L129.998,116.096" style="fill:none;stroke:rgb(237,109,11);stroke-width:1.56px;"/>
        </g>
        <g transform="matrix(9.88614e-16,-8.58318,-16.1453,-5.25568e-16,2615.32,1628.63)">
            <path d="M129.998,123.993L129.998,116.096" style="fill:none;stroke:rgb(237,109,11);stroke-width:1.04px;"/>
        </g>
        <g transform="matrix(9.88614e-16,-8.58318,-16.1453,-5.25568e-16,2487.83,1675.6)">
            <path d="M129.998,121.625L129.998,115.559" style="fill:none;stroke:rgb(237,109,11);stroke-width:1.04px;"/>
        </g>
        <g transform="matrix(9.88614e-16,-8.58318,-16.1453,-5.25568e-16,2468.13,1648.48)">
            <path d="M129.998,121.625L129.998,116.096" style="fill:none;stroke:rgb(237,109,11);stroke-width:1.04px;"/>
        </g>
        <g transform="matrix(9.88614e-16,-8.58318,-16.1453,-5.25568e-16,2468.13,1621.37)">
            <path d="M129.998,121.625L129.998,117.522" style="fill:none;stroke:rgb(237,109,11);stroke-width:1.04px;"/>
        </g>
        <g transform="matrix(7.79484e-16,-8.58318,-12.7299,-5.25568e-16,2218.81,1591.26)">
            <path d="M129.998,127.102L129.998,116.096" style="fill:none;stroke:rgb(237,109,11);stroke-width:1.24px;"/>
        </g>
        <g transform="matrix(-0.207592,8.58067,8.58067,0.207592,-489.077,-875.307)">
            <path d="M123.558,134.756L122.572,133.721" style="fill:none;stroke:rgb(237,109,11);stroke-width:1.56px;"/>
        </g>
        <g transform="matrix(-0.207592,8.58067,8.58067,0.207592,-506.433,-837.017)">
            <path d="M123.558,134.756L121.586,132.685" style="fill:none;stroke:rgb(237,109,11);stroke-width:1.56px;"/>
        </g>
        <g transform="matrix(-0.207592,8.58067,8.58067,0.207592,-526.137,-806.743)">
            <path d="M124.364,135.602L120.943,132.011" style="fill:none;stroke:rgb(237,109,11);stroke-width:1.56px;"/>
        </g>
        <g transform="matrix(5.25568e-16,8.58318,-8.58318,5.25568e-16,1737.39,-902.298)">
            <path d="M129.998,127.51L129.998,116.096" style="fill:none;stroke:rgb(237,109,11);stroke-width:1.56px;"/>
        </g>
        <g transform="matrix(9.88614e-16,8.58318,-16.1453,5.25568e-16,2615.32,-864.631)">
            <path d="M129.998,123.324L129.998,116.096" style="fill:none;stroke:rgb(237,109,11);stroke-width:1.04px;"/>
        </g>
        <g transform="matrix(9.88614e-16,8.58318,-16.1453,5.25568e-16,2498.62,-911.599)">
            <path d="M129.998,121.856L129.998,115.559" style="fill:none;stroke:rgb(237,109,11);stroke-width:1.04px;"/>
        </g>
        <g transform="matrix(9.88614e-16,8.58318,-16.1453,5.25568e-16,2478.92,-884.484)">
            <path d="M129.998,121.625L129.998,116.096" style="fill:none;stroke:rgb(237,109,11);stroke-width:1.04px;"/>
        </g>
        <g transform="matrix(9.88614e-16,8.58318,-16.1453,5.25568e-16,2478.92,-857.368)">
            <path d="M129.998,121.625L129.998,117.522" style="fill:none;stroke:rgb(237,109,11);stroke-width:1.04px;"/>
        </g>
        <g transform="matrix(7.79484e-16,8.58318,-12.7299,5.25568e-16,2218.81,-827.264)">
            <path d="M129.998,126.254L129.998,116.096" style="fill:none;stroke:rgb(237,109,11);stroke-width:1.24px;"/>
        </g>
        <g transform="matrix(1.66322,8.42049,8.42049,-1.66322,-959.614,-185.143)">
            <path d="M115.429,150.191L125.567,142.587" style="fill:none;stroke:rgb(237,109,11);stroke-width:1.56px;"/>
        </g>
        <g transform="matrix(-5.25568e-16,-8.58318,8.58318,-5.25568e-16,240.325,1328.92)">
            <path d="M130.1,127.689L129.998,116.096" style="fill:none;stroke:rgb(237,109,11);stroke-width:1.56px;"/>
        </g>
        <g transform="matrix(-5.25568e-16,-8.58318,8.58318,-5.25568e-16,240.325,1628.11)">
            <path d="M130.059,124.917L129.998,116.096" style="fill:none;stroke:rgb(237,109,11);stroke-width:1.56px;"/>
        </g>
        <g transform="matrix(-5.25568e-16,-8.58318,8.58318,-5.25568e-16,240.325,1665.56)">
            <path d="M130.05,123.653L129.998,116.096" style="fill:none;stroke:rgb(237,109,11);stroke-width:1.56px;"/>
        </g>
        <g transform="matrix(-5.25568e-16,-8.58318,8.58318,-5.25568e-16,240.325,1590.6)">
            <path d="M129.998,126.363L129.998,116.096" style="fill:none;stroke:rgb(237,109,11);stroke-width:1.56px;"/>
        </g>
        <g transform="matrix(-5.25568e-16,-8.58318,8.58318,-5.25568e-16,240.325,1553.23)">
            <path d="M130.1,127.624L129.998,116.096" style="fill:none;stroke:rgb(237,109,11);stroke-width:1.56px;"/>
        </g>
        <g transform="matrix(-5.25568e-16,-8.58318,8.58318,-5.25568e-16,493.874,1645.41)">
            <path d="M130.1,123.251L129.998,109.173" style="fill:none;stroke:rgb(237,109,11);stroke-width:1.56px;"/>
        </g>
        <g transform="matrix(-5.25568e-16,-8.58318,8.58318,-5.25568e-16,493.874,1678.38)">
            <path d="M130.1,126.802L129.988,107.004" style="fill:none;stroke:rgb(237,109,11);stroke-width:1.56px;"/>
        </g>
        <g transform="matrix(-5.25568e-16,-8.58318,8.58318,-5.25568e-16,483.283,1713.8)">
            <path d="M130.077,125.07L129.985,106.636" style="fill:none;stroke:rgb(237,109,11);stroke-width:1.56px;"/>
        </g>
        <g transform="matrix(-5.25568e-16,-8.58318,8.58318,-5.25568e-16,470.19,1751.53)">
            <path d="M130.114,132.414L129.985,107.1" style="fill:none;stroke:rgb(237,109,11);stroke-width:1.56px;"/>
        </g>
        <g transform="matrix(-5.25568e-16,-8.58318,8.58318,-5.25568e-16,240.325,1365.83)">
            <path d="M130.108,132.327L129.998,116.096" style="fill:none;stroke:rgb(237,109,11);stroke-width:1.56px;"/>
        </g>
        <g transform="matrix(-5.25568e-16,-8.58318,8.58318,-5.25568e-16,240.325,1403.66)">
            <path d="M130.093,137.156L129.998,116.096" style="fill:none;stroke:rgb(237,109,11);stroke-width:1.56px;"/>
        </g>
        <g transform="matrix(-8.58318,0,0,-8.58318,3022.64,1482.23)">
            <path d="M129.998,130.921L129.998,116.096" style="fill:none;stroke:rgb(237,109,11);stroke-width:1.56px;"/>
        </g>
        <g transform="matrix(-8.58318,0,0,-8.58318,2976.68,1335.6)">
            <path d="M129.998,130.921L129.998,120.025" style="fill:none;stroke:rgb(237,109,11);stroke-width:1.56px;"/>
        </g>
        <g transform="matrix(-8.58318,0,0,-8.58318,2759.95,1448.81)">
            <path d="M129.998,130.921L129.998,106.544" style="fill:none;stroke:rgb(237,109,11);stroke-width:1.56px;"/>
        </g>
        <g transform="matrix(-5.25568e-16,-8.58318,8.58318,-5.25568e-16,240.325,1515.86)">
            <path d="M129.998,132.508L129.998,116.096" style="fill:none;stroke:rgb(237,109,11);stroke-width:1.56px;"/>
        </g>
        <g transform="matrix(-5.25568e-16,-8.58318,8.58318,-5.25568e-16,240.325,1440.84)">
            <path d="M129.998,135.556L129.998,116.096" style="fill:none;stroke:rgb(237,109,11);stroke-width:1.56px;"/>
        </g>
        <g transform="matrix(-5.25568e-16,-8.58318,8.58318,-5.25568e-16,240.325,1478.33)">
            <path d="M129.998,133.72L129.998,116.096" style="fill:none;stroke:rgb(237,109,11);stroke-width:1.56px;"/>
        </g>
        <g transform="matrix(-5.25568e-16,-8.58318,8.58318,-5.25568e-16,488.364,1223.03)">
            <path d="M129.998,139.999L129.998,120.124" style="fill:none;stroke:rgb(237,109,11);stroke-width:1.56px;"/>
        </g>
        <g transform="matrix(-5.25568e-16,-8.58318,8.58318,-5.25568e-16,488.364,1270.86)">
            <path d="M129.998,138.687L129.998,123.622" style="fill:none;stroke:rgb(237,109,11);stroke-width:1.56px;"/>
        </g>
        <g transform="matrix(-5.25568e-16,-8.58318,8.58318,-5.25568e-16,490.22,1177.66)">
            <path d="M129.998,143.591L129.998,116.096" style="fill:none;stroke:rgb(237,109,11);stroke-width:1.56px;"/>
        </g>
        <g transform="matrix(2.51062,8.20779,8.20779,-2.51062,55.3007,-667.135)">
            <path d="M129.998,134.63L141.629,112.75" style="fill:none;stroke:rgb(237,109,11);stroke-width:1.56px;"/>
        </g>
        <g transform="matrix(2.6464,8.65167,8.65167,-2.6464,9.41468,-660.073)">
            <path d="M129.998,134.63L140.31,115.23" style="fill:none;stroke:rgb(237,109,11);stroke-width:1.48px;"/>
        </g>
        <g transform="matrix(2.90758,9.50554,9.50554,-2.90758,-107.969,-689.514)">
            <path d="M130.019,134.591L138.835,118.005" style="fill:none;stroke:rgb(237,109,11);stroke-width:1.35px;"/>
        </g>
        <g transform="matrix(-8.20779,2.51062,2.51062,8.20779,2262.52,-976.654)">
            <path d="M137.519,120.481L140.028,115.761" style="fill:none;stroke:rgb(237,109,11);stroke-width:1.56px;"/>
        </g>
        <g transform="matrix(-8.20779,2.51062,2.51062,8.20779,2246.77,-939.162)">
            <path d="M137.519,120.481L140.028,115.761" style="fill:none;stroke:rgb(237,109,11);stroke-width:1.56px;"/>
        </g>
        <g transform="matrix(-8.20779,2.51062,2.51062,8.20779,2239.05,-901.637)">
            <path d="M137.519,120.481L140.028,115.761" style="fill:none;stroke:rgb(237,109,11);stroke-width:1.56px;"/>
        </g>
        <g transform="matrix(-8.05615,2.46424,2.46424,8.05615,2175.04,-844.857)">
            <path d="M132.467,129.987L139.663,116.448" style="fill:rgb(124,183,111);stroke:rgb(237,109,11);stroke-width:1.59px;"/>
        </g>
        <g transform="matrix(-8.05615,2.46424,2.46424,8.05615,2389.95,-753.549)">
            <path d="M136.829,121.78L139.663,116.448" style="fill:none;stroke:rgb(237,109,11);stroke-width:1.59px;"/>
        </g>
        <g transform="matrix(-8.3493,2.55391,2.55391,8.3493,2197.4,-850.026)">
            <path d="M133.308,128.405L139.856,116.086" style="fill:none;stroke:rgb(237,109,11);stroke-width:1.54px;"/>
        </g>
        <g transform="matrix(-8.20779,2.51062,2.51062,8.20779,2172.7,-788.13)">
            <path d="M133.49,128.062L140.115,115.598" style="fill:none;stroke:rgb(237,109,11);stroke-width:1.56px;"/>
        </g>
        <g transform="matrix(-8.24993,2.52351,2.52351,8.24993,2164.76,-759.454)">
            <path d="M133.359,128.309L139.981,115.85" style="fill:none;stroke:rgb(237,109,11);stroke-width:1.56px;"/>
        </g>
        <g transform="matrix(8.20779,2.51062,-2.51062,8.20779,834.279,-753.21)">
            <path d="M133.359,128.309L137.499,120.52" style="fill:none;stroke:rgb(237,109,11);stroke-width:1.56px;"/>
        </g>
        <g transform="matrix(8.20779,2.51062,-2.51062,8.20779,906.291,-1232.89)">
            <path d="M133.359,128.309L137.499,120.52" style="fill:none;stroke:rgb(237,109,11);stroke-width:1.56px;"/>
        </g>
        <g transform="matrix(6.06923,6.06923,-6.06923,6.06923,1671.97,-1358.75)">
            <path d="M129.998,134.63L129.998,119.424" style="fill:none;stroke:rgb(237,109,11);stroke-width:1.56px;"/>
        </g>
        <g transform="matrix(6.06923,-6.06923,-6.06923,-6.06923,1528.65,2011.39)">
            <path d="M129.998,134.63L129.998,115.038" style="fill:none;stroke:rgb(237,109,11);stroke-width:1.56px;"/>
        </g>
        <g transform="matrix(6.06923,-6.06923,-6.06923,-6.06923,1814.72,1743.7)">
            <path d="M129.998,134.63L129.998,122.393" style="fill:none;stroke:rgb(237,109,11);stroke-width:1.56px;"/>
        </g>
        <g transform="matrix(1.94949,-8.35886,-8.35886,-1.94949,1206.34,1454.91)">
            <path d="M133.244,123.764L129.791,115.163" style="fill:none;stroke:rgb(237,109,11);stroke-width:1.56px;"/>
        </g>
        <g transform="matrix(3.03699,8.02793,-8.02793,3.03699,1104.08,-1009.02)">
            <path d="M134.597,126.572L129.509,115.292" style="fill:none;stroke:rgb(237,109,11);stroke-width:1.56px;"/>
        </g>
        <g transform="matrix(-8.58318,-1.05114e-15,-1.05114e-15,8.58318,1612.54,-989.084)">
            <path d="M129.998,150.63L129.998,143.451" style="fill:rgb(124,183,111);stroke:rgb(237,109,11);stroke-width:1.56px;"/>
        </g>
        <g transform="matrix(3.03699,-8.02793,-8.02793,-3.03699,1104.08,1770.65)">
            <path d="M134.597,126.572L129.509,115.292" style="fill:none;stroke:rgb(237,109,11);stroke-width:1.56px;"/>
        </g>
        <g transform="matrix(5.51716,-6.5751,-6.5751,-5.51716,739.827,1969.32)">
            <path d="M129.998,134.63L137.932,133.485" style="fill:none;stroke:rgb(237,109,11);stroke-width:1.56px;"/>
        </g>
        <g transform="matrix(5.25568e-16,8.58318,-8.58318,5.25568e-16,1737.39,-752.753)">
            <path d="M129.998,131.721L129.998,116.096" style="fill:none;stroke:rgb(237,109,11);stroke-width:1.56px;"/>
        </g>
        <g transform="matrix(5.25568e-16,8.58318,-8.58318,5.25568e-16,1737.39,-715.331)">
            <path d="M129.998,133.785L129.998,116.096" style="fill:none;stroke:rgb(237,109,11);stroke-width:1.56px;"/>
        </g>
        <g transform="matrix(7.79484e-16,8.58318,-12.7299,5.25568e-16,2218.81,-789.857)">
            <path d="M129.998,125.348L129.998,116.096" style="fill:none;stroke:rgb(237,109,11);stroke-width:1.24px;"/>
        </g>
        <g transform="matrix(5.51716,6.5751,-6.5751,5.51716,728.592,-1216.72)">
            <path d="M129.998,134.63L139.776,133.324" style="fill:none;stroke:rgb(237,109,11);stroke-width:1.56px;"/>
        </g>
        <g transform="matrix(-3.57052e-14,-8.58318,-12.7299,5.35859e-14,2218.81,1553.7)">
            <path d="M129.998,125.264L129.998,116.096" style="fill:none;stroke:rgb(237,109,11);stroke-width:1.24px;"/>
        </g>
        <g transform="matrix(2.14384,0,0,2.14384,406.086,100.706)">
            <circle cx="77.317" cy="130.657" r="17.516" style="fill:white;stroke:rgb(237,109,11);stroke-width:6.26px;"/>
        </g>
        <g transform="matrix(2.14384,0,0,2.14384,330.983,-55.1948)">
            <circle cx="77.317" cy="130.657" r="17.516" style="fill:white;stroke:rgb(237,109,11);stroke-width:6.26px;"/>
        </g>
        <g transform="matrix(5.25568e-16,-8.58318,-8.58318,-5.25568e-16,1410.62,1751.83)">
            <path d="M129.998,129.954L129.998,111.932" style="fill:none;stroke:rgb(237,109,11);stroke-width:1.56px;"/>
        </g>
        <g transform="matrix(2.14384,0,0,-2.14384,330.983,816.822)">
            <circle cx="77.317" cy="130.657" r="17.516" style="fill:white;stroke:rgb(237,109,11);stroke-width:6.26px;"/>
        </g>
        <g transform="matrix(0.475545,-0.285184,0.285184,0.475545,1122.53,349.839)">
            <path d="M376.112,359.979C415.208,315.427 522.554,238.96 655.576,235.6C803.119,231.872 922.2,304.979 965.589,351.101C990.502,377.582 987.142,426.333 970.247,448.523C952.848,471.373 925.87,504.165 866.134,485.677C819.33,471.192 738.304,404.224 674.942,404.524C611.58,404.823 538.242,463.622 485.96,487.474C449.469,504.121 401.484,485.495 383.176,464.246C364.868,442.997 339.409,401.805 376.112,359.979Z" style="fill:white;stroke:rgb(237,109,11);stroke-width:24.21px;"/>
        </g>
        <g transform="matrix(-1.27628,0.306072,-0.306072,-1.27628,2738.21,978.542)">
            <path d="M506.523,511.605C492.898,499.334 515.47,472.805 524.978,466.52C528.766,464.016 532.558,461.428 536.721,459.616C540.505,457.969 544.509,456.492 548.627,456.226C566.546,455.071 579.342,470.102 592.099,479.705C596.96,483.364 602.04,486.728 607.108,490.095C610.696,492.479 614.046,494.417 618.388,495.099C634.862,497.686 646.373,478.558 656.946,470.403C667.91,461.945 677.202,455.174 690.792,456.204C711.938,457.806 737.14,486.767 753.108,493.382C767.593,499.383 775.726,472.363 791.575,477.103C793.538,477.69 795.221,478.318 796.665,478.994C806.239,483.476 807.583,492.883 805.628,500.568C802.74,511.92 799.133,520.014 789.842,525.166C780.027,530.607 767.533,533.161 758.115,534.45C754.271,534.977 750.357,535.531 746.497,535.143C730.595,533.547 703.894,495.631 686.385,497.572C654.683,501.086 658.473,527.556 627.141,534.271C606.306,538.737 586.782,526.997 570.795,514.006C564.84,509.168 560.106,501.904 552.477,499.292C547.82,497.697 543.691,501.886 540.434,504.27C530.687,511.407 517.903,521.854 506.523,511.605Z" style="fill:white;stroke:rgb(237,109,11);stroke-width:10.24px;"/>
        </g>
        <g transform="matrix(3.92394,2.51942,1.94307,-3.02629,-1669.71,-161.562)">
            <g>
                <path d="M716.977,420.884C716.977,415.218 713.429,410.618 709.059,410.618L676.906,410.618C672.536,410.618 668.989,415.218 668.989,420.884C668.989,426.55 672.536,431.15 676.906,431.15L709.059,431.15C713.429,431.15 716.977,426.55 716.977,420.884Z" style="fill:white;stroke:rgb(237,109,11);stroke-width:3.7px;stroke-linejoin:miter;stroke-miterlimit:3;"/>
            </g>
        </g>
        <g transform="matrix(2.41614,0,0,2.41614,69.3963,-99.8753)">
            <circle cx="701.03" cy="79.04" r="28.334" style="fill:white;stroke:rgb(237,109,11);stroke-width:5.56px;"/>
        </g>
        <g transform="matrix(8.58318,0,0,8.58318,-2888.11,610.763)">
            <path d="M473.422,-45.963C473.422,-47.372 472.278,-48.516 470.87,-48.516L432.518,-48.516C431.11,-48.516 429.966,-47.372 429.966,-45.963L429.966,-7.35C429.966,-5.941 431.11,-4.797 432.518,-4.797L470.87,-4.797C472.278,-4.797 473.422,-5.941 473.422,-7.35L473.422,-45.963Z" style="fill:none;stroke:rgb(59,59,59);stroke-width:1.56px;"/>
        </g>
        <g transform="matrix(12.8225,0,0,12.8225,-1150.8,-4315.26)">
            <g transform="matrix(0.164619,0,0,0.164619,134.989,338.366)">
                <g>
                    <g>
                        <g transform="matrix(-0.186279,-1.169,1.169,-0.186279,86.9753,259.663)">
                            <g transform="matrix(-0.18012,0.458387,-0.458387,-0.18012,503.642,-48.1822)">
                                <path d="M554.43,686.98L558.219,688.366" style="fill:none;stroke:rgb(237,109,11);stroke-width:3.39px;"/>
                            </g>
                            <g transform="matrix(0.240604,0.429734,-0.429734,0.240604,247.537,-358.619)">
                                <path d="M554.43,686.98L558.219,688.366" style="fill:none;stroke:rgb(237,109,11);stroke-width:3.39px;"/>
                            </g>
                            <g transform="matrix(-0.18012,0.458387,-0.458387,-0.18012,492.438,-42.1563)">
                                <path d="M470.223,701.982C470.223,701.982 470.64,688.238 472.157,684.991C473.019,683.144 478.776,682.499 478.776,682.499C478.776,682.499 477.048,694.122 477.13,698.713C477.177,701.399 470.223,701.982 470.223,701.982Z" style="fill:none;stroke:rgb(237,109,11);stroke-width:3.39px;"/>
                            </g>
                            <g transform="matrix(-0.18012,0.458387,-0.458387,-0.18012,491.473,-35.9288)">
                                <path d="M470.197,703.575C470.197,703.575 470.64,688.238 472.157,684.991C473.019,683.144 478.776,682.499 478.776,682.499C478.776,682.499 477.022,695.714 477.103,700.305C477.151,702.991 470.197,703.575 470.197,703.575Z" style="fill:none;stroke:rgb(237,109,11);stroke-width:3.39px;"/>
                            </g>
                            <g transform="matrix(-0.18012,0.458387,-0.458387,-0.18012,490.549,-29.6047)">
                                <path d="M471.189,703.209C471.189,703.209 470.848,687.485 472.364,684.238C473.227,682.391 478.984,681.746 478.984,681.746C478.984,681.746 478.014,695.349 478.096,699.94C478.143,702.626 471.189,703.209 471.189,703.209Z" style="fill:none;stroke:rgb(237,109,11);stroke-width:3.39px;"/>
                            </g>
                            <g transform="matrix(-0.18012,0.458387,-0.458387,-0.18012,489.269,-22.7801)">
                                <path d="M470.458,703.26C470.458,703.26 470.797,686.593 472.313,683.346C473.176,681.499 479.846,681.141 479.846,681.141C479.846,681.141 478.249,695.687 477.365,699.991C476.824,702.622 470.458,703.26 470.458,703.26Z" style="fill:none;stroke:rgb(237,109,11);stroke-width:3.39px;"/>
                            </g>
                            <g transform="matrix(-0.18012,0.458387,-0.458387,-0.18012,487.853,-15.6087)">
                                <path d="M470.197,704.124C470.197,704.124 471.108,686.758 472.624,683.511C473.486,681.664 480.645,681.097 480.645,681.097C480.645,681.097 478.294,695.796 478.376,700.387C478.424,703.073 470.197,704.124 470.197,704.124Z" style="fill:none;stroke:rgb(237,109,11);stroke-width:3.39px;"/>
                            </g>
                            <g transform="matrix(-0.18012,0.458387,-0.458387,-0.18012,492.438,-42.1563)">
                                <path d="M477.662,692.931L482.57,700.684L483.405,688.623L478.776,682.499L477.662,692.931Z" style="fill:none;stroke:rgb(237,109,11);stroke-width:3.39px;"/>
                            </g>
                            <g transform="matrix(-0.18012,0.458387,-0.458387,-0.18012,491.61,-35.7035)">
                                <path d="M477.376,693.424L483.405,700.684L483.405,688.623L478.776,682.499L477.376,693.424Z" style="fill:none;stroke:rgb(237,109,11);stroke-width:3.39px;"/>
                            </g>
                            <g transform="matrix(-0.18012,0.458387,-0.458387,-0.18012,490.856,-29.0076)">
                                <path d="M477.48,692.931L483.405,701.635L484.054,689.012L478.083,682.769L477.48,692.931Z" style="fill:none;stroke:rgb(237,109,11);stroke-width:3.39px;"/>
                            </g>
                            <g transform="matrix(-0.18012,0.458387,-0.458387,-0.18012,489.215,-21.6453)">
                                <path d="M476.519,693.242L482.544,702.216L483.405,688.623L477.662,681.882L476.519,693.242Z" style="fill:none;stroke:rgb(237,109,11);stroke-width:3.39px;"/>
                            </g>
                        </g>
                        <g transform="matrix(0.186279,-1.169,-1.169,-0.186279,300.149,261.238)">
                            <g transform="matrix(-0.18012,0.458387,-0.458387,-0.18012,503.59,-48.0615)">
                                <path d="M554.43,686.98L558.219,688.366" style="fill:none;stroke:rgb(237,109,11);stroke-width:3.39px;"/>
                            </g>
                            <g transform="matrix(0.240604,0.429734,-0.429734,0.240604,247.537,-358.619)">
                                <path d="M554.43,686.98L558.219,688.366" style="fill:none;stroke:rgb(237,109,11);stroke-width:3.39px;"/>
                            </g>
                            <g transform="matrix(-0.18012,0.458387,-0.458387,-0.18012,492.438,-42.1563)">
                                <path d="M470.223,701.982C470.223,701.982 470.64,688.238 472.157,684.991C473.019,683.144 478.776,682.499 478.776,682.499C478.776,682.499 477.048,694.122 477.13,698.713C477.177,701.399 470.223,701.982 470.223,701.982Z" style="fill:none;stroke:rgb(237,109,11);stroke-width:3.39px;"/>
                            </g>
                            <g transform="matrix(-0.18012,0.458387,-0.458387,-0.18012,491.473,-35.9288)">
                                <path d="M470.197,703.575C470.197,703.575 470.64,688.238 472.157,684.991C473.019,683.144 478.776,682.499 478.776,682.499C478.776,682.499 477.022,695.714 477.103,700.305C477.151,702.991 470.197,703.575 470.197,703.575Z" style="fill:none;stroke:rgb(237,109,11);stroke-width:3.39px;"/>
                            </g>
                            <g transform="matrix(-0.18012,0.458387,-0.458387,-0.18012,490.549,-29.6047)">
                                <path d="M471.189,703.209C471.189,703.209 470.848,687.485 472.364,684.238C473.227,682.391 478.984,681.746 478.984,681.746C478.984,681.746 478.014,695.349 478.096,699.94C478.143,702.626 471.189,703.209 471.189,703.209Z" style="fill:none;stroke:rgb(237,109,11);stroke-width:3.39px;"/>
                            </g>
                            <g transform="matrix(-0.18012,0.458387,-0.458387,-0.18012,489.269,-22.7801)">
                                <path d="M470.458,703.26C470.458,703.26 470.797,686.593 472.313,683.346C473.176,681.499 479.846,681.141 479.846,681.141C479.846,681.141 478.249,695.687 477.365,699.991C476.824,702.622 470.458,703.26 470.458,703.26Z" style="fill:none;stroke:rgb(237,109,11);stroke-width:3.39px;"/>
                            </g>
                            <g transform="matrix(-0.18012,0.458387,-0.458387,-0.18012,487.853,-15.6087)">
                                <path d="M470.197,704.124C470.197,704.124 471.108,686.758 472.624,683.511C473.486,681.664 480.645,681.097 480.645,681.097C480.645,681.097 478.294,695.796 478.376,700.387C478.424,703.073 470.197,704.124 470.197,704.124Z" style="fill:none;stroke:rgb(237,109,11);stroke-width:3.39px;"/>
                            </g>
                            <g transform="matrix(-0.18012,0.458387,-0.458387,-0.18012,492.438,-42.1563)">
                                <path d="M477.662,692.931L482.57,700.684L483.405,688.623L478.776,682.499L477.662,692.931Z" style="fill:none;stroke:rgb(237,109,11);stroke-width:3.39px;"/>
                            </g>
                            <g transform="matrix(-0.18012,0.458387,-0.458387,-0.18012,491.61,-35.7035)">
                                <path d="M477.376,693.424L483.405,700.684L483.405,688.623L478.776,682.499L477.376,693.424Z" style="fill:none;stroke:rgb(237,109,11);stroke-width:3.39px;"/>
                            </g>
                            <g transform="matrix(-0.18012,0.458387,-0.458387,-0.18012,490.856,-29.0076)">
                                <path d="M477.48,692.931L483.405,701.635L484.054,689.012L478.083,682.769L477.48,692.931Z" style="fill:none;stroke:rgb(237,109,11);stroke-width:3.39px;"/>
                            </g>
                            <g transform="matrix(-0.18012,0.458387,-0.458387,-0.18012,489.215,-21.6453)">
                                <path d="M476.519,693.242L482.544,702.216L483.405,688.623L477.662,681.882L476.519,693.242Z" style="fill:none;stroke:rgb(237,109,11);stroke-width:3.39px;"/>
                            </g>
                        </g>
                        <g transform="matrix(-0.837035,-0.837035,-0.837035,0.837035,317.422,143.342)">
                            <g>
                                <g transform="matrix(-0.18012,0.458387,-0.458387,-0.18012,503.755,-48.3311)">
                                    <path d="M554.43,686.98L558.219,688.366" style="fill:none;stroke:rgb(237,109,11);stroke-width:3.39px;"/>
                                </g>
                                <g transform="matrix(0.240604,0.429734,-0.429734,0.240604,247.537,-358.619)">
                                    <path d="M554.43,686.98L558.219,688.366" style="fill:none;stroke:rgb(237,109,11);stroke-width:3.39px;"/>
                                </g>
                                <g transform="matrix(-0.18012,0.458387,-0.458387,-0.18012,492.438,-42.1563)">
                                    <path d="M470.223,701.982C470.223,701.982 470.64,688.238 472.157,684.991C473.019,683.144 478.776,682.499 478.776,682.499C478.776,682.499 477.048,694.122 477.13,698.713C477.177,701.399 470.223,701.982 470.223,701.982Z" style="fill:none;stroke:rgb(237,109,11);stroke-width:3.39px;"/>
                                </g>
                                <g transform="matrix(-0.18012,0.458387,-0.458387,-0.18012,491.473,-35.9288)">
                                    <path d="M470.197,703.575C470.197,703.575 470.64,688.238 472.157,684.991C473.019,683.144 478.776,682.499 478.776,682.499C478.776,682.499 477.022,695.714 477.103,700.305C477.151,702.991 470.197,703.575 470.197,703.575Z" style="fill:none;stroke:rgb(237,109,11);stroke-width:3.39px;"/>
                                </g>
                                <g transform="matrix(-0.18012,0.458387,-0.458387,-0.18012,490.549,-29.6047)">
                                    <path d="M471.189,703.209C471.189,703.209 470.848,687.485 472.364,684.238C473.227,682.391 478.984,681.746 478.984,681.746C478.984,681.746 478.014,695.349 478.096,699.94C478.143,702.626 471.189,703.209 471.189,703.209Z" style="fill:none;stroke:rgb(237,109,11);stroke-width:3.39px;"/>
                                </g>
                                <g transform="matrix(-0.18012,0.458387,-0.458387,-0.18012,489.269,-22.7801)">
                                    <path d="M470.458,703.26C470.458,703.26 470.797,686.593 472.313,683.346C473.176,681.499 479.846,681.141 479.846,681.141C479.846,681.141 478.249,695.687 477.365,699.991C476.824,702.622 470.458,703.26 470.458,703.26Z" style="fill:none;stroke:rgb(237,109,11);stroke-width:3.39px;"/>
                                </g>
                                <g transform="matrix(-0.18012,0.458387,-0.458387,-0.18012,487.853,-15.6087)">
                                    <path d="M470.197,704.124C470.197,704.124 471.108,686.758 472.624,683.511C473.486,681.664 480.645,681.097 480.645,681.097C480.645,681.097 478.294,695.796 478.376,700.387C478.424,703.073 470.197,704.124 470.197,704.124Z" style="fill:none;stroke:rgb(237,109,11);stroke-width:3.39px;"/>
                                </g>
                                <g transform="matrix(-0.18012,0.458387,-0.458387,-0.18012,492.438,-42.1563)">
                                    <path d="M477.662,692.931L482.57,700.684L483.405,688.623L478.776,682.499L477.662,692.931Z" style="fill:none;stroke:rgb(237,109,11);stroke-width:3.39px;"/>
                                </g>
                                <g transform="matrix(-0.18012,0.458387,-0.458387,-0.18012,491.61,-35.7035)">
                                    <path d="M477.376,693.424L483.405,700.684L483.405,688.623L478.776,682.499L477.376,693.424Z" style="fill:none;stroke:rgb(237,109,11);stroke-width:3.39px;"/>
                                </g>
                                <g transform="matrix(-0.18012,0.458387,-0.458387,-0.18012,490.856,-29.0076)">
                                    <path d="M477.48,692.931L483.405,701.635L484.054,689.012L478.083,682.769L477.48,692.931Z" style="fill:none;stroke:rgb(237,109,11);stroke-width:3.39px;"/>
                                </g>
                                <g transform="matrix(-0.18012,0.458387,-0.458387,-0.18012,489.215,-21.6453)">
                                    <path d="M476.519,693.242L482.544,702.216L483.405,688.623L477.662,681.882L476.519,693.242Z" style="fill:none;stroke:rgb(237,109,11);stroke-width:3.39px;"/>
                                </g>
                            </g>
                        </g>
                        <g transform="matrix(0.528454,0,0,0.528454,128.144,113.744)">
                            <g transform="matrix(0,0.771593,-0.771593,0,123.228,-7.75922)">
                                <ellipse cx="90.757" cy="49.452" rx="14.349" ry="14.351" style="fill:none;stroke:rgb(237,109,11);stroke-width:4.84px;stroke-linecap:butt;stroke-linejoin:miter;stroke-miterlimit:4;"/>
                            </g>
                            <g transform="matrix(0,0.769988,-0.769988,0,198.133,-58.5837)">
                                <ellipse cx="156.954" cy="49.452" rx="14.349" ry="14.352" style="fill:none;stroke:rgb(237,109,11);stroke-width:4.85px;stroke-linecap:butt;stroke-linejoin:miter;stroke-miterlimit:4;"/>
                            </g>
                        </g>
                    </g>
                </g>
            </g>
            <g transform="matrix(6.12323e-17,-1,1,6.12323e-17,-201.471,545.631)">
                <g transform="matrix(0.0306651,-0.19244,-0.19244,-0.0306651,184.088,384.849)">
                    <g transform="matrix(0.240604,0.429734,-0.429734,0.240604,247.537,-358.619)">
                        <path d="M554.43,686.98L558.219,688.366" style="fill:none;stroke:rgb(237,109,11);stroke-width:3.39px;"/>
                    </g>
                    <g transform="matrix(0.240604,0.429734,-0.429734,0.240604,247.537,-358.619)">
                        <path d="M554.43,686.98L558.219,688.366" style="fill:none;stroke:rgb(237,109,11);stroke-width:3.39px;"/>
                    </g>
                    <g transform="matrix(0.240604,0.429734,-0.429734,0.240604,250.938,-320.867)">
                        <path d="M554.43,686.98L558.219,688.366" style="fill:none;stroke:rgb(237,109,11);stroke-width:3.39px;"/>
                    </g>
                    <g transform="matrix(-0.18012,0.458387,-0.458387,-0.18012,492.438,-42.1563)">
                        <path d="M470.223,701.982C470.223,701.982 470.64,688.238 472.157,684.991C473.019,683.144 478.776,682.499 478.776,682.499C478.776,682.499 477.048,694.122 477.13,698.713C477.177,701.399 470.223,701.982 470.223,701.982Z" style="fill:none;stroke:rgb(237,109,11);stroke-width:3.39px;"/>
                    </g>
                    <g transform="matrix(-0.18012,0.458387,-0.458387,-0.18012,491.473,-35.9288)">
                        <path d="M470.197,703.575C470.197,703.575 470.64,688.238 472.157,684.991C473.019,683.144 478.776,682.499 478.776,682.499C478.776,682.499 477.022,695.714 477.103,700.305C477.151,702.991 470.197,703.575 470.197,703.575Z" style="fill:none;stroke:rgb(237,109,11);stroke-width:3.39px;"/>
                    </g>
                    <g transform="matrix(-0.18012,0.458387,-0.458387,-0.18012,490.549,-29.6047)">
                        <path d="M471.189,703.209C471.189,703.209 470.848,687.485 472.364,684.238C473.227,682.391 478.984,681.746 478.984,681.746C478.984,681.746 478.014,695.349 478.096,699.94C478.143,702.626 471.189,703.209 471.189,703.209Z" style="fill:none;stroke:rgb(237,109,11);stroke-width:3.39px;"/>
                    </g>
                    <g transform="matrix(-0.18012,0.458387,-0.458387,-0.18012,489.269,-22.7801)">
                        <path d="M470.458,703.26C470.458,703.26 470.797,686.593 472.313,683.346C473.176,681.499 479.846,681.141 479.846,681.141C479.846,681.141 478.249,695.687 477.365,699.991C476.824,702.622 470.458,703.26 470.458,703.26Z" style="fill:none;stroke:rgb(237,109,11);stroke-width:3.39px;"/>
                    </g>
                    <g transform="matrix(-0.18012,0.458387,-0.458387,-0.18012,487.853,-15.6087)">
                        <path d="M470.197,704.124C470.197,704.124 471.108,686.758 472.624,683.511C473.486,681.664 480.645,681.097 480.645,681.097C480.645,681.097 478.294,695.796 478.376,700.387C478.424,703.073 470.197,704.124 470.197,704.124Z" style="fill:none;stroke:rgb(237,109,11);stroke-width:3.39px;"/>
                    </g>
                    <g transform="matrix(-0.18012,0.458387,-0.458387,-0.18012,492.438,-42.1563)">
                        <path d="M477.662,692.931L482.57,700.684L483.405,688.623L478.776,682.499L477.662,692.931Z" style="fill:none;stroke:rgb(237,109,11);stroke-width:3.39px;"/>
                    </g>
                    <g transform="matrix(-0.18012,0.458387,-0.458387,-0.18012,491.61,-35.7035)">
                        <path d="M477.376,693.424L483.405,700.684L483.405,688.623L478.776,682.499L477.376,693.424Z" style="fill:none;stroke:rgb(237,109,11);stroke-width:3.39px;"/>
                    </g>
                    <g transform="matrix(-0.18012,0.458387,-0.458387,-0.18012,490.856,-29.0076)">
                        <path d="M477.48,692.931L483.405,701.635L484.054,689.012L478.083,682.769L477.48,692.931Z" style="fill:none;stroke:rgb(237,109,11);stroke-width:3.39px;"/>
                    </g>
                    <g transform="matrix(-0.18012,0.458387,-0.458387,-0.18012,489.215,-21.6453)">
                        <path d="M476.519,693.242L482.544,702.216L483.405,688.623L477.662,681.882L476.519,693.242Z" style="fill:none;stroke:rgb(237,109,11);stroke-width:3.39px;"/>
                    </g>
                </g>
                <g transform="matrix(-0.19244,-0.0306651,-0.0306651,0.19244,193.335,351.445)">
                    <g>
                        <g transform="matrix(-0.18012,0.458387,-0.458387,-0.18012,503.594,-48.0758)">
                            <path d="M554.43,686.98L558.219,688.366" style="fill:none;stroke:rgb(237,109,11);stroke-width:3.39px;"/>
                        </g>
                        <g transform="matrix(0.240604,0.429734,-0.429734,0.240604,247.537,-358.619)">
                            <path d="M554.43,686.98L558.219,688.366" style="fill:none;stroke:rgb(237,109,11);stroke-width:3.39px;"/>
                        </g>
                        <g transform="matrix(-0.18012,0.458387,-0.458387,-0.18012,492.438,-42.1563)">
                            <path d="M470.223,701.982C470.223,701.982 470.64,688.238 472.157,684.991C473.019,683.144 478.776,682.499 478.776,682.499C478.776,682.499 477.048,694.122 477.13,698.713C477.177,701.399 470.223,701.982 470.223,701.982Z" style="fill:none;stroke:rgb(237,109,11);stroke-width:3.39px;"/>
                        </g>
                        <g transform="matrix(-0.18012,0.458387,-0.458387,-0.18012,491.473,-35.9288)">
                            <path d="M470.197,703.575C470.197,703.575 470.64,688.238 472.157,684.991C473.019,683.144 478.776,682.499 478.776,682.499C478.776,682.499 477.022,695.714 477.103,700.305C477.151,702.991 470.197,703.575 470.197,703.575Z" style="fill:none;stroke:rgb(237,109,11);stroke-width:3.39px;"/>
                        </g>
                        <g transform="matrix(-0.18012,0.458387,-0.458387,-0.18012,490.549,-29.6047)">
                            <path d="M471.189,703.209C471.189,703.209 470.848,687.485 472.364,684.238C473.227,682.391 478.984,681.746 478.984,681.746C478.984,681.746 478.014,695.349 478.096,699.94C478.143,702.626 471.189,703.209 471.189,703.209Z" style="fill:none;stroke:rgb(237,109,11);stroke-width:3.39px;"/>
                        </g>
                        <g transform="matrix(-0.18012,0.458387,-0.458387,-0.18012,489.269,-22.7801)">
                            <path d="M470.458,703.26C470.458,703.26 470.797,686.593 472.313,683.346C473.176,681.499 479.846,681.141 479.846,681.141C479.846,681.141 478.249,695.687 477.365,699.991C476.824,702.622 470.458,703.26 470.458,703.26Z" style="fill:none;stroke:rgb(237,109,11);stroke-width:3.39px;"/>
                        </g>
                        <g transform="matrix(-0.18012,0.458387,-0.458387,-0.18012,487.853,-15.6087)">
                            <path d="M470.197,704.124C470.197,704.124 471.108,686.758 472.624,683.511C473.486,681.664 480.645,681.097 480.645,681.097C480.645,681.097 478.294,695.796 478.376,700.387C478.424,703.073 470.197,704.124 470.197,704.124Z" style="fill:none;stroke:rgb(237,109,11);stroke-width:3.39px;"/>
                        </g>
                        <g transform="matrix(-0.18012,0.458387,-0.458387,-0.18012,492.438,-42.1563)">
                            <path d="M477.662,692.931L482.57,700.684L483.405,688.623L478.776,682.499L477.662,692.931Z" style="fill:none;stroke:rgb(237,109,11);stroke-width:3.39px;"/>
                        </g>
                        <g transform="matrix(-0.18012,0.458387,-0.458387,-0.18012,491.61,-35.7035)">
                            <path d="M477.376,693.424L483.405,700.684L483.405,688.623L478.776,682.499L477.376,693.424Z" style="fill:none;stroke:rgb(237,109,11);stroke-width:3.39px;"/>
                        </g>
                        <g transform="matrix(-0.18012,0.458387,-0.458387,-0.18012,490.856,-29.0076)">
                            <path d="M477.48,692.931L483.405,701.635L484.054,689.012L478.083,682.769L477.48,692.931Z" style="fill:none;stroke:rgb(237,109,11);stroke-width:3.39px;"/>
                        </g>
                        <g transform="matrix(-0.18012,0.458387,-0.458387,-0.18012,489.215,-21.6453)">
                            <path d="M476.519,693.242L482.544,702.216L483.405,688.623L477.662,681.882L476.519,693.242Z" style="fill:none;stroke:rgb(237,109,11);stroke-width:3.39px;"/>
                        </g>
                    </g>
                </g>
            </g>
            <g transform="matrix(6.12323e-17,-1,-1,-6.12323e-17,535.207,545.631)">
                <g transform="matrix(0.0306651,-0.19244,-0.19244,-0.0306651,184.088,384.849)">
                    <g transform="matrix(0.240604,0.429734,-0.429734,0.240604,247.537,-358.619)">
                        <path d="M554.43,686.98L558.219,688.366" style="fill:none;stroke:rgb(237,109,11);stroke-width:3.39px;"/>
                    </g>
                    <g transform="matrix(0.240604,0.429734,-0.429734,0.240604,247.537,-358.619)">
                        <path d="M554.43,686.98L558.219,688.366" style="fill:none;stroke:rgb(237,109,11);stroke-width:3.39px;"/>
                    </g>
                    <g transform="matrix(0.240604,0.429734,-0.429734,0.240604,250.938,-320.867)">
                        <path d="M554.43,686.98L558.219,688.366" style="fill:none;stroke:rgb(237,109,11);stroke-width:3.39px;"/>
                    </g>
                    <g transform="matrix(-0.18012,0.458387,-0.458387,-0.18012,492.438,-42.1563)">
                        <path d="M470.223,701.982C470.223,701.982 470.64,688.238 472.157,684.991C473.019,683.144 478.776,682.499 478.776,682.499C478.776,682.499 477.048,694.122 477.13,698.713C477.177,701.399 470.223,701.982 470.223,701.982Z" style="fill:none;stroke:rgb(237,109,11);stroke-width:3.39px;"/>
                    </g>
                    <g transform="matrix(-0.18012,0.458387,-0.458387,-0.18012,491.473,-35.9288)">
                        <path d="M470.197,703.575C470.197,703.575 470.64,688.238 472.157,684.991C473.019,683.144 478.776,682.499 478.776,682.499C478.776,682.499 477.022,695.714 477.103,700.305C477.151,702.991 470.197,703.575 470.197,703.575Z" style="fill:none;stroke:rgb(237,109,11);stroke-width:3.39px;"/>
                    </g>
                    <g transform="matrix(-0.18012,0.458387,-0.458387,-0.18012,490.549,-29.6047)">
                        <path d="M471.189,703.209C471.189,703.209 470.848,687.485 472.364,684.238C473.227,682.391 478.984,681.746 478.984,681.746C478.984,681.746 478.014,695.349 478.096,699.94C478.143,702.626 471.189,703.209 471.189,703.209Z" style="fill:none;stroke:rgb(237,109,11);stroke-width:3.39px;"/>
                    </g>
                    <g transform="matrix(-0.18012,0.458387,-0.458387,-0.18012,489.269,-22.7801)">
                        <path d="M470.458,703.26C470.458,703.26 470.797,686.593 472.313,683.346C473.176,681.499 479.846,681.141 479.846,681.141C479.846,681.141 478.249,695.687 477.365,699.991C476.824,702.622 470.458,703.26 470.458,703.26Z" style="fill:none;stroke:rgb(237,109,11);stroke-width:3.39px;"/>
                    </g>
                    <g transform="matrix(-0.18012,0.458387,-0.458387,-0.18012,487.853,-15.6087)">
                        <path d="M470.197,704.124C470.197,704.124 471.108,686.758 472.624,683.511C473.486,681.664 480.645,681.097 480.645,681.097C480.645,681.097 478.294,695.796 478.376,700.387C478.424,703.073 470.197,704.124 470.197,704.124Z" style="fill:none;stroke:rgb(237,109,11);stroke-width:3.39px;"/>
                    </g>
                    <g transform="matrix(-0.18012,0.458387,-0.458387,-0.18012,492.438,-42.1563)">
                        <path d="M477.662,692.931L482.57,700.684L483.405,688.623L478.776,682.499L477.662,692.931Z" style="fill:none;stroke:rgb(237,109,11);stroke-width:3.39px;"/>
                    </g>
                    <g transform="matrix(-0.18012,0.458387,-0.458387,-0.18012,491.61,-35.7035)">
                        <path d="M477.376,693.424L483.405,700.684L483.405,688.623L478.776,682.499L477.376,693.424Z" style="fill:none;stroke:rgb(237,109,11);stroke-width:3.39px;"/>
                    </g>
                    <g transform="matrix(-0.18012,0.458387,-0.458387,-0.18012,490.856,-29.0076)">
                        <path d="M477.48,692.931L483.405,701.635L484.054,689.012L478.083,682.769L477.48,692.931Z" style="fill:none;stroke:rgb(237,109,11);stroke-width:3.39px;"/>
                    </g>
                    <g transform="matrix(-0.18012,0.458387,-0.458387,-0.18012,489.215,-21.6453)">
                        <path d="M476.519,693.242L482.544,702.216L483.405,688.623L477.662,681.882L476.519,693.242Z" style="fill:none;stroke:rgb(237,109,11);stroke-width:3.39px;"/>
                    </g>
                </g>
                <g transform="matrix(0.0306651,-0.19244,-0.19244,-0.0306651,189.009,399.022)">
                    <g transform="matrix(0.240604,0.429734,-0.429734,0.240604,250.938,-320.867)">
                        <path d="M554.43,686.98L558.219,688.366" style="fill:none;stroke:rgb(237,109,11);stroke-width:3.39px;"/>
                    </g>
                    <g transform="matrix(-0.18012,0.458387,-0.458387,-0.18012,492.438,-42.1563)">
                        <path d="M470.223,701.982C470.223,701.982 470.64,688.238 472.157,684.991C473.019,683.144 478.776,682.499 478.776,682.499C478.776,682.499 477.048,694.122 477.13,698.713C477.177,701.399 470.223,701.982 470.223,701.982Z" style="fill:none;stroke:rgb(237,109,11);stroke-width:3.39px;"/>
                    </g>
                    <g transform="matrix(-0.18012,0.458387,-0.458387,-0.18012,491.473,-35.9288)">
                        <path d="M470.197,703.575C470.197,703.575 470.64,688.238 472.157,684.991C473.019,683.144 478.776,682.499 478.776,682.499C478.776,682.499 477.022,695.714 477.103,700.305C477.151,702.991 470.197,703.575 470.197,703.575Z" style="fill:none;stroke:rgb(237,109,11);stroke-width:3.39px;"/>
                    </g>
                    <g transform="matrix(-0.18012,0.458387,-0.458387,-0.18012,490.549,-29.6047)">
                        <path d="M471.189,703.209C471.189,703.209 470.848,687.485 472.364,684.238C473.227,682.391 478.984,681.746 478.984,681.746C478.984,681.746 478.014,695.349 478.096,699.94C478.143,702.626 471.189,703.209 471.189,703.209Z" style="fill:none;stroke:rgb(237,109,11);stroke-width:3.39px;"/>
                    </g>
                    <g transform="matrix(-0.18012,0.458387,-0.458387,-0.18012,489.269,-22.7801)">
                        <path d="M470.458,703.26C470.458,703.26 470.797,686.593 472.313,683.346C473.176,681.499 479.846,681.141 479.846,681.141C479.846,681.141 478.249,695.687 477.365,699.991C476.824,702.622 470.458,703.26 470.458,703.26Z" style="fill:none;stroke:rgb(237,109,11);stroke-width:3.39px;"/>
                    </g>
                    <g transform="matrix(-0.18012,0.458387,-0.458387,-0.18012,487.853,-15.6087)">
                        <path d="M470.197,704.124C470.197,704.124 471.108,686.758 472.624,683.511C473.486,681.664 480.645,681.097 480.645,681.097C480.645,681.097 478.294,695.796 478.376,700.387C478.424,703.073 470.197,704.124 470.197,704.124Z" style="fill:none;stroke:rgb(237,109,11);stroke-width:3.39px;"/>
                    </g>
                    <g transform="matrix(-0.18012,0.458387,-0.458387,-0.18012,492.438,-42.1563)">
                        <path d="M477.662,692.931L482.57,700.684L483.405,688.623L478.776,682.499L477.662,692.931Z" style="fill:none;stroke:rgb(237,109,11);stroke-width:3.39px;"/>
                    </g>
                    <g transform="matrix(-0.18012,0.458387,-0.458387,-0.18012,491.61,-35.7035)">
                        <path d="M477.376,693.424L483.405,700.684L483.405,688.623L478.776,682.499L477.376,693.424Z" style="fill:none;stroke:rgb(237,109,11);stroke-width:3.39px;"/>
                    </g>
                    <g transform="matrix(-0.18012,0.458387,-0.458387,-0.18012,490.856,-29.0076)">
                        <path d="M477.48,692.931L483.405,701.635L484.054,689.012L478.083,682.769L477.48,692.931Z" style="fill:none;stroke:rgb(237,109,11);stroke-width:3.39px;"/>
                    </g>
                    <g transform="matrix(-0.18012,0.458387,-0.458387,-0.18012,489.215,-21.6453)">
                        <path d="M476.519,693.242L482.544,702.216L483.405,688.623L477.662,681.882L476.519,693.242Z" style="fill:none;stroke:rgb(237,109,11);stroke-width:3.39px;"/>
                    </g>
                </g>
                <g transform="matrix(0.0306651,0.19244,-0.19244,0.0306651,188.988,337.658)">
                    <g transform="matrix(0.240604,0.429734,-0.429734,0.240604,250.938,-320.867)">
                        <path d="M554.43,686.98L558.219,688.366" style="fill:none;stroke:rgb(237,109,11);stroke-width:3.39px;"/>
                    </g>
                    <g transform="matrix(-0.18012,0.458387,-0.458387,-0.18012,492.438,-42.1563)">
                        <path d="M470.223,701.982C470.223,701.982 470.64,688.238 472.157,684.991C473.019,683.144 478.776,682.499 478.776,682.499C478.776,682.499 477.048,694.122 477.13,698.713C477.177,701.399 470.223,701.982 470.223,701.982Z" style="fill:none;stroke:rgb(237,109,11);stroke-width:3.39px;"/>
                    </g>
                    <g transform="matrix(-0.18012,0.458387,-0.458387,-0.18012,491.473,-35.9288)">
                        <path d="M470.197,703.575C470.197,703.575 470.64,688.238 472.157,684.991C473.019,683.144 478.776,682.499 478.776,682.499C478.776,682.499 477.022,695.714 477.103,700.305C477.151,702.991 470.197,703.575 470.197,703.575Z" style="fill:none;stroke:rgb(237,109,11);stroke-width:3.39px;"/>
                    </g>
                    <g transform="matrix(-0.18012,0.458387,-0.458387,-0.18012,490.549,-29.6047)">
                        <path d="M471.189,703.209C471.189,703.209 470.848,687.485 472.364,684.238C473.227,682.391 478.984,681.746 478.984,681.746C478.984,681.746 478.014,695.349 478.096,699.94C478.143,702.626 471.189,703.209 471.189,703.209Z" style="fill:none;stroke:rgb(237,109,11);stroke-width:3.39px;"/>
                    </g>
                    <g transform="matrix(-0.18012,0.458387,-0.458387,-0.18012,489.269,-22.7801)">
                        <path d="M470.458,703.26C470.458,703.26 470.797,686.593 472.313,683.346C473.176,681.499 479.846,681.141 479.846,681.141C479.846,681.141 478.249,695.687 477.365,699.991C476.824,702.622 470.458,703.26 470.458,703.26Z" style="fill:none;stroke:rgb(237,109,11);stroke-width:3.39px;"/>
                    </g>
                    <g transform="matrix(-0.18012,0.458387,-0.458387,-0.18012,487.853,-15.6087)">
                        <path d="M470.197,704.124C470.197,704.124 471.108,686.758 472.624,683.511C473.486,681.664 480.645,681.097 480.645,681.097C480.645,681.097 478.294,695.796 478.376,700.387C478.424,703.073 470.197,704.124 470.197,704.124Z" style="fill:none;stroke:rgb(237,109,11);stroke-width:3.39px;"/>
                    </g>
                    <g transform="matrix(-0.18012,0.458387,-0.458387,-0.18012,492.438,-42.1563)">
                        <path d="M477.662,692.931L482.57,700.684L483.405,688.623L478.776,682.499L477.662,692.931Z" style="fill:none;stroke:rgb(237,109,11);stroke-width:3.39px;"/>
                    </g>
                    <g transform="matrix(-0.18012,0.458387,-0.458387,-0.18012,491.61,-35.7035)">
                        <path d="M477.376,693.424L483.405,700.684L483.405,688.623L478.776,682.499L477.376,693.424Z" style="fill:none;stroke:rgb(237,109,11);stroke-width:3.39px;"/>
                    </g>
                    <g transform="matrix(-0.18012,0.458387,-0.458387,-0.18012,490.856,-29.0076)">
                        <path d="M477.48,692.931L483.405,701.635L484.054,689.012L478.083,682.769L477.48,692.931Z" style="fill:none;stroke:rgb(237,109,11);stroke-width:3.39px;"/>
                    </g>
                    <g transform="matrix(-0.18012,0.458387,-0.458387,-0.18012,489.215,-21.6453)">
                        <path d="M476.519,693.242L482.544,702.216L483.405,688.623L477.662,681.882L476.519,693.242Z" style="fill:none;stroke:rgb(237,109,11);stroke-width:3.39px;"/>
                    </g>
                </g>
                <g transform="matrix(-0.19244,-0.0306651,-0.0306651,0.19244,193.335,351.445)">
                    <g>
                        <g transform="matrix(-0.18012,0.458387,-0.458387,-0.18012,503.594,-48.0758)">
                            <path d="M554.43,686.98L558.219,688.366" style="fill:none;stroke:rgb(237,109,11);stroke-width:3.39px;"/>
                        </g>
                        <g transform="matrix(0.240604,0.429734,-0.429734,0.240604,247.537,-358.619)">
                            <path d="M554.43,686.98L558.219,688.366" style="fill:none;stroke:rgb(237,109,11);stroke-width:3.39px;"/>
                        </g>
                        <g transform="matrix(-0.18012,0.458387,-0.458387,-0.18012,492.438,-42.1563)">
                            <path d="M470.223,701.982C470.223,701.982 470.64,688.238 472.157,684.991C473.019,683.144 478.776,682.499 478.776,682.499C478.776,682.499 477.048,694.122 477.13,698.713C477.177,701.399 470.223,701.982 470.223,701.982Z" style="fill:none;stroke:rgb(237,109,11);stroke-width:3.39px;"/>
                        </g>
                        <g transform="matrix(-0.18012,0.458387,-0.458387,-0.18012,491.473,-35.9288)">
                            <path d="M470.197,703.575C470.197,703.575 470.64,688.238 472.157,684.991C473.019,683.144 478.776,682.499 478.776,682.499C478.776,682.499 477.022,695.714 477.103,700.305C477.151,702.991 470.197,703.575 470.197,703.575Z" style="fill:none;stroke:rgb(237,109,11);stroke-width:3.39px;"/>
                        </g>
                        <g transform="matrix(-0.18012,0.458387,-0.458387,-0.18012,490.549,-29.6047)">
                            <path d="M471.189,703.209C471.189,703.209 470.848,687.485 472.364,684.238C473.227,682.391 478.984,681.746 478.984,681.746C478.984,681.746 478.014,695.349 478.096,699.94C478.143,702.626 471.189,703.209 471.189,703.209Z" style="fill:none;stroke:rgb(237,109,11);stroke-width:3.39px;"/>
                        </g>
                        <g transform="matrix(-0.18012,0.458387,-0.458387,-0.18012,489.269,-22.7801)">
                            <path d="M470.458,703.26C470.458,703.26 470.797,686.593 472.313,683.346C473.176,681.499 479.846,681.141 479.846,681.141C479.846,681.141 478.249,695.687 477.365,699.991C476.824,702.622 470.458,703.26 470.458,703.26Z" style="fill:none;stroke:rgb(237,109,11);stroke-width:3.39px;"/>
                        </g>
                        <g transform="matrix(-0.18012,0.458387,-0.458387,-0.18012,487.853,-15.6087)">
                            <path d="M470.197,704.124C470.197,704.124 471.108,686.758 472.624,683.511C473.486,681.664 480.645,681.097 480.645,681.097C480.645,681.097 478.294,695.796 478.376,700.387C478.424,703.073 470.197,704.124 470.197,704.124Z" style="fill:none;stroke:rgb(237,109,11);stroke-width:3.39px;"/>
                        </g>
                        <g transform="matrix(-0.18012,0.458387,-0.458387,-0.18012,492.438,-42.1563)">
                            <path d="M477.662,692.931L482.57,700.684L483.405,688.623L478.776,682.499L477.662,692.931Z" style="fill:none;stroke:rgb(237,109,11);stroke-width:3.39px;"/>
                        </g>
                        <g transform="matrix(-0.18012,0.458387,-0.458387,-0.18012,491.61,-35.7035)">
                            <path d="M477.376,693.424L483.405,700.684L483.405,688.623L478.776,682.499L477.376,693.424Z" style="fill:none;stroke:rgb(237,109,11);stroke-width:3.39px;"/>
                        </g>
                        <g transform="matrix(-0.18012,0.458387,-0.458387,-0.18012,490.856,-29.0076)">
                            <path d="M477.48,692.931L483.405,701.635L484.054,689.012L478.083,682.769L477.48,692.931Z" style="fill:none;stroke:rgb(237,109,11);stroke-width:3.39px;"/>
                        </g>
                        <g transform="matrix(-0.18012,0.458387,-0.458387,-0.18012,489.215,-21.6453)">
                            <path d="M476.519,693.242L482.544,702.216L483.405,688.623L477.662,681.882L476.519,693.242Z" style="fill:none;stroke:rgb(237,109,11);stroke-width:3.39px;"/>
                        </g>
                    </g>
                </g>
            </g>
        </g>
    </g>
</svg>
