<?xml version="1.0" encoding="UTF-8" standalone="no"?>
<!DOCTYPE svg PUBLIC "-//W3C//DTD SVG 1.1//EN" "http://www.w3.org/Graphics/SVG/1.1/DTD/svg11.dtd">
<svg width="100%" height="100%" viewBox="0 0 64 64" version="1.1" xmlns="http://www.w3.org/2000/svg" xmlns:xlink="http://www.w3.org/1999/xlink" xml:space="preserve" xmlns:serif="http://www.serif.com/" style="fill-rule:evenodd;clip-rule:evenodd;stroke-linecap:round;stroke-linejoin:round;stroke-miterlimit:1.5;">
    <g>
        <path d="M25.885,8.095C25.854,7.845 25.838,7.589 25.838,7.33C25.838,3.929 28.599,1.168 32,1.168C35.401,1.168 38.162,3.929 38.162,7.33C38.162,7.589 38.146,7.845 38.115,8.095C40.742,8.766 43.201,9.859 45.416,11.298C46.526,9.673 48.393,8.605 50.508,8.605C53.909,8.605 56.67,11.366 56.67,14.767C56.67,17.038 55.438,19.024 53.607,20.093C54.605,21.898 55.383,23.841 55.905,25.885C56.155,25.854 56.411,25.838 56.67,25.838C60.071,25.838 62.832,28.599 62.832,32C62.832,35.401 60.071,38.162 56.67,38.162C56.411,38.162 56.155,38.146 55.905,38.115C55.287,40.535 54.31,42.813 53.035,44.888C55.177,45.853 56.67,48.008 56.67,50.508C56.67,53.909 53.909,56.67 50.508,56.67C48.008,56.67 45.853,55.177 44.888,53.035C42.812,54.31 40.535,55.287 38.115,55.905C38.146,56.155 38.162,56.411 38.162,56.67C38.162,60.071 35.401,62.832 32,62.832C28.599,62.832 25.838,60.071 25.838,56.67C25.838,56.411 25.854,56.155 25.885,55.905C23.692,55.345 21.616,54.49 19.703,53.387C18.668,55.339 16.616,56.67 14.255,56.67C10.854,56.67 8.093,53.909 8.093,50.508C8.093,48.239 9.322,46.255 11.15,45.185C9.784,43.031 8.743,40.651 8.095,38.115C7.845,38.146 7.589,38.162 7.33,38.162C3.929,38.162 1.168,35.401 1.168,32C1.168,28.599 3.929,25.838 7.33,25.838C7.589,25.838 7.845,25.854 8.095,25.885C8.653,23.702 9.502,21.634 10.599,19.727C9.079,18.604 8.093,16.8 8.093,14.767C8.093,11.366 10.854,8.605 14.255,8.605C16.223,8.605 17.977,9.53 19.105,10.969C21.182,9.692 23.462,8.714 25.885,8.095Z" style="fill:none;stroke:rgb(237,109,11);stroke-width:1.56px;"/>
    </g>
    <g>
        <path d="M38.115,8.095C40.742,8.766 43.201,9.859 45.416,11.298C44.741,12.287 44.346,13.481 44.346,14.767C44.346,18.168 47.107,20.929 50.508,20.929C51.637,20.929 52.696,20.624 53.607,20.093C54.605,21.898 55.383,23.841 55.905,25.885C52.864,26.263 50.508,28.858 50.508,32C50.508,35.142 52.864,37.737 55.905,38.115C55.287,40.535 54.31,42.813 53.035,44.888C52.264,44.54 51.409,44.346 50.508,44.346C47.107,44.346 44.346,47.107 44.346,50.508C44.346,51.409 44.54,52.264 44.888,53.035C42.812,54.31 40.535,55.287 38.115,55.905C37.737,52.864 35.142,50.508 32,50.508C28.858,50.508 26.263,52.864 25.885,55.905C23.692,55.345 21.616,54.49 19.703,53.387C20.158,52.527 20.416,51.548 20.416,50.508C20.416,47.107 17.655,44.346 14.255,44.346C13.123,44.346 12.062,44.652 11.15,45.185C9.784,43.031 8.743,40.651 8.095,38.115C11.136,37.737 13.492,35.142 13.492,32C13.492,28.858 11.136,26.263 8.095,25.885C8.653,23.702 9.502,21.634 10.599,19.727C11.622,20.482 12.887,20.929 14.255,20.929C17.655,20.929 20.416,18.168 20.416,14.767C20.416,13.335 19.927,12.016 19.105,10.969C21.182,9.692 23.462,8.714 25.885,8.095C26.263,11.136 28.858,13.492 32,13.492C35.142,13.492 37.737,11.136 38.115,8.095Z" style="fill:none;stroke:rgb(237,109,11);stroke-width:1.56px;"/>
    </g>
    <g transform="matrix(1,0,0,1,-7.59275,-3.00135)">
        <text x="22.818px" y="44.195px" style="font-family:'Aleo-Regular', 'Aleo';font-size:25px;fill:rgb(237,108,10);">AL</text>
    </g>
</svg>
