<?xml version="1.0" encoding="UTF-8" standalone="no"?>
<!DOCTYPE svg PUBLIC "-//W3C//DTD SVG 1.1//EN" "http://www.w3.org/Graphics/SVG/1.1/DTD/svg11.dtd">
<svg width="100%" height="100%" viewBox="0 0 1063 1063" version="1.1" xmlns="http://www.w3.org/2000/svg" xmlns:xlink="http://www.w3.org/1999/xlink" xml:space="preserve" xmlns:serif="http://www.serif.com/" style="fill-rule:evenodd;clip-rule:evenodd;stroke-linecap:round;stroke-linejoin:round;stroke-miterlimit:1.5;">
    <g transform="matrix(0.990319,0,0,0.990319,-537.094,-885.941)">
        <circle cx="1079.04" cy="1431.29" r="516.272" style="fill:rgb(241,241,222);"/>
        <clipPath id="_clip1">
            <circle cx="1079.04" cy="1431.29" r="516.272"/>
        </clipPath>
        <g clip-path="url(#_clip1)">
            <g transform="matrix(3.78424,0,0,3.78424,487.043,117.273)">
                <g>
                    <path d="M163.01,238.344C163.01,234.488 159.879,231.357 156.022,231.357L151.979,231.357C148.123,231.357 144.992,234.488 144.992,238.344L144.992,248.009C144.992,251.865 148.123,254.996 151.979,254.996L156.022,254.996C159.879,254.996 163.01,251.865 163.01,248.009L163.01,238.344Z" style="fill:rgb(113,177,215);stroke:black;stroke-width:0.56px;"/>
                    <g transform="matrix(1,0,0,1,0.597571,70.3264)">
                        <path d="M163.01,238.344C163.01,234.488 159.879,231.357 156.022,231.357L151.979,231.357C148.123,231.357 144.992,234.488 144.992,238.344L144.992,248.009C144.992,251.865 148.123,254.996 151.979,254.996L156.022,254.996C159.879,254.996 163.01,251.865 163.01,248.009L163.01,238.344Z" style="fill:rgb(113,177,215);stroke:black;stroke-width:0.56px;"/>
                    </g>
                    <g transform="matrix(1,0,0,1,0.685955,93.5472)">
                        <path d="M163.01,238.344C163.01,234.488 159.879,231.357 156.022,231.357L151.979,231.357C148.123,231.357 144.992,234.488 144.992,238.344L144.992,248.009C144.992,251.865 148.123,254.996 151.979,254.996L156.022,254.996C159.879,254.996 163.01,251.865 163.01,248.009L163.01,238.344Z" style="fill:rgb(113,177,215);stroke:black;stroke-width:0.56px;"/>
                    </g>
                    <g transform="matrix(1,0,0,1,-0.0138924,139.326)">
                        <path d="M163.01,238.344C163.01,234.488 159.879,231.357 156.022,231.357L151.979,231.357C148.123,231.357 144.992,234.488 144.992,238.344L144.992,248.009C144.992,251.865 148.123,254.996 151.979,254.996L156.022,254.996C159.879,254.996 163.01,251.865 163.01,248.009L163.01,238.344Z" style="fill:rgb(113,177,215);stroke:black;stroke-width:0.56px;"/>
                    </g>
                    <g transform="matrix(1,0,0,1,1.36963,116.259)">
                        <path d="M163.01,238.344C163.01,234.488 159.879,231.357 156.022,231.357L151.979,231.357C148.123,231.357 144.992,234.488 144.992,238.344L144.992,248.009C144.992,251.865 148.123,254.996 151.979,254.996L156.022,254.996C159.879,254.996 163.01,251.865 163.01,248.009L163.01,238.344Z" style="fill:rgb(113,177,215);stroke:black;stroke-width:0.56px;"/>
                    </g>
                    <g transform="matrix(1,0,0,1,-0.298949,162.306)">
                        <path d="M163.01,238.344C163.01,234.488 159.879,231.357 156.022,231.357L151.979,231.357C148.123,231.357 144.992,234.488 144.992,238.344L144.992,248.009C144.992,251.865 148.123,254.996 151.979,254.996L156.022,254.996C159.879,254.996 163.01,251.865 163.01,248.009L163.01,238.344Z" style="fill:rgb(113,177,215);stroke:black;stroke-width:0.56px;"/>
                    </g>
                    <g transform="matrix(1,0,0,1,-0.597434,185.657)">
                        <path d="M163.01,238.344C163.01,234.488 159.879,231.357 156.022,231.357L151.979,231.357C148.123,231.357 144.992,234.488 144.992,238.344L144.992,248.009C144.992,251.865 148.123,254.996 151.979,254.996L156.022,254.996C159.879,254.996 163.01,251.865 163.01,248.009L163.01,238.344Z" style="fill:rgb(113,177,215);stroke:black;stroke-width:0.56px;"/>
                    </g>
                    <g transform="matrix(1,0,0,1,-0.716721,209.419)">
                        <path d="M163.01,238.344C163.01,234.488 159.879,231.357 156.022,231.357L151.979,231.357C148.123,231.357 144.992,234.488 144.992,238.344L144.992,248.009C144.992,251.865 148.123,254.996 151.979,254.996L156.022,254.996C159.879,254.996 163.01,251.865 163.01,248.009L163.01,238.344Z" style="fill:rgb(113,177,215);stroke:black;stroke-width:0.56px;"/>
                    </g>
                    <g transform="matrix(1,0,0,1,-0.608102,233.078)">
                        <path d="M163.01,238.344C163.01,234.488 159.879,231.357 156.022,231.357L151.979,231.357C148.123,231.357 144.992,234.488 144.992,238.344L144.992,248.009C144.992,251.865 148.123,254.996 151.979,254.996L156.022,254.996C159.879,254.996 163.01,251.865 163.01,248.009L163.01,238.344Z" style="fill:rgb(113,177,215);stroke:black;stroke-width:0.56px;"/>
                    </g>
                    <g transform="matrix(1,0,0,1,0.363705,46.9195)">
                        <path d="M163.01,238.344C163.01,234.488 159.879,231.357 156.022,231.357L151.979,231.357C148.123,231.357 144.992,234.488 144.992,238.344L144.992,248.009C144.992,251.865 148.123,254.996 151.979,254.996L156.022,254.996C159.879,254.996 163.01,251.865 163.01,248.009L163.01,238.344Z" style="fill:rgb(113,177,215);stroke:black;stroke-width:0.56px;"/>
                    </g>
                    <g transform="matrix(1,0,0,1,1.42119,-23.3147)">
                        <path d="M163.01,238.344C163.01,234.488 159.879,231.357 156.022,231.357L151.979,231.357C148.123,231.357 144.992,234.488 144.992,238.344L144.992,248.009C144.992,251.865 148.123,254.996 151.979,254.996L156.022,254.996C159.879,254.996 163.01,251.865 163.01,248.009L163.01,238.344Z" style="fill:rgb(113,177,215);stroke:black;stroke-width:0.56px;"/>
                    </g>
                    <g transform="matrix(1,0,0,1,-0.147046,23.5141)">
                        <path d="M163.01,238.344C163.01,234.488 159.879,231.357 156.022,231.357L151.979,231.357C148.123,231.357 144.992,234.488 144.992,238.344L144.992,248.009C144.992,251.865 148.123,254.996 151.979,254.996L156.022,254.996C159.879,254.996 163.01,251.865 163.01,248.009L163.01,238.344Z" style="fill:rgb(113,177,215);stroke:black;stroke-width:0.56px;"/>
                    </g>
                </g>
                <g>
                    <g transform="matrix(0.352427,0,0,0.352427,-496.181,138.056)">
                        <path d="M1840.42,264.031C1840.42,264.031 1844.37,263.828 1849.02,263.589C1858.27,263.115 1866.75,258.337 1871.95,250.682C1873.41,248.54 1874.47,246.979 1874.47,246.979L1870.93,258.395L1863.7,262.836L1857.95,265.113L1840.42,264.031Z" style="fill:rgb(0,114,183);"/>
                    </g>
                    <g transform="matrix(0.352427,0,0,0.352427,-497.557,161.462)">
                        <path d="M1840.42,264.031C1840.42,264.031 1844.37,263.828 1849.02,263.589C1858.27,263.115 1866.75,258.337 1871.95,250.682C1873.41,248.54 1874.47,246.979 1874.47,246.979L1870.93,258.395L1863.7,262.836L1857.95,265.113L1840.42,264.031Z" style="fill:rgb(0,114,183);"/>
                    </g>
                    <g transform="matrix(0.352427,0,0,0.352427,-497.906,185.237)">
                        <path d="M1840.42,264.031C1840.42,264.031 1844.37,263.828 1849.02,263.589C1858.27,263.115 1866.75,258.337 1871.95,250.682C1873.41,248.54 1874.47,246.979 1874.47,246.979L1870.93,258.395L1863.7,262.836L1857.95,265.113L1840.42,264.031Z" style="fill:rgb(0,114,183);"/>
                    </g>
                    <g transform="matrix(0.352427,0,0,0.352427,-496.99,208.331)">
                        <path d="M1840.42,264.031C1840.42,264.031 1844.37,263.828 1849.02,263.589C1858.27,263.115 1866.75,258.337 1871.95,250.682C1873.41,248.54 1874.47,246.979 1874.47,246.979L1870.93,258.395L1863.7,262.836L1857.95,265.113L1840.42,264.031Z" style="fill:rgb(0,114,183);"/>
                    </g>
                    <g transform="matrix(0.352427,0,0,0.352427,-496.924,231.73)">
                        <path d="M1840.42,264.031C1840.42,264.031 1844.37,263.828 1849.02,263.589C1858.27,263.115 1866.75,258.337 1871.95,250.682C1873.41,248.54 1874.47,246.979 1874.47,246.979L1870.93,258.395L1863.7,262.836L1857.95,265.113L1840.42,264.031Z" style="fill:rgb(0,114,183);"/>
                    </g>
                    <g transform="matrix(0.352427,0,0,0.352427,-496.964,255.203)">
                        <path d="M1840.42,264.031C1840.42,264.031 1844.37,263.828 1849.02,263.589C1858.27,263.115 1866.75,258.337 1871.95,250.682C1873.41,248.54 1874.47,246.979 1874.47,246.979L1870.93,258.395L1863.7,262.836L1857.95,265.113L1840.42,264.031Z" style="fill:rgb(0,114,183);"/>
                    </g>
                    <g transform="matrix(0.352427,0,0,0.352427,-496.112,277.51)">
                        <path d="M1840.42,264.031C1840.42,264.031 1844.37,263.828 1849.02,263.589C1858.27,263.115 1866.75,258.337 1871.95,250.682C1873.41,248.54 1874.47,246.979 1874.47,246.979L1870.93,258.395L1863.7,262.836L1857.95,265.113L1840.42,264.031Z" style="fill:rgb(0,114,183);"/>
                    </g>
                    <g transform="matrix(0.352427,0,0,0.352427,-497.566,300.487)">
                        <path d="M1840.42,264.031C1840.42,264.031 1844.37,263.828 1849.02,263.589C1858.27,263.115 1866.75,258.337 1871.95,250.682C1873.41,248.54 1874.47,246.979 1874.47,246.979L1870.93,258.395L1863.7,262.836L1857.95,265.113L1840.42,264.031Z" style="fill:rgb(0,114,183);"/>
                    </g>
                    <g transform="matrix(0.352427,0,0,0.352427,-498.159,323.805)">
                        <path d="M1840.42,264.031C1840.42,264.031 1844.37,263.828 1849.02,263.589C1858.27,263.115 1866.75,258.337 1871.95,250.682C1873.41,248.54 1874.47,246.979 1874.47,246.979L1870.93,258.395L1863.7,262.836L1857.95,265.113L1840.42,264.031Z" style="fill:rgb(0,114,183);"/>
                    </g>
                    <g transform="matrix(0.352427,0,0,0.352427,-498.251,346.843)">
                        <path d="M1840.42,264.031C1840.42,264.031 1844.37,263.828 1849.02,263.589C1858.27,263.115 1866.75,258.337 1871.95,250.682C1873.41,248.54 1874.47,246.979 1874.47,246.979L1870.93,258.395L1863.7,262.836L1857.95,265.113L1840.42,264.031Z" style="fill:rgb(0,114,183);"/>
                    </g>
                    <g transform="matrix(0.352427,0,0,0.352427,-498.629,371.179)">
                        <path d="M1840.42,264.031C1840.42,264.031 1844.37,263.828 1849.02,263.589C1858.27,263.115 1866.75,258.337 1871.95,250.682C1873.41,248.54 1874.47,246.979 1874.47,246.979L1870.93,258.395L1863.7,262.836L1857.95,265.113L1840.42,264.031Z" style="fill:rgb(0,114,183);"/>
                    </g>
                    <g transform="matrix(0.352427,0,0,0.352427,-497.831,394.237)">
                        <path d="M1840.42,264.031C1840.42,264.031 1844.37,263.828 1849.02,263.589C1858.27,263.115 1866.75,258.337 1871.95,250.682C1873.41,248.54 1874.47,246.979 1874.47,246.979L1870.93,258.395L1863.7,262.836L1857.95,265.113L1840.42,264.031Z" style="fill:rgb(0,114,183);"/>
                    </g>
                </g>
                <g>
                    <path d="M163.01,238.344C163.01,234.488 159.879,231.357 156.022,231.357L151.979,231.357C148.123,231.357 144.992,234.488 144.992,238.344L144.992,248.009C144.992,251.865 148.123,254.996 151.979,254.996L156.022,254.996C159.879,254.996 163.01,251.865 163.01,248.009L163.01,238.344Z" style="fill:none;stroke:black;stroke-width:0.56px;"/>
                    <g transform="matrix(1,0,0,1,0.597571,70.3264)">
                        <path d="M163.01,238.344C163.01,234.488 159.879,231.357 156.022,231.357L151.979,231.357C148.123,231.357 144.992,234.488 144.992,238.344L144.992,248.009C144.992,251.865 148.123,254.996 151.979,254.996L156.022,254.996C159.879,254.996 163.01,251.865 163.01,248.009L163.01,238.344Z" style="fill:none;stroke:black;stroke-width:0.56px;"/>
                    </g>
                    <g transform="matrix(1,0,0,1,0.685955,93.5472)">
                        <path d="M163.01,238.344C163.01,234.488 159.879,231.357 156.022,231.357L151.979,231.357C148.123,231.357 144.992,234.488 144.992,238.344L144.992,248.009C144.992,251.865 148.123,254.996 151.979,254.996L156.022,254.996C159.879,254.996 163.01,251.865 163.01,248.009L163.01,238.344Z" style="fill:none;stroke:black;stroke-width:0.56px;"/>
                    </g>
                    <g transform="matrix(1,0,0,1,-0.0138924,139.326)">
                        <path d="M163.01,238.344C163.01,234.488 159.879,231.357 156.022,231.357L151.979,231.357C148.123,231.357 144.992,234.488 144.992,238.344L144.992,248.009C144.992,251.865 148.123,254.996 151.979,254.996L156.022,254.996C159.879,254.996 163.01,251.865 163.01,248.009L163.01,238.344Z" style="fill:none;stroke:black;stroke-width:0.56px;"/>
                    </g>
                    <g transform="matrix(1,0,0,1,1.36963,116.259)">
                        <path d="M163.01,238.344C163.01,234.488 159.879,231.357 156.022,231.357L151.979,231.357C148.123,231.357 144.992,234.488 144.992,238.344L144.992,248.009C144.992,251.865 148.123,254.996 151.979,254.996L156.022,254.996C159.879,254.996 163.01,251.865 163.01,248.009L163.01,238.344Z" style="fill:none;stroke:black;stroke-width:0.56px;"/>
                    </g>
                    <g transform="matrix(1,0,0,1,-0.298949,162.306)">
                        <path d="M163.01,238.344C163.01,234.488 159.879,231.357 156.022,231.357L151.979,231.357C148.123,231.357 144.992,234.488 144.992,238.344L144.992,248.009C144.992,251.865 148.123,254.996 151.979,254.996L156.022,254.996C159.879,254.996 163.01,251.865 163.01,248.009L163.01,238.344Z" style="fill:none;stroke:black;stroke-width:0.56px;"/>
                    </g>
                    <g transform="matrix(1,0,0,1,-0.597434,185.657)">
                        <path d="M163.01,238.344C163.01,234.488 159.879,231.357 156.022,231.357L151.979,231.357C148.123,231.357 144.992,234.488 144.992,238.344L144.992,248.009C144.992,251.865 148.123,254.996 151.979,254.996L156.022,254.996C159.879,254.996 163.01,251.865 163.01,248.009L163.01,238.344Z" style="fill:none;stroke:black;stroke-width:0.56px;"/>
                    </g>
                    <g transform="matrix(1,0,0,1,-0.716721,209.419)">
                        <path d="M163.01,238.344C163.01,234.488 159.879,231.357 156.022,231.357L151.979,231.357C148.123,231.357 144.992,234.488 144.992,238.344L144.992,248.009C144.992,251.865 148.123,254.996 151.979,254.996L156.022,254.996C159.879,254.996 163.01,251.865 163.01,248.009L163.01,238.344Z" style="fill:none;stroke:black;stroke-width:0.56px;"/>
                    </g>
                    <g transform="matrix(1,0,0,1,-0.608102,233.078)">
                        <path d="M163.01,238.344C163.01,234.488 159.879,231.357 156.022,231.357L151.979,231.357C148.123,231.357 144.992,234.488 144.992,238.344L144.992,248.009C144.992,251.865 148.123,254.996 151.979,254.996L156.022,254.996C159.879,254.996 163.01,251.865 163.01,248.009L163.01,238.344Z" style="fill:none;stroke:black;stroke-width:0.56px;"/>
                    </g>
                    <g transform="matrix(1,0,0,1,0.363705,46.9195)">
                        <path d="M163.01,238.344C163.01,234.488 159.879,231.357 156.022,231.357L151.979,231.357C148.123,231.357 144.992,234.488 144.992,238.344L144.992,248.009C144.992,251.865 148.123,254.996 151.979,254.996L156.022,254.996C159.879,254.996 163.01,251.865 163.01,248.009L163.01,238.344Z" style="fill:none;stroke:black;stroke-width:0.56px;"/>
                    </g>
                    <g transform="matrix(1,0,0,1,1.42119,-23.3147)">
                        <path d="M163.01,238.344C163.01,234.488 159.879,231.357 156.022,231.357L151.979,231.357C148.123,231.357 144.992,234.488 144.992,238.344L144.992,248.009C144.992,251.865 148.123,254.996 151.979,254.996L156.022,254.996C159.879,254.996 163.01,251.865 163.01,248.009L163.01,238.344Z" style="fill:none;stroke:black;stroke-width:0.56px;"/>
                    </g>
                    <g transform="matrix(1,0,0,1,-0.147046,23.5141)">
                        <path d="M163.01,238.344C163.01,234.488 159.879,231.357 156.022,231.357L151.979,231.357C148.123,231.357 144.992,234.488 144.992,238.344L144.992,248.009C144.992,251.865 148.123,254.996 151.979,254.996L156.022,254.996C159.879,254.996 163.01,251.865 163.01,248.009L163.01,238.344Z" style="fill:none;stroke:black;stroke-width:0.56px;"/>
                    </g>
                </g>
            </g>
            <g transform="matrix(0.573582,-0.171592,0.171592,0.573582,761.03,1745.02)">
                <g transform="matrix(4.70412,-1.30565e-16,1.00697e-16,3.62799,-2543.44,-1092.11)">
                    <path d="M716.977,420.884C716.977,415.218 713.429,410.618 709.059,410.618L676.906,410.618C672.536,410.618 668.989,415.218 668.989,420.884C668.989,426.55 672.536,431.15 676.906,431.15L709.059,431.15C713.429,431.15 716.977,426.55 716.977,420.884Z" style="fill:rgb(77,77,77);stroke:black;stroke-width:2.08px;stroke-linejoin:miter;stroke-miterlimit:3;"/>
                </g>
                <g transform="matrix(1.30371,-0.283051,0.283051,1.30371,-2358.39,-184.918)">
                    <path d="M2177.24,974.525C2177.24,974.525 2186.35,974.343 2195.7,974.157C2208.77,973.897 2221.55,970.228 2232.76,963.512C2232.76,963.512 2232.76,963.512 2232.76,963.512L2233.21,967.789L2220.49,982.178L2182.06,974.742L2177.24,974.525Z" style="fill:rgb(46,46,46);"/>
                </g>
                <g transform="matrix(4.70412,-1.30565e-16,1.00697e-16,3.62799,-2543.44,-1092.11)">
                    <path d="M716.977,420.884C716.977,415.218 713.429,410.618 709.059,410.618L676.906,410.618C672.536,410.618 668.989,415.218 668.989,420.884C668.989,426.55 672.536,431.15 676.906,431.15L709.059,431.15C713.429,431.15 716.977,426.55 716.977,420.884Z" style="fill:none;stroke:black;stroke-width:2.08px;stroke-linejoin:miter;stroke-miterlimit:3;"/>
                </g>
            </g>
            <g transform="matrix(0.559024,-0.214318,0.214318,0.559024,408.285,1435.55)">
                <g>
                    <g transform="matrix(4.70412,-2.61131e-16,2.01394e-16,3.62799,-2576.67,-1053.88)">
                        <path d="M716.977,420.884C716.977,415.218 713.429,410.618 709.059,410.618L676.906,410.618C672.536,410.618 668.989,415.218 668.989,420.884C668.989,426.55 672.536,431.15 676.906,431.15L709.059,431.15C713.429,431.15 716.977,426.55 716.977,420.884Z" style="fill:rgb(255,70,64);stroke:black;stroke-width:2.08px;stroke-linejoin:miter;stroke-miterlimit:3;"/>
                    </g>
                    <path d="M593.761,507.249L585.698,503.968C585.698,503.968 684.916,500.063 736.648,498.027C756.733,497.236 776.325,491.575 793.735,481.53C793.736,481.529 793.736,481.529 793.736,481.529L773.986,507.819L593.761,507.249Z" style="fill:rgb(167,0,0);"/>
                    <g transform="matrix(4.70412,-2.61131e-16,2.01394e-16,3.62799,-2576.67,-1053.88)">
                        <path d="M716.977,420.884C716.977,415.218 713.429,410.618 709.059,410.618L676.906,410.618C672.536,410.618 668.989,415.218 668.989,420.884C668.989,426.55 672.536,431.15 676.906,431.15L709.059,431.15C713.429,431.15 716.977,426.55 716.977,420.884Z" style="fill:none;stroke:black;stroke-width:2.08px;stroke-linejoin:miter;stroke-miterlimit:3;"/>
                    </g>
                </g>
            </g>
            <g transform="matrix(1.17514,0,0,1.17514,38.5435,93.617)">
                <g transform="matrix(0.206856,-0.0994025,0.0994025,0.206856,537.538,817.548)">
                    <path d="M376.112,359.979C415.208,315.427 522.554,238.96 655.576,235.6C803.119,231.872 922.2,304.979 965.589,351.101C990.502,377.582 987.142,426.333 970.247,448.523C952.848,471.373 925.87,504.165 866.134,485.677C819.33,471.192 738.304,404.224 674.942,404.524C611.58,404.823 538.242,463.622 485.96,487.474C449.469,504.121 401.484,485.495 383.176,464.246C364.868,442.997 339.409,401.805 376.112,359.979Z" style="fill:rgb(204,204,204);stroke:black;stroke-width:23.4px;"/>
                </g>
                <path d="M673.215,873.856C673.215,873.856 692.271,853.329 704.515,840.14C710.975,833.181 719.862,828.972 729.339,828.381C747.864,827.228 777.24,825.398 777.24,825.398L772.131,829.218L716.288,833.416L680.658,875.997L673.215,873.856Z" style="fill:rgb(115,115,115);"/>
                <g transform="matrix(0.206856,-0.0994025,0.0994025,0.206856,537.538,817.548)">
                    <path d="M376.112,359.979C415.208,315.427 522.554,238.96 655.576,235.6C803.119,231.872 922.2,304.979 965.589,351.101C990.502,377.582 987.142,426.333 970.247,448.523C952.848,471.373 925.87,504.165 866.134,485.677C819.33,471.192 738.304,404.224 674.942,404.524C611.58,404.823 538.242,463.622 485.96,487.474C449.469,504.121 401.484,485.495 383.176,464.246C364.868,442.997 339.409,401.805 376.112,359.979Z" style="fill:none;stroke:black;stroke-width:23.4px;"/>
                </g>
                <g id="path11856" transform="matrix(-2.19417,-1.0526e-16,-1.0526e-16,-3.05369,4133.81,784.388)">
                    <path d="M1586.9,-27.726C1588.96,-26.538 1591.86,-27.357 1592.97,-29.465C1594.72,-31.85 1595.48,-35.086 1598.15,-36.697C1600.25,-37.503 1602.47,-36.534 1604.58,-36.212C1607.01,-35.62 1610,-35.285 1611.99,-37.14C1613.14,-38.486 1613.97,-40.32 1615.77,-40.954C1617.07,-41.412 1618.86,-41.279 1619.55,-39.904" style="fill:none;fill-rule:nonzero;stroke:black;stroke-width:2.67px;stroke-linejoin:miter;stroke-miterlimit:4;"/>
                </g>
            </g>
            <g transform="matrix(0.801503,0,0,0.801503,-417.033,980.238)">
                <g transform="matrix(0.530305,-0.422555,0.422555,0.530305,1425.42,420.614)">
                    <path d="M506.523,511.605C503.809,509.161 501.267,499.526 504.021,494.442C507.349,488.301 519.45,479.482 526.49,474.758C532.463,470.749 539.824,466.792 546.259,466.099C552.68,465.409 559.791,468.463 565.101,470.605C569.882,472.534 574.036,475.809 578.12,478.955C582.225,482.117 585.613,486.328 589.731,489.578C594.168,493.08 600.359,497.403 604.741,499.969C608.29,502.047 611.968,504.718 616.02,504.972C620.072,505.226 625.795,503.155 629.055,501.492C631.791,500.098 642.827,490.458 645.993,488.005C649.037,485.646 651.562,482.603 654.578,480.276C657.578,477.96 660.82,475.782 664.086,474.04C667.301,472.324 670.708,470.953 674.172,469.82C678.228,468.493 684.174,466.275 688.425,466.077C692.266,465.897 696.073,467.282 699.674,468.629C703.283,469.98 706.914,472.088 710.078,474.181C713.156,476.218 716.207,479.203 718.654,481.187C720.681,482.831 728.449,490.333 730.463,492.212C732.463,494.076 734.605,495.86 736.847,497.359C739.078,498.851 741.602,500.225 743.917,501.208C746.103,502.135 748.403,502.838 750.74,503.256C753.098,503.677 755.67,504.021 758.061,503.735C760.452,503.448 762.936,502.72 765.084,501.535C767.793,500.04 771.682,496.747 774.315,494.766C776.533,493.097 778.524,490.897 780.883,489.646C783.226,488.404 785.85,487.656 788.472,487.258C791.193,486.844 794.737,486.225 797.208,487.164C799.68,488.104 801.898,490.662 803.302,492.896C804.705,495.13 805.474,497.9 805.628,500.568C805.786,503.314 805.307,506.716 804.25,509.37C803.192,512.024 801.339,514.456 799.282,516.494C797.178,518.579 788.386,526.013 786.156,527.269C783.537,528.744 779.014,529.778 775.908,530.733C773.142,531.583 770.358,532.403 767.525,532.995C764.559,533.614 761.272,534.128 758.115,534.45C754.61,534.808 749.774,535.509 746.497,535.143C743.665,534.828 732.826,531.304 730.231,530.184C727.573,529.037 724.969,527.145 722.505,525.376C719.743,523.394 716.266,520.52 713.659,518.291C711.314,516.285 709.199,513.862 706.866,512.001C704.599,510.192 695.514,503.015 693.302,501.423C691.16,499.882 688.89,497.819 686.385,497.572C683.88,497.325 680.65,498.626 678.269,499.94C675.888,501.255 674.085,503.542 672.101,505.458C669.982,507.504 667.89,510.121 665.555,512.215C662.653,514.818 657.909,518.726 654.684,521.079C651.999,523.039 649.005,524.756 646.208,526.335C643.505,527.861 640.803,529.441 637.904,530.553C634.258,531.951 628.549,534.185 624.333,534.727C620.444,535.227 616.491,534.339 612.607,533.805C608.385,533.225 602.913,532.558 599.002,531.246C595.461,530.058 592.381,527.505 589.14,525.931C586.01,524.411 573.626,516.567 570.795,514.006C568.03,511.506 565.147,508.631 562.566,506.433C560.237,504.45 557.483,502.059 555.309,500.818C553.551,499.814 551.536,498.814 549.519,498.984C547.108,499.187 529.096,513.208 526.665,514.681C524.239,516.151 520.938,517.199 518.462,516.943C511.308,516.204 511.404,516.001 506.523,511.605Z" style="fill:rgb(232,182,35);"/>
                </g>
                <path d="M1940.06,450.061C1940.06,450.061 1942.54,449.54 1946.19,448.776C1964.82,444.87 1981.82,435.365 1994.9,421.534C1994.9,421.534 1994.9,421.534 1994.9,421.534L1989.53,432.601L1962.12,451.546L1940.06,450.061Z" style="fill:rgb(232,139,35);"/>
                <g transform="matrix(1,0,0,1,73.718,-58.5675)">
                    <path d="M1941.48,449.099C1941.48,449.099 1942.89,448.918 1945.13,448.627C1964.86,446.075 1981.97,433.745 1990.63,415.838C1990.63,415.838 1990.63,415.838 1990.63,415.838L1989.53,432.601L1962.12,451.546L1941.48,449.099Z" style="fill:rgb(232,139,35);"/>
                </g>
                <g transform="matrix(0.530305,-0.422555,0.422555,0.530305,1425.42,420.614)">
                    <path d="M506.523,511.605C503.809,509.161 501.267,499.526 504.021,494.442C507.349,488.301 519.45,479.482 526.49,474.758C532.463,470.749 539.824,466.792 546.259,466.099C552.68,465.409 559.791,468.463 565.101,470.605C569.882,472.534 574.036,475.809 578.12,478.955C582.225,482.117 585.613,486.328 589.731,489.578C594.168,493.08 600.359,497.403 604.741,499.969C608.29,502.047 611.968,504.718 616.02,504.972C620.072,505.226 625.795,503.155 629.055,501.492C631.791,500.098 642.827,490.458 645.993,488.005C649.037,485.646 651.562,482.603 654.578,480.276C657.578,477.96 660.82,475.782 664.086,474.04C667.301,472.324 670.708,470.953 674.172,469.82C678.228,468.493 684.174,466.275 688.425,466.077C692.266,465.897 696.073,467.282 699.674,468.629C703.283,469.98 706.914,472.088 710.078,474.181C713.156,476.218 716.207,479.203 718.654,481.187C720.681,482.831 728.449,490.333 730.463,492.212C732.463,494.076 734.605,495.86 736.847,497.359C739.078,498.851 741.602,500.225 743.917,501.208C746.103,502.135 748.403,502.838 750.74,503.256C753.098,503.677 755.67,504.021 758.061,503.735C760.452,503.448 762.936,502.72 765.084,501.535C767.793,500.04 771.682,496.747 774.315,494.766C776.533,493.097 778.524,490.897 780.883,489.646C783.226,488.404 785.85,487.656 788.472,487.258C791.193,486.844 794.737,486.225 797.208,487.164C799.68,488.104 801.898,490.662 803.302,492.896C804.705,495.13 805.474,497.9 805.628,500.568C805.786,503.314 805.307,506.716 804.25,509.37C803.192,512.024 801.339,514.456 799.282,516.494C797.178,518.579 788.386,526.013 786.156,527.269C783.537,528.744 779.014,529.778 775.908,530.733C773.142,531.583 770.358,532.403 767.525,532.995C764.559,533.614 761.272,534.128 758.115,534.45C754.61,534.808 749.774,535.509 746.497,535.143C743.665,534.828 732.826,531.304 730.231,530.184C727.573,529.037 724.969,527.145 722.505,525.376C719.743,523.394 716.266,520.52 713.659,518.291C711.314,516.285 709.199,513.862 706.866,512.001C704.599,510.192 695.514,503.015 693.302,501.423C691.16,499.882 688.89,497.819 686.385,497.572C683.88,497.325 680.65,498.626 678.269,499.94C675.888,501.255 674.085,503.542 672.101,505.458C669.982,507.504 667.89,510.121 665.555,512.215C662.653,514.818 657.909,518.726 654.684,521.079C651.999,523.039 649.005,524.756 646.208,526.335C643.505,527.861 640.803,529.441 637.904,530.553C634.258,531.951 628.549,534.185 624.333,534.727C620.444,535.227 616.491,534.339 612.607,533.805C608.385,533.225 602.913,532.558 599.002,531.246C595.461,530.058 592.381,527.505 589.14,525.931C586.01,524.411 573.626,516.567 570.795,514.006C568.03,511.506 565.147,508.631 562.566,506.433C560.237,504.45 557.483,502.059 555.309,500.818C553.551,499.814 551.536,498.814 549.519,498.984C547.108,499.187 529.096,513.208 526.665,514.681C524.239,516.151 520.938,517.199 518.462,516.943C511.308,516.204 511.404,516.001 506.523,511.605Z" style="fill:none;stroke:black;stroke-width:11.61px;"/>
                </g>
            </g>
            <g transform="matrix(1,0,0,1,-26.4664,24.6429)">
                <g transform="matrix(1.33367,0,0,1.33367,-1576.27,578.506)">
                    <circle cx="2109.16" cy="869.832" r="35.462" style="fill:rgb(0,114,183);"/>
                </g>
                <g transform="matrix(1.33367,0,0,1.33367,-1868.06,246.641)">
                    <circle cx="2109.16" cy="869.832" r="35.462" style="fill:rgb(0,114,183);"/>
                </g>
                <g transform="matrix(1.13283,0,0,1.13283,763.217,602.792)">
                    <text x="387.351px" y="1021.95px" style="font-family:'AvenirNext-Regular', 'Avenir Next', sans-serif;font-size:75px;fill:white;">e-</text>
                </g>
                <g transform="matrix(1.13283,0,0,1.13283,889.215,521.134)">
                    <text x="390.306px" y="1021.95px" style="font-family:'AvenirNext-Regular', 'Avenir Next', sans-serif;font-size:75px;">H</text>
                    <text x="444.156px" y="1046.92px" style="font-family:'AvenirNext-Regular', 'Avenir Next', sans-serif;font-size:43.725px;">2</text>
                    <text x="469.516px" y="1021.95px" style="font-family:'AvenirNext-Regular', 'Avenir Next', sans-serif;font-size:75px;">S</text>
                </g>
                <g transform="matrix(1.13283,0,0,1.13283,227.126,539.957)">
                    <text x="401.263px" y="1009.75px" style="font-family:'AvenirNext-Regular', 'Avenir Next', sans-serif;font-size:58.865px;">Oxides</text>
                </g>
                <g transform="matrix(1.13283,0,0,1.13283,967.023,8.37972)">
                    <text x="406.506px" y="1021.95px" style="font-family:'AvenirNext-Regular', 'Avenir Next', sans-serif;font-size:75px;">O</text>
                    <text x="470.256px" y="1046.92px" style="font-family:'AvenirNext-Regular', 'Avenir Next', sans-serif;font-size:43.725px;">2</text>
                </g>
                <g transform="matrix(1.13283,0,0,1.13283,471.43,270.928)">
                    <text x="387.351px" y="1021.95px" style="font-family:'AvenirNext-Regular', 'Avenir Next', sans-serif;font-size:75px;fill:white;">e-</text>
                </g>
            </g>
            <g transform="matrix(1,0,0,1,-54.3204,-516.151)">
                <g transform="matrix(1.33367,0,0,1.33367,-1547.24,511.318)">
                    <circle cx="2109.16" cy="869.832" r="35.462" style="fill:rgb(0,114,183);"/>
                </g>
                <g transform="matrix(1.13283,0,0,1.13283,792.415,534.69)">
                    <text x="387.328px" y="1021.99px" style="font-family:'AvenirNext-Regular', 'Avenir Next', sans-serif;font-size:75.053px;fill:white;">e-</text>
                </g>
            </g>
            <g transform="matrix(-1.29769,-0.307684,-0.307684,1.29769,3386.41,488.898)">
                <g transform="matrix(-0.736716,-0.174676,-0.174676,0.736716,2004.8,787.973)">
                    <path d="M589.223,999.271L579.291,995.548L583.013,985.616" style="fill:none;stroke:rgb(0,114,183);stroke-width:5px;stroke-linejoin:miter;stroke-miterlimit:10;"/>
                    <path d="M619.401,938.44C619.401,938.44 618.637,952.805 618.026,964.282C617.568,972.88 612.365,980.508 604.527,984.072C595.718,988.078 584.658,993.107 579.291,995.548" style="fill:none;stroke:rgb(0,114,183);stroke-width:5px;"/>
                </g>
            </g>
            <g transform="matrix(-1.29769,-0.307684,-0.307684,1.29769,3242.5,188.834)">
                <g transform="matrix(-0.736716,-0.174676,-0.174676,0.736716,1847.9,982.002)">
                    <path d="M446.712,702.112L436.78,698.389L440.503,688.457" style="fill:none;stroke:rgb(0,114,183);stroke-width:5px;stroke-linejoin:miter;stroke-miterlimit:10;"/>
                    <path d="M476.891,641.281C476.891,641.281 476.126,655.646 475.515,667.123C475.057,675.72 469.854,683.349 462.017,686.913C453.208,690.919 442.148,695.948 436.78,698.389" style="fill:none;stroke:rgb(0,114,183);stroke-width:5px;"/>
                </g>
            </g>
            <g transform="matrix(1.29769,0.307684,0.307684,-1.29769,-1107.32,3236.97)">
                <g transform="matrix(0.736716,0.174676,0.174676,-0.736716,798.377,1994.32)">
                    <path d="M593.61,918.641L603.541,922.364L599.819,932.296" style="fill:none;stroke:rgb(0,114,183);stroke-width:5px;stroke-linejoin:miter;stroke-miterlimit:10;"/>
                    <path d="M563.431,979.472C563.431,979.472 564.196,965.107 564.807,953.63C565.264,945.033 570.468,937.404 578.305,933.84C587.114,929.834 598.174,924.805 603.541,922.364" style="fill:none;stroke:rgb(0,114,183);stroke-width:5px;"/>
                </g>
            </g>
            <g transform="matrix(1.29769,0.307684,0.307684,-1.29769,-1251.23,2936.9)">
                <g transform="matrix(0.736716,0.174676,0.174676,-0.736716,955.273,1800.29)">
                    <path d="M451.099,621.482L461.031,625.205L457.308,635.136" style="fill:none;stroke:rgb(0,114,183);stroke-width:5px;stroke-linejoin:miter;stroke-miterlimit:10;"/>
                    <path d="M420.92,682.313C420.92,682.313 421.685,667.948 422.296,656.471C422.754,647.873 427.957,640.245 435.795,636.681C444.603,632.675 455.663,627.645 461.031,625.205" style="fill:none;stroke:rgb(0,114,183);stroke-width:5px;"/>
                </g>
            </g>
            <g transform="matrix(-1.29769,-0.307684,-0.307684,1.29769,3034.27,177.144)">
                <g transform="matrix(-0.736716,-0.174676,-0.174676,0.736716,1693.96,954.51)">
                    <path d="M240.497,690.535L230.565,686.812L234.288,676.88" style="fill:none;stroke:rgb(0,114,183);stroke-width:5px;stroke-linejoin:miter;stroke-miterlimit:10;"/>
                    <path d="M270.675,629.703C270.675,629.703 269.911,644.069 269.3,655.546C268.842,664.143 263.639,671.772 255.801,675.336C246.992,679.342 235.933,684.371 230.565,686.812" style="fill:none;stroke:rgb(0,114,183);stroke-width:5px;"/>
                </g>
            </g>
            <g transform="matrix(1.29769,0.307684,0.307684,-1.29769,-1459.46,2925.21)">
                <g transform="matrix(0.736716,0.174676,0.174676,-0.736716,1109.22,1827.78)">
                    <path d="M244.884,609.905L254.816,613.627L251.093,623.559" style="fill:none;stroke:rgb(0,114,183);stroke-width:5px;stroke-linejoin:miter;stroke-miterlimit:10;"/>
                    <path d="M214.705,670.736C214.705,670.736 215.47,656.371 216.081,644.894C216.538,636.296 221.742,628.668 229.579,625.103C238.388,621.098 249.448,616.068 254.816,613.627" style="fill:none;stroke:rgb(0,114,183);stroke-width:5px;"/>
                </g>
            </g>
            <g transform="matrix(0.787399,-1.07642,-1.07642,-0.787399,1562.76,4317.84)">
                <g transform="matrix(0.447015,-0.611096,-0.611096,-0.447015,1619.95,2132.96)">
                    <path d="M578.888,800.7L591.388,788.2L603.888,800.7" style="fill:none;stroke:rgb(0,114,183);stroke-width:8.33px;stroke-linejoin:miter;stroke-miterlimit:10;"/>
                    <path d="M591.388,898.373L591.388,788.2" style="fill:none;stroke:rgb(0,114,183);stroke-width:8.33px;"/>
                </g>
            </g>
            <g transform="matrix(-1.1262,0.714385,-0.714385,-1.1262,3386.81,2062.09)">
                <g transform="matrix(-0.639358,-0.405565,0.405565,-0.639358,1332.12,1881.66)">
                    <path d="M256.865,582.334L248.285,566.877L263.742,558.298" style="fill:none;stroke:rgb(0,114,183);stroke-width:8.33px;stroke-linejoin:miter;stroke-miterlimit:10;"/>
                    <path d="M485.613,587.01C485.613,587.01 418.777,594.96 385.735,598.89C373.817,600.308 361.736,599.338 350.198,596.036C321.576,587.847 266.113,571.978 248.285,566.877" style="fill:none;stroke:rgb(0,114,183);stroke-width:8.33px;"/>
                </g>
            </g>
            <g transform="matrix(-1.28728,-0.348677,0.348677,-1.28728,2444.96,3487.07)">
                <g transform="matrix(-0.730806,0.197948,-0.197948,-0.730806,1885.19,1503.28)">
                    <path d="M573.408,278.815L586.604,267.052L598.367,280.248" style="fill:none;stroke:rgb(0,114,183);stroke-width:8.33px;stroke-linejoin:miter;stroke-miterlimit:10;"/>
                    <path d="M604.684,401.537C604.684,401.537 598.013,387.757 591.846,375.019C585.138,361.163 582.081,345.824 582.963,330.455C584.18,309.265 585.887,279.535 586.604,267.052" style="fill:none;stroke:rgb(0,114,183);stroke-width:8.33px;"/>
                </g>
            </g>
            <g transform="matrix(0.787399,-1.07642,-1.07642,-0.787399,1557.08,3656.24)">
                <g transform="matrix(0.447015,-0.611096,-0.611096,-0.447015,1222.08,1836.64)">
                    <path d="M573.265,145.501L585.765,133.001L598.265,145.501" style="fill:none;stroke:rgb(0,114,183);stroke-width:8.33px;stroke-linejoin:miter;stroke-miterlimit:10;"/>
                    <path d="M585.765,243.174L585.765,133.001" style="fill:none;stroke:rgb(0,114,183);stroke-width:8.33px;"/>
                </g>
            </g>
            <g transform="matrix(-1,0,0,1,2090.28,0)">
                <g transform="matrix(1.33367,0,0,1.33367,-1587.64,512.183)">
                    <path d="M2282.07,831.23L2304.16,831.23L2309.35,845.504C2310.88,849.685 2315.51,851.844 2319.69,850.323L2334.84,844.808C2339.02,843.287 2341.18,838.657 2339.65,834.476L2338.47,831.23L2394.24,831.23L2394.24,542.475L2336.76,542.475L2339.48,534.991C2341.01,530.81 2338.85,526.18 2334.67,524.659L2319.52,519.144C2315.34,517.623 2310.7,519.782 2309.18,523.962L2302.45,542.475L2282.19,542.475L2278.49,532.328C2276.97,528.147 2272.34,525.988 2268.16,527.51L2253.01,533.024C2249.12,534.439 2246.98,538.544 2247.93,542.475L2236.34,542.475C2237.21,539.501 2236.31,536.16 2233.79,534.04L2221.45,523.666C2218.04,520.803 2212.95,521.244 2210.09,524.649L2190.89,547.486C2188.03,550.892 2188.47,555.981 2191.88,558.844L2204.22,569.219C2206.33,570.992 2209.08,571.498 2211.56,570.817L2211.56,623.394L2202.32,648.776C2200.8,652.956 2202.95,657.586 2207.14,659.108L2211.56,660.717L2211.56,696.93C2210.25,696.442 2208.81,696.285 2207.34,696.544L2177.96,701.725C2173.58,702.497 2170.65,706.682 2171.42,711.063L2174.22,726.941C2174.99,731.322 2179.18,734.252 2183.56,733.48L2211.56,728.543L2211.56,772.414L2204.59,773.643C2200.2,774.416 2197.28,778.6 2198.05,782.982L2200.85,798.859C2201.62,803.241 2205.8,806.171 2210.19,805.398L2211.56,805.157L2211.56,831.23L2247.75,831.23L2252.58,844.485C2254.1,848.666 2258.73,850.824 2262.91,849.303L2278.06,843.788C2282.24,842.267 2284.4,837.637 2282.88,833.456L2282.07,831.23ZM2523.1,645.25C2532.12,645.25 2539.45,653.622 2539.45,663.935C2539.45,674.247 2532.12,682.62 2523.1,682.62C2514.07,682.62 2506.74,674.247 2506.74,663.935C2506.74,653.622 2514.07,645.25 2523.1,645.25Z" style="fill:rgb(46,46,46);stroke:black;stroke-width:6.31px;"/>
                </g>
                <g transform="matrix(1.33367,0,0,1.33367,-1587.64,512.183)">
                    <path d="M2275.05,620.184C2275.05,618.153 2273.4,616.505 2271.37,616.505L2248.36,616.505C2246.33,616.505 2244.68,618.153 2244.68,620.184L2244.68,627.544C2244.68,629.575 2246.33,631.224 2248.36,631.224L2271.37,631.224C2273.4,631.224 2275.05,629.575 2275.05,627.544L2275.05,620.184Z" style="fill:rgb(77,77,77);stroke:rgb(38,38,38);stroke-width:6.31px;"/>
                </g>
                <g transform="matrix(1.33367,0,0,1.33367,-1593.92,558.48)">
                    <path d="M2275.05,620.184C2275.05,618.153 2273.4,616.505 2271.37,616.505L2248.36,616.505C2246.33,616.505 2244.68,618.153 2244.68,620.184L2244.68,627.544C2244.68,629.575 2246.33,631.224 2248.36,631.224L2271.37,631.224C2273.4,631.224 2275.05,629.575 2275.05,627.544L2275.05,620.184Z" style="fill:rgb(77,77,77);stroke:rgb(38,38,38);stroke-width:6.31px;"/>
                </g>
                <g transform="matrix(1.02165,0.857267,-0.857267,1.02165,-311.045,-1187.06)">
                    <path d="M2275.05,620.184C2275.05,618.153 2273.4,616.505 2271.37,616.505L2248.36,616.505C2246.33,616.505 2244.68,618.153 2244.68,620.184L2244.68,627.544C2244.68,629.575 2246.33,631.224 2248.36,631.224L2271.37,631.224C2273.4,631.224 2275.05,629.575 2275.05,627.544L2275.05,620.184Z" style="fill:rgb(77,77,77);stroke:rgb(38,38,38);stroke-width:6.31px;"/>
                </g>
                <g transform="matrix(0.666835,1.15499,-1.15499,0.666835,604.713,-1540.16)">
                    <path d="M2275.05,620.184C2275.05,618.153 2273.4,616.505 2271.37,616.505L2248.36,616.505C2246.33,616.505 2244.68,618.153 2244.68,620.184L2244.68,627.544C2244.68,629.575 2246.33,631.224 2248.36,631.224L2271.37,631.224C2273.4,631.224 2275.05,629.575 2275.05,627.544L2275.05,620.184Z" style="fill:rgb(77,77,77);stroke:rgb(38,38,38);stroke-width:6.31px;"/>
                </g>
                <g transform="matrix(1.15499,-0.666835,0.666835,1.15499,-1525.02,2248.8)">
                    <path d="M2275.05,620.184C2275.05,618.153 2273.4,616.505 2271.37,616.505L2248.36,616.505C2246.33,616.505 2244.68,618.153 2244.68,620.184L2244.68,627.544C2244.68,629.575 2246.33,631.224 2248.36,631.224L2271.37,631.224C2273.4,631.224 2275.05,629.575 2275.05,627.544L2275.05,620.184Z" style="fill:rgb(77,77,77);stroke:rgb(38,38,38);stroke-width:6.31px;"/>
                </g>
                <g transform="matrix(1.15499,-0.666835,0.666835,1.15499,-1514.71,2324.55)">
                    <path d="M2275.05,620.184C2275.05,618.153 2273.4,616.505 2271.37,616.505L2248.36,616.505C2246.33,616.505 2244.68,618.153 2244.68,620.184L2244.68,627.544C2244.68,629.575 2246.33,631.224 2248.36,631.224L2271.37,631.224C2273.4,631.224 2275.05,629.575 2275.05,627.544L2275.05,620.184Z" style="fill:rgb(77,77,77);stroke:rgb(38,38,38);stroke-width:6.31px;"/>
                </g>
                <g transform="matrix(1.15499,-0.666835,0.666835,1.15499,-1597.08,2378.76)">
                    <path d="M2275.05,620.184C2275.05,618.153 2273.4,616.505 2271.37,616.505L2248.36,616.505C2246.33,616.505 2244.68,618.153 2244.68,620.184L2244.68,627.544C2244.68,629.575 2246.33,631.224 2248.36,631.224L2271.37,631.224C2273.4,631.224 2275.05,629.575 2275.05,627.544L2275.05,620.184Z" style="fill:rgb(77,77,77);stroke:rgb(38,38,38);stroke-width:6.31px;"/>
                </g>
                <g transform="matrix(1.15499,-0.666835,0.666835,1.15499,-1481.96,2165.14)">
                    <path d="M2275.05,620.184C2275.05,618.153 2273.4,616.505 2271.37,616.505L2248.36,616.505C2246.33,616.505 2244.68,618.153 2244.68,620.184L2244.68,627.544C2244.68,629.575 2246.33,631.224 2248.36,631.224L2271.37,631.224C2273.4,631.224 2275.05,629.575 2275.05,627.544L2275.05,620.184Z" style="fill:rgb(77,77,77);stroke:rgb(38,38,38);stroke-width:6.31px;"/>
                </g>
                <g transform="matrix(1.15499,-0.666835,0.666835,1.15499,-1510.64,2131.85)">
                    <path d="M2275.05,620.184C2275.05,618.153 2273.4,616.505 2271.37,616.505L2248.36,616.505C2246.33,616.505 2244.68,618.153 2244.68,620.184L2244.68,627.544C2244.68,629.575 2246.33,631.224 2248.36,631.224L2271.37,631.224C2273.4,631.224 2275.05,629.575 2275.05,627.544L2275.05,620.184Z" style="fill:rgb(77,77,77);stroke:rgb(38,38,38);stroke-width:6.31px;"/>
                </g>
                <g transform="matrix(1.15499,-0.666835,0.666835,1.15499,-1609.07,2069.57)">
                    <path d="M2275.05,620.184C2275.05,618.153 2273.4,616.505 2271.37,616.505L2248.36,616.505C2246.33,616.505 2244.68,618.153 2244.68,620.184L2244.68,627.544C2244.68,629.575 2246.33,631.224 2248.36,631.224L2271.37,631.224C2273.4,631.224 2275.05,629.575 2275.05,627.544L2275.05,620.184Z" style="fill:rgb(77,77,77);stroke:rgb(38,38,38);stroke-width:6.31px;"/>
                </g>
                <g transform="matrix(1.33367,0,0,1.33367,-1566.59,600.056)">
                    <path d="M2275.05,620.184C2275.05,618.153 2273.4,616.505 2271.37,616.505L2248.36,616.505C2246.33,616.505 2244.68,618.153 2244.68,620.184L2244.68,627.544C2244.68,629.575 2246.33,631.224 2248.36,631.224L2271.37,631.224C2273.4,631.224 2275.05,629.575 2275.05,627.544L2275.05,620.184Z" style="fill:rgb(77,77,77);stroke:rgb(38,38,38);stroke-width:6.31px;"/>
                </g>
                <g transform="matrix(8.16638e-17,-1.33367,1.33367,8.16638e-17,603.416,4546.78)">
                    <path d="M2275.05,620.184C2275.05,618.153 2273.4,616.505 2271.37,616.505L2248.36,616.505C2246.33,616.505 2244.68,618.153 2244.68,620.184L2244.68,627.544C2244.68,629.575 2246.33,631.224 2248.36,631.224L2271.37,631.224C2273.4,631.224 2275.05,629.575 2275.05,627.544L2275.05,620.184Z" style="fill:rgb(77,77,77);stroke:rgb(38,38,38);stroke-width:6.31px;"/>
                </g>
                <g transform="matrix(1.25324,-0.456142,0.456142,1.25324,-1621.18,1552.09)">
                    <path d="M2275.05,620.184C2275.05,618.153 2273.4,616.505 2271.37,616.505L2248.36,616.505C2246.33,616.505 2244.68,618.153 2244.68,620.184L2244.68,627.544C2244.68,629.575 2246.33,631.224 2248.36,631.224L2271.37,631.224C2273.4,631.224 2275.05,629.575 2275.05,627.544L2275.05,620.184Z" style="fill:rgb(77,77,77);stroke:rgb(38,38,38);stroke-width:6.31px;"/>
                </g>
            </g>
            <g transform="matrix(1.33367,0,0,1.33367,-252.138,488.402)">
                <path d="M1222.63,565.091L1241.71,845.727L1203.56,845.727L1222.63,565.091Z" style="fill:rgb(158,151,142);stroke:rgb(38,38,38);stroke-width:4.73px;"/>
            </g>
            <g transform="matrix(1.33367,0,0,-1.33367,-173.491,2364.28)">
                <path d="M1222.63,565.091L1241.71,845.727L1203.56,845.727L1222.63,565.091Z" style="fill:rgb(158,151,142);stroke:rgb(38,38,38);stroke-width:4.73px;"/>
            </g>
        </g>
    </g>
</svg>
